<?xml version="1.0" standalone="no"?>
<!DOCTYPE svg PUBLIC "-//W3C//DTD SVG 1.1//EN" "http://www.w3.org/Graphics/SVG/1.1/DTD/svg11.dtd" >
<svg xmlns="http://www.w3.org/2000/svg" xmlns:xlink="http://www.w3.org/1999/xlink" version="1.1">
<metadata>
Created by FontForge 20170731 at Thu May 11 19:56:20 2017
 By Aleksey,,,
Copyright (c) 2016 by Zetafonts. All rights reserved.
</metadata>
<defs>
<font id="AristaProAlternate-Bold" horiz-adv-x="1108" >
  <font-face 
    font-family="Arista Pro Alternate Bold"
    font-weight="700"
    font-stretch="normal"
    units-per-em="2048"
    panose-1="2 0 5 6 2 0 0 2 0 4"
    ascent="1638"
    descent="-410"
    x-height="965"
    cap-height="1311"
    bbox="-230 -705 2486 1906"
    underline-thickness="102"
    underline-position="-307"
    unicode-range="U+0020-FB06"
  />
<missing-glyph horiz-adv-x="461" 
 />
    <glyph glyph-name="ff" unicode="ff" horiz-adv-x="1410" 
d="M872 668v282q0 74 28.5 139.5t77 114t114 77t139.5 28.5q28 0 53 -10.5t43 -29t28.5 -43t10.5 -52.5t-10.5 -52.5t-28.5 -42.5t-43 -28.5t-53 -10.5q-11 0 -14 1q-32 -9 -54 -32.5t-22 -58.5v-282h71q28 0 53 -10.5t43.5 -28.5t29 -42.5t10.5 -51.5q0 -29 -10.5 -53.5
t-29 -43t-43.5 -29t-53 -10.5h-71v-366q0 -74 -28 -140t-76.5 -115t-114 -77.5t-140.5 -28.5q-27 0 -51.5 10.5t-42.5 29t-28.5 43t-10.5 52.5t10.5 52.5t28.5 42.5t42.5 28.5t51.5 10.5q12 0 15 -1q32 9 53.5 33.5t21.5 59.5v366h-359v-366q0 -74 -28 -139.5t-76 -115
t-113.5 -78t-140.5 -28.5q-28 0 -52 10.5t-42 29t-28.5 43t-10.5 52.5t10.5 52.5t28.5 42.5t42 28.5t52 10.5q12 0 15 -1q32 9 53.5 33.5t21.5 59.5v366h-37q-28 0 -52 11t-42 29.5t-28.5 43t-10.5 52.5q0 27 10.5 51.5t28.5 42.5t42 28.5t52 10.5h37v287q1 73 30 137.5
t77.5 112.5t113.5 76t137 28q28 0 53 -10.5t43 -29t28.5 -43t10.5 -52.5t-10.5 -52.5t-28.5 -42.5t-43 -28.5t-53 -10.5q-11 0 -14 1q-31 -8 -52.5 -30.5t-23.5 -55.5v-287h359z" />
    <glyph glyph-name="fi" unicode="fi" horiz-adv-x="1219" 
d="M155 -314q-28 0 -52 10t-42 28t-28.5 42.5t-10.5 53.5q0 27 10.5 51t28.5 42t42 28.5t52 10.5q31 0 53 22t24 52v425h-29q-28 0 -52 10.5t-42 29t-28.5 43t-10.5 51.5t10.5 51t28.5 42t42 28.5t52 10.5h29v263q1 70 28.5 132t74 108t109 73t133.5 27q28 0 52.5 -10.5
t43 -28.5t29 -43t10.5 -53q0 -27 -10.5 -51t-29 -42t-43 -28.5t-52.5 -10.5h-3q-30 -2 -51.5 -23t-23.5 -51v-262h60q28 0 52.5 -10.5t42.5 -28.5t28.5 -42t10.5 -51q0 -28 -10.5 -52.5t-28.5 -42.5t-42.5 -28.5t-52.5 -10.5h-60v-419q0 -29 -10.5 -53.5t-28.5 -42.5
t-42 -28t-51 -10t-51 10t-42.5 27t-29.5 40.5t-12 50.5v6l267 2q0 -71 -27 -134.5t-73.5 -111t-109 -75t-134.5 -27.5zM761 1188q0 30 11.5 55.5t31 45t45.5 30.5t55 11t55 -11t45.5 -30.5t31 -45t11.5 -55.5q0 -29 -11.5 -55t-31 -45.5t-45.5 -30.5t-55 -11t-55 11
t-45.5 30.5t-31 45.5t-11.5 55zM769 833q0 27 11 51t29.5 42t43.5 28.5t53 10.5q27 0 51 -10.5t41.5 -28.5t27.5 -42t10 -51v-712q0 -27 -10.5 -51t-28.5 -42t-42 -28.5t-51 -10.5t-51.5 10.5t-43 28.5t-29.5 42t-11 51v712z" />
    <glyph glyph-name="ffi" unicode="ffi" horiz-adv-x="1862" 
d="M1404 1188q0 30 11.5 55.5t31 45t45.5 30.5t55 11t55 -11t45.5 -30.5t31 -45t11.5 -55.5q0 -29 -11.5 -55t-31 -45.5t-45.5 -30.5t-55 -11t-55 11t-45.5 30.5t-31 45.5t-11.5 55zM1412 833q0 27 11 51t29.5 42t43.5 28.5t53 10.5q27 0 51 -10.5t41.5 -28.5t27.5 -42
t10 -51v-712q0 -27 -10.5 -51t-28.5 -42t-42 -28.5t-51 -10.5t-51.5 10.5t-43 28.5t-29.5 42t-11 51v712zM872 668v282q0 74 28.5 139.5t77 114t114 77t139.5 28.5q28 0 53 -10.5t43 -29t28.5 -43t10.5 -52.5t-10.5 -52.5t-28.5 -42.5t-43 -28.5t-53 -10.5q-11 0 -14 1
q-32 -9 -54 -32.5t-22 -58.5v-282h71q28 0 53 -10.5t43.5 -28.5t29 -42.5t10.5 -51.5q0 -29 -10.5 -53.5t-29 -43t-43.5 -29t-53 -10.5h-71v-366q0 -74 -28 -140t-76.5 -115t-114 -77.5t-140.5 -28.5q-27 0 -51.5 10.5t-42.5 29t-28.5 43t-10.5 52.5t10.5 52.5t28.5 42.5
t42.5 28.5t51.5 10.5q12 0 15 -1q32 9 53.5 33.5t21.5 59.5v366h-359v-366q0 -74 -28 -139.5t-76 -115t-113.5 -78t-140.5 -28.5q-28 0 -52 10.5t-42 29t-28.5 43t-10.5 52.5t10.5 52.5t28.5 42.5t42 28.5t52 10.5q12 0 15 -1q32 9 53.5 33.5t21.5 59.5v366h-37
q-28 0 -52 11t-42 29.5t-28.5 43t-10.5 52.5q0 27 10.5 51.5t28.5 42.5t42 28.5t52 10.5h37v287q1 73 30 137.5t77.5 112.5t113.5 76t137 28q28 0 53 -10.5t43 -29t28.5 -43t10.5 -52.5t-10.5 -52.5t-28.5 -42.5t-43 -28.5t-53 -10.5q-11 0 -14 1q-31 -8 -52.5 -30.5
t-23.5 -55.5v-287h359z" />
    <glyph glyph-name="f_f_j" unicode="ffj" horiz-adv-x="1898" 
d="M1282 -166q0 28 10.5 52.5t28.5 42.5t42 28.5t51 10.5h4q31 2 53 24t22 54v783q0 28 11 52.5t29 43t42.5 29t51.5 10.5q28 0 52 -10.5t42 -29t28 -43t10 -52.5v-783q0 -72 -27 -135t-73.5 -110t-109 -74t-133.5 -27h-2q-27 0 -51 10.5t-42 29t-28.5 43t-10.5 51.5z
M1487 1185q0 30 11.5 55.5t31 45t45.5 30.5t55 11t54.5 -11t44 -30.5t29.5 -45t11 -55.5q0 -29 -11.5 -55t-31 -45.5t-46 -31t-55.5 -11.5t-54.5 11.5t-44 31t-29 45.5t-10.5 55zM872 668v282q0 74 28.5 139.5t77 114t114 77t139.5 28.5q28 0 53 -10.5t43 -29t28.5 -43
t10.5 -52.5t-10.5 -52.5t-28.5 -42.5t-43 -28.5t-53 -10.5q-11 0 -14 1q-32 -9 -54 -32.5t-22 -58.5v-282h71q28 0 53 -10.5t43.5 -28.5t29 -42.5t10.5 -51.5q0 -29 -10.5 -53.5t-29 -43t-43.5 -29t-53 -10.5h-71v-366q0 -74 -28 -140t-76.5 -115t-114 -77.5t-140.5 -28.5
q-27 0 -51.5 10.5t-42.5 29t-28.5 43t-10.5 52.5t10.5 52.5t28.5 42.5t42.5 28.5t51.5 10.5q12 0 15 -1q32 9 53.5 33.5t21.5 59.5v366h-359v-366q0 -74 -28 -139.5t-76 -115t-113.5 -78t-140.5 -28.5q-28 0 -52 10.5t-42 29t-28.5 43t-10.5 52.5t10.5 52.5t28.5 42.5
t42 28.5t52 10.5q12 0 15 -1q32 9 53.5 33.5t21.5 59.5v366h-37q-28 0 -52 11t-42 29.5t-28.5 43t-10.5 52.5q0 27 10.5 51.5t28.5 42.5t42 28.5t52 10.5h37v287q1 73 30 137.5t77.5 112.5t113.5 76t137 28q28 0 53 -10.5t43 -29t28.5 -43t10.5 -52.5t-10.5 -52.5
t-28.5 -42.5t-43 -28.5t-53 -10.5q-11 0 -14 1q-31 -8 -52.5 -30.5t-23.5 -55.5v-287h359z" />
    <glyph glyph-name="f_j" unicode="fj" horiz-adv-x="1202" 
d="M155 -314q-28 0 -52 10t-42 28t-28.5 42.5t-10.5 53.5q0 27 10.5 51t28.5 42t42 28.5t52 10.5q31 0 53 22t24 52v425h-29q-28 0 -52 10.5t-42 29t-28.5 43t-10.5 51.5t10.5 51t28.5 42t42 28.5t52 10.5h29v263q1 70 28.5 132t74 108t109 73t133.5 27q28 0 52.5 -10.5
t43 -28.5t29 -43t10.5 -53q0 -27 -10.5 -51t-29 -42t-43 -28.5t-52.5 -10.5h-3q-30 -2 -51.5 -23t-23.5 -51v-262h60q28 0 52.5 -10.5t42.5 -28.5t28.5 -42t10.5 -51q0 -28 -10.5 -52.5t-28.5 -42.5t-42.5 -28.5t-52.5 -10.5h-60v-419q0 -29 -10.5 -53.5t-28.5 -42.5
t-42 -28t-51 -10t-51 10t-42.5 27t-29.5 40.5t-12 50.5v6l267 2q0 -71 -27 -134.5t-73.5 -111t-109 -75t-134.5 -27.5zM592 -166q0 28 10.5 52.5t28.5 42.5t42 28.5t51 10.5h4q31 2 53 24t22 54v783q0 28 11 52.5t29 43t42.5 29t51.5 10.5q28 0 52 -10.5t42 -29t28 -43
t10 -52.5v-783q0 -72 -27 -135t-73.5 -110t-109 -74t-133.5 -27h-2q-27 0 -51 10.5t-42 29t-28.5 43t-10.5 51.5zM797 1185q0 30 11.5 55.5t31 45t45.5 30.5t55 11t54.5 -11t44 -30.5t29.5 -45t11 -55.5q0 -29 -11.5 -55t-31 -45.5t-46 -31t-55.5 -11.5t-54.5 11.5t-44 31
t-29 45.5t-10.5 55z" />
    <glyph glyph-name=".notdef" horiz-adv-x="461" 
 />
    <glyph glyph-name=".null" horiz-adv-x="0" 
 />
    <glyph glyph-name="nonmarkingreturn" horiz-adv-x="682" 
 />
    <glyph glyph-name="space" unicode=" " horiz-adv-x="461" 
 />
    <glyph glyph-name="exclam" unicode="!" horiz-adv-x="541" 
d="M133 137q0 28 11 52.5t29.5 43.5t43.5 30t53 11t53 -11t44 -30t30 -43.5t11 -52.5q0 -29 -11 -53.5t-30 -43.5t-44 -29.5t-53 -10.5t-53 10.5t-43.5 29.5t-29.5 43.5t-11 53.5zM133 1176q0 28 10.5 52.5t28.5 43t42.5 29t51.5 10.5q28 0 52 -10.5t42 -29t28.5 -43
t10.5 -52.5v-701q0 -29 -10.5 -53.5t-28.5 -42.5t-43 -28.5t-53 -10.5t-52 10.5t-41.5 28.5t-27.5 42.5t-10 53.5v701z" />
    <glyph glyph-name="quotedbl" unicode="&#x22;" horiz-adv-x="840" 
d="M484 1180q0 27 11 51t29 42t42 28t51 10q28 0 52.5 -10t42.5 -28t28.5 -42t10.5 -51v-269q0 -27 -10.5 -51.5t-28.5 -42.5t-42.5 -28.5t-52.5 -10.5q-27 0 -51.5 10.5t-42.5 28.5t-28.5 42.5t-10.5 51.5v269zM89 1180q0 27 10.5 51t28.5 42t42 28t52 10t52 -10t42 -28
t28.5 -42t10.5 -51v-269q0 -27 -10.5 -51.5t-29 -42.5t-42.5 -28.5t-51 -10.5q-28 0 -52 10.5t-42 28.5t-28.5 42.5t-10.5 51.5v269z" />
    <glyph glyph-name="numbersign" unicode="#" horiz-adv-x="1281" 
d="M188 293h-23q-57 0 -90.5 34.5t-33.5 91.5q0 28 8.5 54t24.5 45.5t38.5 31t51.5 11.5h86l44 191h-24q-55 0 -87.5 36.5t-32.5 96.5q0 27 8.5 51.5t24 43t38 29.5t49.5 11h86l43 182q5 21 18.5 39.5t33 32t43.5 21t48 7.5q30 0 54.5 -11t41.5 -30t26 -44.5t9 -54.5
q0 -11 -1 -22.5t-4 -23.5l-23 -96h177l40 171q5 23 18.5 43t32 35t42 23.5t48.5 8.5q30 0 55 -11t42.5 -29.5t27.5 -44.5t10 -56q0 -11 -1 -22t-4 -22l-23 -96h18q57 0 90 -36.5t33 -98.5q0 -26 -9 -50t-25.5 -42.5t-38.5 -29.5t-49 -11h-83l-46 -191h36q57 0 90.5 -36
t33.5 -93q0 -30 -8.5 -55t-25 -44t-39.5 -29.5t-51 -10.5h-100l-46 -193q-11 -45 -47.5 -71t-83.5 -26q-32 0 -58 10.5t-44.5 28t-29 40.5t-10.5 48q0 14 5 34l30 129h-181l-46 -193q-11 -45 -47.5 -70t-85.5 -25q-65 0 -102.5 34.5t-37.5 84.5q0 17 4 32zM535 561h179
l45 191h-178z" />
    <glyph glyph-name="dollar" unicode="$" horiz-adv-x="1056" 
d="M422 1378q0 23 9 43.5t24.5 36t36.5 24.5t45 9q23 0 43 -9t35 -24.5t23.5 -36t8.5 -43.5v-133h-225v133zM422 72h225v-154q0 -24 -8.5 -44.5t-23.5 -35.5t-35 -24t-43 -9q-24 0 -45 9t-36.5 24t-24.5 35.5t-9 44.5v154zM71 244q-18 37 -18 70q0 28 12 51.5t30.5 41t42 27
t46.5 9.5q32 0 61.5 -19.5t60.5 -58.5q43 -55 99 -83.5t135 -28.5q37 0 73 9t64.5 25.5t45.5 41t17 54.5q0 39 -17.5 61.5t-44.5 35.5t-60.5 19t-65.5 11q-110 18 -197 50.5t-148 82.5t-93.5 117t-32.5 154q0 88 36 162.5t98 128.5t144.5 84.5t174.5 30.5q62 0 122 -12.5
t113.5 -36.5t97 -60.5t72.5 -84.5q8 -12 11 -25t3 -26q0 -25 -9.5 -47t-26.5 -38.5t-40 -26t-50 -9.5q-20 0 -39.5 5.5t-38.5 18.5l-48 32t-43.5 24t-50.5 15t-69 5q-45 0 -80 -10.5t-59.5 -29t-37.5 -44t-13 -54.5q0 -38 19 -60.5t55.5 -38t90.5 -26.5t123 -26t135.5 -41
t118 -69.5t83.5 -106.5t32 -150q0 -85 -35.5 -159.5t-99 -130.5t-150.5 -88.5t-190 -32.5q-80 0 -152 20.5t-132 55.5t-105 81.5t-70 99.5z" />
    <glyph glyph-name="percent" unicode="%" horiz-adv-x="1748" 
d="M283 962q0 -23 8.5 -43.5t23.5 -36t35.5 -24.5t44.5 -9q23 0 43.5 9t36 24.5t24.5 36t9 43.5q0 24 -9 44.5t-24.5 35.5t-36 23.5t-43.5 8.5q-24 0 -44.5 -8.5t-35.5 -23.5t-23.5 -35.5t-8.5 -44.5zM395 605q-74 0 -139 28t-113.5 76.5t-77 113.5t-28.5 139
q0 73 28.5 138.5t77 114t113.5 77t139 28.5t139 -28.5t113.5 -77t76.5 -114t28 -138.5q0 -74 -28 -139t-76.5 -113.5t-113.5 -76.5t-139 -28zM1233 344q0 -23 9 -43.5t24.5 -36t36 -24.5t43.5 -9q24 0 44.5 9t35.5 24.5t23.5 36t8.5 43.5q0 24 -8.5 44.5t-23.5 36t-35.5 24
t-44.5 8.5q-23 0 -43.5 -8.5t-36 -24t-24.5 -36t-9 -44.5zM1346 -12q-74 0 -139 28t-113.5 76t-76.5 113t-28 139t28 139t76.5 114t113.5 77t139 28q73 0 138.5 -28t114 -77t77 -114t28.5 -139t-28.5 -139t-77 -113t-114 -76t-138.5 -28zM999 1242q17 32 46 49.5t63 17.5
q28 0 49.5 -10t36.5 -27.5t22.5 -40.5t7.5 -48q0 -15 -2.5 -29t-8.5 -27l-500 -1065q-16 -33 -45.5 -51t-62.5 -18q-26 0 -48 10.5t-37.5 27t-24.5 38t-9 44.5q0 26 12 50z" />
    <glyph glyph-name="ampersand" unicode="&#x26;" horiz-adv-x="1199" 
d="M44 386q0 50 11.5 93t31.5 79.5t46.5 67t56.5 55.5l-21 18q-22 18 -41.5 44.5t-34.5 59t-24 70t-9 78.5q0 76 29 143t79.5 117t117.5 79t143 29t143 -29t117 -79t79 -117t29 -143q0 -99 -46 -175t-131 -133l130 -114l120 136q20 23 48.5 36t57.5 13q27 0 50.5 -11.5
t40.5 -30t27 -42t10 -48.5q2 -47 -33 -86l-125 -140l148 -129q32 -28 46 -56t14 -54q0 -28 -13 -50.5t-32.5 -38t-41.5 -24t-39 -8.5q-42 0 -81 33l-166 143l-59 -66q-12 -13 -25 -22q-54 -45 -118.5 -70t-139.5 -25q-81 0 -153 31.5t-126 85.5t-85 126.5t-31 153.5z
M429 248q29 0 59 12t53 31l43 50l-216 187q-38 -24 -58.5 -57.5t-20.5 -71.5q0 -29 11 -56t30 -48t44.5 -34t54.5 -13zM434 805q21 10 42.5 26t38.5 35t28 39.5t11 39.5q0 23 -9 44t-24.5 37.5t-37 26t-46.5 9.5q-22 0 -41.5 -9t-34.5 -24t-23.5 -35.5t-8.5 -42.5
q0 -29 16 -54.5t32 -41.5l12 -10z" />
    <glyph glyph-name="quotesingle" unicode="'" horiz-adv-x="444" 
d="M89 1182q0 27 10.5 51t28.5 42t42 28t52 10t52 -10t42 -28t28.5 -42t10.5 -51v-269q0 -27 -10.5 -51.5t-29 -42.5t-42.5 -28.5t-51 -10.5q-28 0 -52 10.5t-42 28.5t-28.5 42.5t-10.5 51.5v269z" />
    <glyph glyph-name="parenleft" unicode="(" horiz-adv-x="822" 
d="M133 846q3 103 38.5 188.5t103 146.5t166.5 95t229 34q28 0 52 -10t41.5 -28t27.5 -42.5t10 -52.5q0 -27 -10 -51t-27.5 -41.5t-41.5 -28t-52 -10.5h-82q-39 0 -73 -17.5t-59.5 -46.5t-40.5 -66t-16 -76v-696q1 -39 16 -75.5t40.5 -65.5t59.5 -46.5t73 -17.5h82
q28 0 52 -10.5t41.5 -28.5t27.5 -42.5t10 -52.5t-10 -52t-27.5 -41.5t-41.5 -27.5t-52 -10q-135 0 -236 34.5t-167.5 97.5t-100 151t-33.5 195v694z" />
    <glyph glyph-name="parenright" unicode=")" horiz-adv-x="823" 
d="M-22 -195q0 28 10 52.5t27.5 42.5t41.5 28.5t53 10.5h81q39 0 73 17.5t59.5 46.5t40.5 65.5t16 75.5v696q-1 39 -16 76t-40.5 66t-59.5 46.5t-73 17.5h-81q-29 0 -53 10.5t-41.5 28t-27.5 41.5t-10 51q0 28 10 52.5t27.5 42.5t41.5 28t53 10h7q127 -1 226 -36.5
t166 -98.5t102 -149.5t35 -190.5v-693q-1 -104 -35 -190t-100 -147.5t-165 -95.5t-229 -35h-7q-29 0 -53 10t-41.5 27.5t-27.5 41.5t-10 52z" />
    <glyph glyph-name="asterisk" unicode="*" horiz-adv-x="756" 
d="M121 1057l-2 2q-29 17 -44 45.5t-15 60.5q0 28 11 53t30 43.5t43.5 29t50.5 10.5q29 0 56 -12q8 51 45.5 83.5t90.5 32.5q51 0 86 -32t43 -81q21 10 49 10q27 0 52 -10.5t44 -28.5t30.5 -43t11.5 -55q0 -32 -14.5 -60.5t-43.5 -45.5l-3 -2l5 -2q28 -20 42 -49t14 -61
q0 -28 -11 -52.5t-29 -42.5t-42 -28.5t-50 -10.5q-29 0 -54 12q-7 -51 -44 -83.5t-88 -32.5q-26 0 -49 9t-41 24.5t-29.5 37t-14.5 47.5q-30 -14 -58 -14q-26 0 -50 10.5t-42.5 28.5t-29.5 42.5t-11 52.5q0 32 14.5 61t42.5 49z" />
    <glyph glyph-name="plus" unicode="+" horiz-adv-x="860" 
d="M296 489h-141q-28 0 -52 10.5t-42 28.5t-28.5 42.5t-10.5 52.5q0 27 10.5 51.5t28.5 43t42 29.5t52 11h141v141q0 28 10.5 52t29 42t43 28.5t52.5 10.5t52 -10.5t42 -28.5t28.5 -42t10.5 -52v-141h142q27 0 51.5 -11t42.5 -29.5t28.5 -43.5t10.5 -53t-10.5 -52t-28.5 -42
t-42.5 -28t-51.5 -10h-142v-141q0 -28 -10.5 -52t-28.5 -42t-42 -28.5t-52 -10.5q-29 0 -53.5 10.5t-42.5 28.5t-28.5 42t-10.5 52v141z" />
    <glyph glyph-name="comma" unicode="," horiz-adv-x="488" 
d="M89 137q0 29 10.5 54.5t28.5 44t42.5 29.5t53.5 11t53 -11t41.5 -29.5t27 -44t9.5 -54.5v-250q0 -29 -9.5 -54.5t-27 -44t-41.5 -29.5t-53 -11t-53.5 11t-42.5 29.5t-28.5 44t-10.5 54.5v250z" />
    <glyph glyph-name="hyphen" unicode="-" horiz-adv-x="932" 
d="M731 754q28 0 53 -11t43 -29.5t28.5 -43t10.5 -52.5q0 -27 -10.5 -51.5t-28.5 -42.5t-43 -28.5t-53 -10.5h-528q-29 0 -53.5 10.5t-42.5 28.5t-28.5 42.5t-10.5 51.5q0 28 10.5 53t28.5 43.5t42.5 29t53.5 10.5h528z" />
    <glyph glyph-name="period" unicode="." horiz-adv-x="529" 
d="M89 142q0 31 12 59t33 49t49 33.5t60 12.5q31 0 59 -12.5t49 -33.5t33 -49t12 -59q0 -32 -12 -60t-33 -49t-49 -33t-59 -12q-32 0 -60 12t-49 33t-33 49t-12 60z" />
    <glyph glyph-name="slash" unicode="/" horiz-adv-x="645" 
d="M360 1214q14 43 50 68t79 25q30 0 54.5 -12t42.5 -32.5t27.5 -47t9.5 -55.5q0 -11 -2 -22t-5 -22l-331 -1022q-14 -43 -50 -68.5t-79 -25.5q-29 0 -53.5 11.5t-42.5 30.5t-28 43t-10 50q0 21 7 41z" />
    <glyph glyph-name="zero" unicode="0" horiz-adv-x="2531" 
d="M1929 721q4 -4 8.5 -9t6.5 -10q0 -6 1 -11t1 -11q0 -12 -2 -23q-2 -6 -6.5 -10t-8.5 -6q-4 -4 -8 -7t-8 -7q-12 -4 -23 -4q-6 0 -12 1t-10 3l-10.5 7t-8.5 7q-4 2 -7 6t-3 10q-4 7 -5 12t-1 11q0 10 6 22q0 5 3 10t7 9t8.5 7t10.5 5q8 4 22 4q6 0 10.5 -1t12.5 -3
q4 -2 8 -5t8 -7zM518 702q0 -2 -4 -8q-2 0 -3 -2t-5 -2q-2 -2 -8 -2h-33v47h33q4 0 8 -2q4 0 5 -1l3 -3l4 -8q2 -2 2 -10q0 -6 -2 -9zM801 721q4 -4 8 -9t6 -10q2 -6 3 -11t1 -11t-1 -11t-3 -12q-2 -6 -6 -10t-8 -6q-2 -4 -6 -7t-11 -7q-4 -2 -10 -3t-12 -1q-12 0 -23 4
q-4 4 -9 7t-9 7l-6 6t-6 10q-2 7 -4.5 12t-2.5 11q0 10 7 22q2 5 6 10t6 9q4 4 9 7t9 5q6 2 12.5 3t10.5 1q12 0 22 -4q7 -2 11 -5t6 -7zM1090 733q0 -4 1 -6t1 -4l28 -64h-59l29 64v4v6zM270 729q2 -2 3 -5t3 -5q3 -4 3 -10v-5.5t-3 -5.5q-2 -2 -3 -5t-3 -3l-8 -8h-10h-37
v53h37q6 0 10 -2q2 0 5 -2zM2478 1092v-586h-2404v586h911q0 30 5 58t18 54q12 27 27.5 51.5t37.5 42.5q37 39 90 62q29 12 56.5 17t56.5 5q33 0 61.5 -6t53.5 -18q28 -12 51.5 -28.5t42.5 -35.5q37 -37 61 -94q21 -53 21 -108h911zM1030 1192q-22 -47 -22 -100
q0 -58 22 -105q10 -22 24.5 -44.5t30.5 -41.5q19 -18 40.5 -32.5t45.5 -24.5q48 -23 105 -23q29 0 54.5 4t49.5 15q25 12 45.5 25.5t38.5 33.5q19 19 33 40.5t27 43.5q22 51 22 109q0 22 -4 45.5t-14 44.5q-12 41 -41 75q-14 17 -30.5 31.5t-33.5 24.5q-18 10 -37.5 19
t-39.5 18q-15 4 -32.5 6t-37.5 2q-29 0 -55.5 -5t-51.5 -18q-49 -18 -86 -57q-16 -18 -29.5 -41t-23.5 -45zM295 690q6 10 6 19q0 4 -1 9t-5 11q0 2 -4 6l-6 6q-2 4 -5.5 7.5t-9.5 3.5q-4 2 -9 4t-9 2h-53v-154h16v58h37q4 0 9 1t9 3q11 4 15 8q2 4 6 8t4 8zM410 758h-95
v-154h95v19h-72v47h59v20h-59v45h72v23zM559 604l-47 66q2 2 5 2t5 4q8 4 10 10q3 2 5 5t4 7v13v10t-2 8q-4 8 -11 14q-4 9 -14 9q-2 2 -7 4t-9 2h-56v-154h23v64h22l41 -56q2 -4 7 -6q2 -2 4 -2h6h14zM664 631q0 4 1 8t1 8q0 12 -4.5 20.5t-12.5 14.5q-2 0 -3 2t-5 4h-1
t-5 2h-2t-2 4q-6 0 -8 2q-7 0 -9 1l-6 3q-8 2 -8 5q-6 4 -6 6v8v8q2 0 4 2t2 4l3 1t5 1q4 2 6 2h4l2.5 -1t4.5 -1q8 0 8 -4q2 -2 4 -2h4q8 0 14 4l4 2q0 2 -2 4l-4 4q-4 2 -6 4.5t-6 4.5q-2 0 -4 1t-6 5q-6 0 -7 1t-6 1q-4 0 -9 -1t-9 -1q-4 -4 -7 -6t-7 -2q-2 -5 -5 -8
t-6 -7q-2 -4 -3 -7t-1 -9v-9t4 -8q3 -4 6 -7t3 -5q4 -2 8 -5t8 -3q4 -2 7 -4t7 -4q2 -2 5.5 -2h5.5q6 -2 7 -2t3 -2q4 -2 4 -3t2 -6q2 -2 2 -5v-7v-3t-2 -5q-2 -4 -2 -5t-4 -3q-2 -4 -5 -5t-5 -3h-5.5h-5.5h-7h-5q-2 2 -5 3t-3 5l-2 2q-6 4 -12 4h-4.5t-4.5 -2l-6 -2
q0 -4 2 -4q0 -4 4 -6q0 -2 2 -5l2 -2h3q8 -8 17 -10t19 -2h9.5t9.5 2t9 4t7 6q6 2 9.5 5.5t5.5 9.5zM838 659q2 7 2 11v10q0 12 -2 20q0 7 -3.5 11t-5.5 10q-4 6 -12 14q-4 4 -8 6t-10 9q-2 0 -6.5 2t-10.5 6q-6 0 -10 1t-10 1q-4 0 -10.5 -1t-10.5 -1q-6 -4 -10 -6t-8 -2
q-4 -7 -8 -9t-8 -6q-5 -4 -8 -7t-5 -7q-4 -6 -5 -10t-3 -11q-2 -8 -2 -20q0 -8 2 -15.5t4 -15.5q2 -6 6 -12t11 -14q6 -5 12 -9t14 -4q12 -6 29 -6h10h10q11 4 17 8q14 6 18 11q6 8 12 18q2 4 5.5 9t3.5 9zM997 758h-20v-119q0 2 -1 5l-1 3l-74 105q-4 0 -8 6h-4h-4h-15
v-154h21v129v-4l2 -2v0v-4l88 -119h16v154zM1169 604l-67 154h-23l-65 -154h12q6 0 8 2l3 3t5 3l9 27h79l11 -27q2 -4 6 -6q0 -2 8 -2h14zM1270 623h-66v135h-22v-154h88v19zM1479 758h-21v-92v-11t-2 -8q-2 -8 -10 -12q-2 -2 -5 -4t-5 -6q-6 -2 -9.5 -2h-7.5q-10 0 -14 2
q-6 4 -10 6t-4 4q-2 2 -4.5 5t-6.5 7q0 4 -1 8t-1 11v92h-20v-92v-12t2 -7q0 -8 4 -14q4 -10 12 -15q2 -2 5 -4t8 -4q2 -2 6 -3t6 -3q6 0 9 -2t9 -2q4 0 7.5 2t9.5 2q4 2 7 3t7 3l12 8q4 5 5 8t3 7q3 2 6 6t3 8v19v92zM1597 631q7 8 7 16q0 12 -4.5 20.5t-12.5 14.5
q-6 4 -6 6h-5t-5 2h-3t-5 4h-2t-5 2q-2 0 -4 1l-6 3q-8 2 -8 5q-4 2 -5 4t-3 2q0 2 -1 3t-1 5t4 8l6 6q2 0 3 1t5 1q0 2 10 2l2.5 -1t4.5 -1q2 -2 8 -4q8 -2 10 -2q6 0 8 4l6 2l-4 4l-4 4q0 2 -3 4.5t-5 4.5q-4 0 -6 1t-6 5q-4 0 -7.5 1l-3.5 1q-6 0 -10 -1t-8 -1
q-4 -4 -8 -6t-6 -2q-4 -5 -6 -8t-7 -7q0 -4 -2 -7t-2 -9t2 -9t2 -8q5 -8 11 -12q4 -2 7 -5t5 -3q6 -2 9 -4t7 -4t6.5 -2h4.5q2 -2 5 -2t5 -2t5 -3t3 -6q2 -2 2 -5v-7v-3t-2 -5q-2 -6 -8 -8q-4 -4 -6 -5t-4 -3h-6h-5h-7h-5q-4 2 -10 8v2q-6 4 -12 4h-3.5t-5.5 -2l-6 -2
q2 -2 2 -3t2 -1q0 -2 1 -3t1 -3l1 -1t1 -4q4 -2 7 -2q6 -8 15 -10t19 -2h10.5t10.5 2l8 4t8 6q2 2 5 5.5t5 9.5zM1722 758h-94v-154h94v19h-73v47h61v20h-61v45h73v23zM1966 659v11v10v11v9q-4 11 -10 21q-4 6 -12 14q-2 4 -6.5 6t-8.5 9q-4 0 -9 2t-9 6q-6 0 -10.5 1
t-10.5 1t-11 -1t-9 -1q-12 -6 -21 -8q-4 -7 -7 -9t-7 -6l-7 -7l-7 -7q-2 -6 -4 -10t-2 -11q-5 -8 -5 -20q0 -8 2.5 -15.5t4.5 -15.5q6 -14 18 -26q4 -5 10 -9t15 -4q12 -6 30 -6h10.5h10.5q4 2 9 4t9 4q4 4 8.5 6.5t6.5 4.5q8 8 12 18q6 8 10 18zM2126 758h-23v-119
q0 2 -1 5t-3 3l-74 105l-1 1t-3 5h-5h-5h-16v-154h24v129v-4v-2v-2l2 -2l86 -119h19v154zM2251 623h-66v135h-22v-154h88v19zM2374 758h-19q-4 0 -8 -4q-8 -4 -8 -9l-35 -47l-2 -2h-2v-2v2l-2 2l-37 47q-2 5 -6 9t-10 4h-17l56 -76l2 -2q0 -2 2 -2v-2v-2q0 -2 2 -2v-2v-66
h22v66v2v4q2 0 2 4v2h2zM1188 864q-19 8 -38.5 19.5t-33.5 25.5h322q-17 -14 -35.5 -25.5t-38.5 -19.5q-21 -6 -43.5 -12t-44.5 -6q-25 0 -46.5 6t-41.5 12zM1141 936l315 317q29 -39 45.5 -79.5t16.5 -81.5q0 -23 -3.5 -44.5t-11.5 -41.5q-8 -19 -18 -36.5t-23 -33.5h-321z
M1094 928q-27 35 -45 73q-7 21 -11 43.5t-4 47.5q0 20 4 40.5t11 41.5q6 18 16 35.5t25 33.5h319zM1364 1315q20 -8 38.5 -20.5t33.5 -22.5h-324q37 28 76 43q39 18 88 18t88 -18zM78 350q-4 4 -5 8t-3 9q-2 6 -3 10t-1 10t4 16q2 5 3 10t5 7l3 9t7 7q0 2 5 5t7 5q6 5 9.5 6
t9.5 3q2 0 8 1t10 1q8 0 14.5 -1t14.5 -5q8 -2 13 -6.5t9 -8.5q-2 -2 -4 -2v-4h-2h-2h-4h-6q-4 2 -8 5t-8 3h-7.5h-9.5h-10h-8q-8 -4 -12.5 -7t-8.5 -5q-4 -6 -7 -10t-5 -8q-4 -7 -4 -13v-8q0 -8 2 -14t3 -9.5t1 -7.5q2 -2 5 -4t5 -6q4 -2 6 -5t7 -3q2 -2 6 -4t8 -2
q2 -2 6 -2h6h10.5t8.5 2q4 0 9 2t9 4v29h-12h-2l-2 2l-3 3l-3 3l-1 1t-1 3v1v3v0h38v-53l-5 -5t-5 -6q-6 -2 -12 -2q-6 -2 -14 -2h-15h-10h-8q-6 2 -9.5 4.5t-9.5 6.5q-2 0 -7 3t-5 7q-6 2 -7 6t-3 8zM240 438v-45h55v-14h-55v-47h67v-17h-84v140h84v-17h-67zM369 315v123
h-45v17h106v-17h-47v-123h-14zM532 438v-49h60v-12h-60v-62h-16v140h84v-17h-68zM641 455v-86q0 -4 2 -7.5t4 -5.5q2 -6 5 -9t5 -7q0 -2 3.5 -4t5.5 -4q6 -2 10 -2h8h7t5 2q6 2 9.5 4t7.5 4q0 4 3 7t5 9q4 4 4 13v86h14v-86q0 -7 -1 -11t-3 -10t-5 -10t-7 -8t-8 -7.5
t-8 -5.5q-13 -2 -23 -2q-12 0 -25 2q-2 2 -7 5.5t-9 7.5q-6 6 -10 18q-2 6 -4 10t-2 11v86h14zM784 455v-123h62v-17h-78v140h16zM877 455v-123h65v-17h-80v140h15zM1069 315l-61 140h8q4 0 8 -2q2 -2 3 -2t3 -5l43 -104v-4q2 -2 2 -6v6l1 2l1 2q6 14 12.5 26.5t12.5 24.5
q4 17 10 29l12 24q0 5 2 5t2 2q2 2 3.5 2h5.5h8q-8 -17 -15.5 -34.5t-17.5 -33.5q-6 -20 -13 -36.5t-16 -35.5h-14zM1171 438v-45h58v-14h-58v-47h68v-17h-84v140h84v-17h-68zM1341 381q-2 -2 -10 -4l47 -62h-10q-2 0 -5 1l-3 1q-2 2 -4 3.5t-4 5.5l-39 51h-25v-62h-14v140
h51h5t7 -2q9 -2 15 -9q2 -4 4 -7t4 -7q2 -2 2 -7v-5v-9t-2 -6q0 -4 -2 -8t-4 -6l-4 -4t-9 -4zM1325 389q4 0 6 4q2 0 4 1t4 1l3 6t4 5q0 2 1 4t1 8l-1 2t-1 6q-3 2 -4 3t-3 5q-2 0 -4 1t-4 3h-6h-37v-49h37zM1452 336q2 2 4 8q2 2 3 6t1 6q0 6 -2 11q-2 0 -3 3t-3 5t-8 4
q-4 0 -6 1l-6 3q-5 0 -9 2t-4 4q-10 0 -14 6q-4 0 -5 4t-3 7v14v9t2 7q0 6 8 10q4 5 6 6t8 3q4 0 6.5 1t8.5 1q2 0 5 -1t5 -1t4 -1l6 -3q2 0 4 -2.5t2 -4.5q4 -2 5 -4t3 -2l-4 -2q-2 -2 -8 -2h-6q-4 2 -4 4h-2h-2h-2h-3h-1h-2h-9q-8 0 -8 -2q-6 -6 -6 -8q-4 0 -4 -8
q0 -6 4 -6q0 -4 2 -6t5 -3.5l3 -1.5q4 -4 6.5 -4t8.5 -4h3t3 -2h4t4 -4h2h1h1q2 0 4 -1l2 -1q4 -4 6 -7t7 -5q2 -10 2 -19v-10t-7 -8q0 -6 -8 -12q-2 -2 -6 -4.5t-8 -4.5t-8 -2h-10q-11 0 -18 2t-13 9q-2 0 -4 2l-4 4q0 2 -1 4l-1 2l2 2l1 1t5 1h2q2 0 4 -1t4 -3q4 -2 6 -4
t6 -2q0 -2 4 -2h7q8 0 10 2q8 0 12 4zM1524 455v-140h-17v140h17zM1579 336q-12 8 -18 20q-5 15 -5 31v7v9q7 11 9 17q6 8 14 16q6 6 12 10q4 5 9.5 6t9.5 3q4 0 8 1t10 1q4 0 9 -1t12 -1q4 -2 8 -3t8 -6l5 -5t7 -5q4 -4 6.5 -7t6.5 -9q2 -6 6 -17q2 -4 3 -9t1 -7
q0 -8 -2 -15t-6 -16q-2 -6 -5.5 -11t-9.5 -9q-6 -6 -11 -9t-11 -8q-10 -4 -27 -4q-8 0 -15 1t-11 3q-17 5 -23 17zM1579 408q-4 -7 -6 -13t-2 -8q0 -4 1 -8t1 -6q2 -8 8 -17q0 -2 2 -4t4 -6l5 -5t10 -3q2 -2 5 -4t5 -2q4 -2 8 -2h8h7t7 2q3 0 7 2l8 4q2 0 5 3l5 5q2 4 4 6
l4 4q2 4 3 7.5t3 9.5q0 2 1 6t1 8q0 2 -1 8t-5 13q0 4 -4 8t-6 10q-4 2 -8 5t-10 7h-9.5h-11.5h-12h-10q-4 -4 -9.5 -7t-9.5 -5q-2 -6 -5 -10t-3 -8zM1741 315h-17v140h13h5t5 -4l72 -103q2 0 2 -4l2 -2v-2v115h16v-140h-14l-82 115v4h-2v4v-123zM1956 438v-49h57v-12h-57
v-62h-14v140h83v-17h-69zM2114 381q-9 -2 -13 -4l45 -62h-12q-4 0 -8 2q0 2 -1 3.5t-3 5.5l-39 51h-25v-62h-16v140h51h6t8 -2t7.5 -4.5t5.5 -4.5q2 -4 4 -7t6 -7q0 -2 1 -7l1 -5q0 -6 -1 -9t-1 -6l-4 -8t-2 -6zM2101 393q2 0 3 1t3 1q7 8 7 11q2 4 2 12q0 2 -2 8q0 2 -7 8
q-2 0 -3 1l-3 3h-8h-35v-49h35q4 0 8 4zM2281 336q-4 -6 -10 -9t-12 -8q-6 -2 -12 -3t-15 -1q-8 0 -15 1t-13 3q-13 5 -23 17q-4 4 -8 9t-6 11q-2 9 -5 16t-3 15q0 2 1 7t3 9q2 5 3 10t3 7q4 6 7 9t5 7q4 2 8 5t9 5q4 5 8 6t8 3q6 0 9 1t9 1q4 0 9.5 -1t9.5 -1l9 -3t7 -6
q4 -2 8 -5t6 -5q3 -4 6 -7t5 -9q6 -6 8 -17q2 -4 3 -9t1 -7q0 -8 -1 -15t-5 -16q-2 -6 -6 -11t-11 -9zM2232 330h7.5t9.5 2q2 0 5 2t5 4q2 0 6 3t8 5l3 6t3 4q2 4 3.5 7.5t1.5 9.5q2 2 2 6v8q0 2 -1 8t-1 13l-6 8t-5 10q-6 2 -11 5t-9 7h-10.5h-10.5h-11h-11q-6 -4 -9 -7
t-8 -5q-6 -6 -8 -10l-4 -8q-2 -7 -2 -13v-8v-14q0 -6 1 -9.5t5 -7.5q0 -2 3 -4t5 -6q2 -2 5.5 -5t5.5 -3q2 -2 5 -4t9 -2q2 -2 6 -2h8zM2460 453q2 2 3 2h3h12v-140h-14v115l-2 -2v0v-2q-4 -8 -6 -17.5t-7 -15.5q-4 -6 -7 -12l-7 -14q-2 -9 -4 -15l-4 -12q-4 -6 -7 -11
t-5 -14h-15q-10 13 -15 27t-11 27q-4 14 -11.5 28.5t-11.5 28.5v2l-4 2v-115h-16v140h14q6 0 8 -2l2 -2v-5l49 -108q0 -2 2 -2v-4q0 2 1 4t1 4q0 4 5 8l43 98q0 5 1 5t3 2zM74 262h157v-20v-4v-5q0 -4 -2 -6l-4 -4l-106 -145h2v2h4h2h104v-37h-165v12q0 11 2 13q0 2 4 8
q2 2 2 4t2 4t3 4l3 6l94 129h-102v39zM260 262h139v-39h-100v-49h80v-41h-80v-53h100v-37h-139v219zM571 223h-59v-180h-43v180h-63v39h165v-39zM672 262l94 -219h-25q-8 0 -16 4q-4 2 -5 6t-5 8l-13 29h-100l-10 -29q-2 -4 -3 -5t-3 -1q0 -4 -1 -5t-5 -3q-2 0 -4.5 -1
t-4.5 -1q0 -2 -2 -2h-4h-24l94 219h37zM684 129l-27 68q0 2 -1 3t-1 3q0 4 -2 6v-6q0 -2 -2 -3t-2 -3l-26 -68h61zM774 262h139v-39h-100v-55h82v-39h-82v-86h-39v219zM1133 207q4 -6 6 -12.5t6 -12.5q2 -8 2 -15v-13v-17t-2 -14q-4 -6 -6 -13.5t-6 -13.5q-5 -4 -9 -10
l-8 -12q-8 -4 -12 -9.5t-10 -7.5q-7 -6 -14 -8t-13 -4q-8 -2 -15.5 -3t-15.5 -1q-10 0 -21 3t-22 5q-12 6 -19 12.5t-18 12.5q-14 16 -20 35q-6 12 -8 22t-2 23q0 6 1 13t3 15q4 17 12 25q4 8 7 13t7 11q9 5 14 9t11 8t12 6t15 6q6 0 13 1t15 1t15.5 -1t15.5 -1q6 -4 13 -6
t14 -6q6 -4 10 -8t12 -9q4 -6 8 -11t9 -13zM1104 127q2 6 3 12t1 15q0 12 -4 24q-4 10 -8 15.5t-11 9.5q-4 4 -9 8t-11 6q-12 6 -29 6q-16 0 -28 -6q-4 -2 -9.5 -6t-11.5 -8t-9 -9.5t-7 -15.5q-4 -4 -4 -11v-13v-15t4 -12q4 -8 7 -14.5t9 -10.5t11.5 -8t9.5 -8q8 -2 14 -4
t14 -2t14.5 2t14.5 4q6 4 11 8t9 8q7 4 11 10.5t8 14.5zM1329 262h39v-219h-37l-102 147q-2 0 -2 1.5t-2 3.5q-2 4 -2 6q-4 0 -4 4l-1 1t-4 3v-166h-38v219h34q4 0 8.5 -1t4.5 -3l6 -3t4 -3q10 -16 21.5 -31.5t21.5 -34.5q12 -14 23.5 -29.5t25.5 -29.5q0 -4 1 -6t1 -6
q0 -2 1 -4t1 -5v156zM1389 262h165v-39h-65v-180h-39v180h-61v39zM1690 150q2 -5 5 -9t5 -8q0 -4 2 -9t2 -13q0 -13 -6 -27l-8 -12t-9 -11q-8 -4 -12 -8t-12 -6t-15.5 -4t-13.5 -2q-8 0 -15 2t-18 4q-6 2 -11 6t-13 13q-4 2 -6 5t-4 7q-5 2 -5 12l1.5 1t3.5 3q2 0 2 1t2 1
t4 1l2 1h10h3t3 -2q6 0 10 -2q5 -4 9 -6t6 -4q2 0 6 -2t10 -2q2 0 5 1t7 3q7 2 13 6l8 8q2 4 4 6t2 7q0 8 -6 12q-4 6 -8 6q-4 4 -7.5 5t-5.5 1q-6 2 -16 8q-4 0 -9 1t-9 6q-9 2 -13 5t-8 7q-6 4 -9 8t-5 8q-6 12 -6 25q0 18 6 26q2 7 6 11t10 8q4 4 9.5 6t13.5 6q4 0 10 1
t14 1q4 0 8.5 -1t10.5 -1q4 -2 7 -4t9 -4q2 -2 6 -5t8 -7q3 -2 6 -5.5t5 -7.5l-8 -4l-6 -4t-3 -4h-8h-4h-4h-2q-6 0 -6 2l-8 4q-3 0 -4 1l-1 1h-6h-12q-4 0 -5 -1t-5 -3q-2 -2 -4 -8q-2 -2 -2 -8t2 -6q2 -2 3 -4.5t1 -6.5q4 0 7 -1t5 -1q6 -2 11 -4t7 -4l11 -2q4 -4 9 -5
t11 -7q10 -2 17 -12zM1755 80q6 0 6 -6q2 0 2 -3v-5q0 -7 -2 -11q0 -4 -6 -8q-4 0 -6 -4q-2 0 -4 -1t-6 -1q-2 0 -4 1t-4 1q-2 2 -4.5 3t-4.5 1q-2 2 -3 4t-3 4q-2 4 -2 11v5t2 3q2 4 3 5t3 1q7 6 9 6q2 2 4 3t4 1q4 0 6 -1t4 -3q2 0 6 -6zM1839 203q-8 -8 -16 -25
q-2 -4 -4 -11t-2 -13q0 -9 2 -15l4 -12q4 -8 7 -14.5t9 -10.5q4 -4 9 -8t14 -8q8 -2 14 -4t14 -2q6 0 10.5 2t10.5 2q4 2 9 5t9 7q4 0 8 2h7h6t6 -2q6 -2 10 -6l6 -10q-6 -8 -16 -14q-6 -5 -10 -8t-11 -5q-6 -4 -11 -5t-11 -3t-11.5 -3t-11.5 -1q-14 0 -24.5 3t-20.5 5
q-20 10 -35 25q-16 16 -24 35q-2 12 -5 22t-3 23q0 6 1 13t3 15q2 6 4 12.5t6 12.5q6 8 9 13t9 11q7 5 12 9t13 8q4 4 10 6t17 6q4 0 12 1t16 1h11.5t11.5 -2t11 -4t11 -4q7 -2 11 -5t10 -7q10 -9 16 -17l-6 -8l-5 -5t-5 -3h-7h-5h-8t-7 2q-4 4 -9 7t-9 5q-6 2 -10.5 2
h-10.5q-16 0 -28 -6q-9 -2 -14 -6t-9 -8zM2195 207q3 -6 6 -12.5t5 -12.5q2 -8 2 -15v-13v-17t-2 -14t-5 -13.5t-6 -13.5q-8 -10 -16 -22q-8 -4 -14 -9.5t-11 -7.5q-6 -6 -13 -8t-15 -4q-6 -2 -13.5 -3t-15.5 -1q-20 0 -43 8q-8 6 -17 12.5t-16 12.5q-8 8 -14 16t-10 19
q-4 12 -6 22t-2 23q0 6 1 13t1 15q2 6 6 12.5t6 12.5q4 8 8 13t10 11q4 5 10.5 9t12.5 8q4 4 11 6t13 6q9 0 16 1t13 1q8 0 15.5 -1t13.5 -1q8 -4 15 -6t13 -6q5 -4 11 -8t14 -9q2 -6 8 -11t8 -13zM2165 127q4 10 4 27q0 6 -1 13t-3 11q-4 10 -7.5 15.5t-7.5 9.5
q-10 10 -24 14q-6 4 -13.5 5t-15.5 1q-14 0 -26 -6q-7 -2 -12 -6t-11 -8q-4 -4 -8 -9.5t-8 -15.5q-2 -4 -3 -11t-1 -13q0 -9 1 -15t3 -12q8 -16 16 -25q6 -4 11 -8t12 -8q6 -2 14 -4t12 -2q8 0 15.5 2t13.5 4q6 4 13 8t11 8q9 9 15 25zM2433 260l1 1t5 1h39v-219h-39v160
q0 -2 -1 -4l-3 -6v-7t-2 -4q-6 -18 -14.5 -35.5t-14.5 -33.5q-6 -17 -13 -34.5t-13 -35.5h-39l-55 139q-3 2 -3 11q-2 4 -3 5t-1 3v-158h-41v219h39q4 0 6.5 -1l2.5 -1q4 -2 5 -2t3 -2l6 -4l4 -4t2 -4q4 -17 11 -32t14 -34q6 -16 13 -32.5t13 -32.5v-2v-5v-4q4 0 4 -4v4v4
q0 3 1 5l1 2l9 16l45 115q0 2 1 4t1 4q2 2 5 3l3 1q2 2 4 2t4 2z" />
    <glyph glyph-name="one" unicode="1" horiz-adv-x="2531" 
d="M1929 721q4 -4 8.5 -9t6.5 -10q0 -6 1 -11t1 -11q0 -12 -2 -23q-2 -6 -6.5 -10t-8.5 -6q-4 -4 -8 -7t-8 -7q-12 -4 -23 -4q-6 0 -12 1t-10 3l-10.5 7t-8.5 7q-4 2 -7 6t-3 10q-4 7 -5 12t-1 11q0 10 6 22q0 5 3 10t7 9t8.5 7t10.5 5q8 4 22 4q6 0 10.5 -1t12.5 -3
q4 -2 8 -5t8 -7zM518 702q0 -2 -4 -8q-2 0 -3 -2t-5 -2q-2 -2 -8 -2h-33v47h33q4 0 8 -2q4 0 5 -1l3 -3l4 -8q2 -2 2 -10q0 -6 -2 -9zM801 721q4 -4 8 -9t6 -10q2 -6 3 -11t1 -11t-1 -11t-3 -12q-2 -6 -6 -10t-8 -6q-2 -4 -6 -7t-11 -7q-4 -2 -10 -3t-12 -1q-12 0 -23 4
q-4 4 -9 7t-9 7l-6 6t-6 10q-2 7 -4.5 12t-2.5 11q0 10 7 22q2 5 6 10t6 9q4 4 9 7t9 5q6 2 12.5 3t10.5 1q12 0 22 -4q7 -2 11 -5t6 -7zM1090 733q0 -4 1 -6t1 -4l28 -64h-59l29 64v4v6zM270 729q2 -2 3 -5t3 -5q3 -4 3 -10v-5.5t-3 -5.5q-2 -2 -3 -5t-3 -3l-8 -8h-10h-37
v53h37q6 0 10 -2q2 0 5 -2zM2478 1092v-586h-2404v586h911q0 30 5 58t18 54q12 27 27.5 51.5t37.5 42.5q37 39 90 62q29 12 56.5 17t56.5 5q33 0 61.5 -6t53.5 -18q28 -12 51.5 -28.5t42.5 -35.5q37 -37 61 -94q21 -53 21 -108h911zM1030 1192q-22 -47 -22 -100
q0 -58 22 -105q10 -22 24.5 -44.5t30.5 -41.5q19 -18 40.5 -32.5t45.5 -24.5q48 -23 105 -23q29 0 54.5 4t49.5 15q25 12 45.5 25.5t38.5 33.5q19 19 33 40.5t27 43.5q22 51 22 109q0 22 -4 45.5t-14 44.5q-12 41 -41 75q-14 17 -30.5 31.5t-33.5 24.5q-18 10 -37.5 19
t-39.5 18q-15 4 -32.5 6t-37.5 2q-29 0 -55.5 -5t-51.5 -18q-49 -18 -86 -57q-16 -18 -29.5 -41t-23.5 -45zM295 690q6 10 6 19q0 4 -1 9t-5 11q0 2 -4 6l-6 6q-2 4 -5.5 7.5t-9.5 3.5q-4 2 -9 4t-9 2h-53v-154h16v58h37q4 0 9 1t9 3q11 4 15 8q2 4 6 8t4 8zM410 758h-95
v-154h95v19h-72v47h59v20h-59v45h72v23zM559 604l-47 66q2 2 5 2t5 4q8 4 10 10q3 2 5 5t4 7v13v10t-2 8q-4 8 -11 14q-4 9 -14 9q-2 2 -7 4t-9 2h-56v-154h23v64h22l41 -56q2 -4 7 -6q2 -2 4 -2h6h14zM664 631q0 4 1 8t1 8q0 12 -4.5 20.5t-12.5 14.5q-2 0 -3 2t-5 4h-1
t-5 2h-2t-2 4q-6 0 -8 2q-7 0 -9 1l-6 3q-8 2 -8 5q-6 4 -6 6v8v8q2 0 4 2t2 4l3 1t5 1q4 2 6 2h4l2.5 -1t4.5 -1q8 0 8 -4q2 -2 4 -2h4q8 0 14 4l4 2q0 2 -2 4l-4 4q-4 2 -6 4.5t-6 4.5q-2 0 -4 1t-6 5q-6 0 -7 1t-6 1q-4 0 -9 -1t-9 -1q-4 -4 -7 -6t-7 -2q-2 -5 -5 -8
t-6 -7q-2 -4 -3 -7t-1 -9v-9t4 -8q3 -4 6 -7t3 -5q4 -2 8 -5t8 -3q4 -2 7 -4t7 -4q2 -2 5.5 -2h5.5q6 -2 7 -2t3 -2q4 -2 4 -3t2 -6q2 -2 2 -5v-7v-3t-2 -5q-2 -4 -2 -5t-4 -3q-2 -4 -5 -5t-5 -3h-5.5h-5.5h-7h-5q-2 2 -5 3t-3 5l-2 2q-6 4 -12 4h-4.5t-4.5 -2l-6 -2
q0 -4 2 -4q0 -4 4 -6q0 -2 2 -5l2 -2h3q8 -8 17 -10t19 -2h9.5t9.5 2t9 4t7 6q6 2 9.5 5.5t5.5 9.5zM838 659q2 7 2 11v10q0 12 -2 20q0 7 -3.5 11t-5.5 10q-4 6 -12 14q-4 4 -8 6t-10 9q-2 0 -6.5 2t-10.5 6q-6 0 -10 1t-10 1q-4 0 -10.5 -1t-10.5 -1q-6 -4 -10 -6t-8 -2
q-4 -7 -8 -9t-8 -6q-5 -4 -8 -7t-5 -7q-4 -6 -5 -10t-3 -11q-2 -8 -2 -20q0 -8 2 -15.5t4 -15.5q2 -6 6 -12t11 -14q6 -5 12 -9t14 -4q12 -6 29 -6h10h10q11 4 17 8q14 6 18 11q6 8 12 18q2 4 5.5 9t3.5 9zM997 758h-20v-119q0 2 -1 5l-1 3l-74 105q-4 0 -8 6h-4h-4h-15
v-154h21v129v-4l2 -2v0v-4l88 -119h16v154zM1169 604l-67 154h-23l-65 -154h12q6 0 8 2l3 3t5 3l9 27h79l11 -27q2 -4 6 -6q0 -2 8 -2h14zM1270 623h-66v135h-22v-154h88v19zM1479 758h-21v-92v-11t-2 -8q-2 -8 -10 -12q-2 -2 -5 -4t-5 -6q-6 -2 -9.5 -2h-7.5q-10 0 -14 2
q-6 4 -10 6t-4 4q-2 2 -4.5 5t-6.5 7q0 4 -1 8t-1 11v92h-20v-92v-12t2 -7q0 -8 4 -14q4 -10 12 -15q2 -2 5 -4t8 -4q2 -2 6 -3t6 -3q6 0 9 -2t9 -2q4 0 7.5 2t9.5 2q4 2 7 3t7 3l12 8q4 5 5 8t3 7q3 2 6 6t3 8v19v92zM1597 631q7 8 7 16q0 12 -4.5 20.5t-12.5 14.5
q-6 4 -6 6h-5t-5 2h-3t-5 4h-2t-5 2q-2 0 -4 1l-6 3q-8 2 -8 5q-4 2 -5 4t-3 2q0 2 -1 3t-1 5t4 8l6 6q2 0 3 1t5 1q0 2 10 2l2.5 -1t4.5 -1q2 -2 8 -4q8 -2 10 -2q6 0 8 4l6 2l-4 4l-4 4q0 2 -3 4.5t-5 4.5q-4 0 -6 1t-6 5q-4 0 -7.5 1l-3.5 1q-6 0 -10 -1t-8 -1
q-4 -4 -8 -6t-6 -2q-4 -5 -6 -8t-7 -7q0 -4 -2 -7t-2 -9t2 -9t2 -8q5 -8 11 -12q4 -2 7 -5t5 -3q6 -2 9 -4t7 -4t6.5 -2h4.5q2 -2 5 -2t5 -2t5 -3t3 -6q2 -2 2 -5v-7v-3t-2 -5q-2 -6 -8 -8q-4 -4 -6 -5t-4 -3h-6h-5h-7h-5q-4 2 -10 8v2q-6 4 -12 4h-3.5t-5.5 -2l-6 -2
q2 -2 2 -3t2 -1q0 -2 1 -3t1 -3l1 -1t1 -4q4 -2 7 -2q6 -8 15 -10t19 -2h10.5t10.5 2l8 4t8 6q2 2 5 5.5t5 9.5zM1722 758h-94v-154h94v19h-73v47h61v20h-61v45h73v23zM1966 659v11v10v11v9q-4 11 -10 21q-4 6 -12 14q-2 4 -6.5 6t-8.5 9q-4 0 -9 2t-9 6q-6 0 -10.5 1
t-10.5 1t-11 -1t-9 -1q-12 -6 -21 -8q-4 -7 -7 -9t-7 -6l-7 -7l-7 -7q-2 -6 -4 -10t-2 -11q-5 -8 -5 -20q0 -8 2.5 -15.5t4.5 -15.5q6 -14 18 -26q4 -5 10 -9t15 -4q12 -6 30 -6h10.5h10.5q4 2 9 4t9 4q4 4 8.5 6.5t6.5 4.5q8 8 12 18q6 8 10 18zM2126 758h-23v-119
q0 2 -1 5t-3 3l-74 105l-1 1t-3 5h-5h-5h-16v-154h24v129v-4v-2v-2l2 -2l86 -119h19v154zM2251 623h-66v135h-22v-154h88v19zM2374 758h-19q-4 0 -8 -4q-8 -4 -8 -9l-35 -47l-2 -2h-2v-2v2l-2 2l-37 47q-2 5 -6 9t-10 4h-17l56 -76l2 -2q0 -2 2 -2v-2v-2q0 -2 2 -2v-2v-66
h22v66v2v4q2 0 2 4v2h2zM1188 864q-19 8 -38.5 19.5t-33.5 25.5h322q-17 -14 -35.5 -25.5t-38.5 -19.5q-21 -6 -43.5 -12t-44.5 -6q-25 0 -46.5 6t-41.5 12zM1141 936l315 317q29 -39 45.5 -79.5t16.5 -81.5q0 -23 -3.5 -44.5t-11.5 -41.5q-8 -19 -18 -36.5t-23 -33.5h-321z
M1094 928q-27 35 -45 73q-7 21 -11 43.5t-4 47.5q0 20 4 40.5t11 41.5q6 18 16 35.5t25 33.5h319zM1364 1315q20 -8 38.5 -20.5t33.5 -22.5h-324q37 28 76 43q39 18 88 18t88 -18zM78 350q-4 4 -5 8t-3 9q-2 6 -3 10t-1 10t4 16q2 5 3 10t5 7l3 9t7 7q0 2 5 5t7 5q6 5 9.5 6
t9.5 3q2 0 8 1t10 1q8 0 14.5 -1t14.5 -5q8 -2 13 -6.5t9 -8.5q-2 -2 -4 -2v-4h-2h-2h-4h-6q-4 2 -8 5t-8 3h-7.5h-9.5h-10h-8q-8 -4 -12.5 -7t-8.5 -5q-4 -6 -7 -10t-5 -8q-4 -7 -4 -13v-8q0 -8 2 -14t3 -9.5t1 -7.5q2 -2 5 -4t5 -6q4 -2 6 -5t7 -3q2 -2 6 -4t8 -2
q2 -2 6 -2h6h10.5t8.5 2q4 0 9 2t9 4v29h-12h-2l-2 2l-3 3l-3 3l-1 1t-1 3v1v3v0h38v-53l-5 -5t-5 -6q-6 -2 -12 -2q-6 -2 -14 -2h-15h-10h-8q-6 2 -9.5 4.5t-9.5 6.5q-2 0 -7 3t-5 7q-6 2 -7 6t-3 8zM240 438v-45h55v-14h-55v-47h67v-17h-84v140h84v-17h-67zM369 315v123
h-45v17h106v-17h-47v-123h-14zM532 438v-49h60v-12h-60v-62h-16v140h84v-17h-68zM641 455v-86q0 -4 2 -7.5t4 -5.5q2 -6 5 -9t5 -7q0 -2 3.5 -4t5.5 -4q6 -2 10 -2h8h7t5 2q6 2 9.5 4t7.5 4q0 4 3 7t5 9q4 4 4 13v86h14v-86q0 -7 -1 -11t-3 -10t-5 -10t-7 -8t-8 -7.5
t-8 -5.5q-13 -2 -23 -2q-12 0 -25 2q-2 2 -7 5.5t-9 7.5q-6 6 -10 18q-2 6 -4 10t-2 11v86h14zM784 455v-123h62v-17h-78v140h16zM877 455v-123h65v-17h-80v140h15zM1069 315l-61 140h8q4 0 8 -2q2 -2 3 -2t3 -5l43 -104v-4q2 -2 2 -6v6l1 2l1 2q6 14 12.5 26.5t12.5 24.5
q4 17 10 29l12 24q0 5 2 5t2 2q2 2 3.5 2h5.5h8q-8 -17 -15.5 -34.5t-17.5 -33.5q-6 -20 -13 -36.5t-16 -35.5h-14zM1171 438v-45h58v-14h-58v-47h68v-17h-84v140h84v-17h-68zM1341 381q-2 -2 -10 -4l47 -62h-10q-2 0 -5 1l-3 1q-2 2 -4 3.5t-4 5.5l-39 51h-25v-62h-14v140
h51h5t7 -2q9 -2 15 -9q2 -4 4 -7t4 -7q2 -2 2 -7v-5v-9t-2 -6q0 -4 -2 -8t-4 -6l-4 -4t-9 -4zM1325 389q4 0 6 4q2 0 4 1t4 1l3 6t4 5q0 2 1 4t1 8l-1 2t-1 6q-3 2 -4 3t-3 5q-2 0 -4 1t-4 3h-6h-37v-49h37zM1452 336q2 2 4 8q2 2 3 6t1 6q0 6 -2 11q-2 0 -3 3t-3 5t-8 4
q-4 0 -6 1l-6 3q-5 0 -9 2t-4 4q-10 0 -14 6q-4 0 -5 4t-3 7v14v9t2 7q0 6 8 10q4 5 6 6t8 3q4 0 6.5 1t8.5 1q2 0 5 -1t5 -1t4 -1l6 -3q2 0 4 -2.5t2 -4.5q4 -2 5 -4t3 -2l-4 -2q-2 -2 -8 -2h-6q-4 2 -4 4h-2h-2h-2h-3h-1h-2h-9q-8 0 -8 -2q-6 -6 -6 -8q-4 0 -4 -8
q0 -6 4 -6q0 -4 2 -6t5 -3.5l3 -1.5q4 -4 6.5 -4t8.5 -4h3t3 -2h4t4 -4h2h1h1q2 0 4 -1l2 -1q4 -4 6 -7t7 -5q2 -10 2 -19v-10t-7 -8q0 -6 -8 -12q-2 -2 -6 -4.5t-8 -4.5t-8 -2h-10q-11 0 -18 2t-13 9q-2 0 -4 2l-4 4q0 2 -1 4l-1 2l2 2l1 1t5 1h2q2 0 4 -1t4 -3q4 -2 6 -4
t6 -2q0 -2 4 -2h7q8 0 10 2q8 0 12 4zM1524 455v-140h-17v140h17zM1579 336q-12 8 -18 20q-5 15 -5 31v7v9q7 11 9 17q6 8 14 16q6 6 12 10q4 5 9.5 6t9.5 3q4 0 8 1t10 1q4 0 9 -1t12 -1q4 -2 8 -3t8 -6l5 -5t7 -5q4 -4 6.5 -7t6.5 -9q2 -6 6 -17q2 -4 3 -9t1 -7
q0 -8 -2 -15t-6 -16q-2 -6 -5.5 -11t-9.5 -9q-6 -6 -11 -9t-11 -8q-10 -4 -27 -4q-8 0 -15 1t-11 3q-17 5 -23 17zM1579 408q-4 -7 -6 -13t-2 -8q0 -4 1 -8t1 -6q2 -8 8 -17q0 -2 2 -4t4 -6l5 -5t10 -3q2 -2 5 -4t5 -2q4 -2 8 -2h8h7t7 2q3 0 7 2l8 4q2 0 5 3l5 5q2 4 4 6
l4 4q2 4 3 7.5t3 9.5q0 2 1 6t1 8q0 2 -1 8t-5 13q0 4 -4 8t-6 10q-4 2 -8 5t-10 7h-9.5h-11.5h-12h-10q-4 -4 -9.5 -7t-9.5 -5q-2 -6 -5 -10t-3 -8zM1741 315h-17v140h13h5t5 -4l72 -103q2 0 2 -4l2 -2v-2v115h16v-140h-14l-82 115v4h-2v4v-123zM1956 438v-49h57v-12h-57
v-62h-14v140h83v-17h-69zM2114 381q-9 -2 -13 -4l45 -62h-12q-4 0 -8 2q0 2 -1 3.5t-3 5.5l-39 51h-25v-62h-16v140h51h6t8 -2t7.5 -4.5t5.5 -4.5q2 -4 4 -7t6 -7q0 -2 1 -7l1 -5q0 -6 -1 -9t-1 -6l-4 -8t-2 -6zM2101 393q2 0 3 1t3 1q7 8 7 11q2 4 2 12q0 2 -2 8q0 2 -7 8
q-2 0 -3 1l-3 3h-8h-35v-49h35q4 0 8 4zM2281 336q-4 -6 -10 -9t-12 -8q-6 -2 -12 -3t-15 -1q-8 0 -15 1t-13 3q-13 5 -23 17q-4 4 -8 9t-6 11q-2 9 -5 16t-3 15q0 2 1 7t3 9q2 5 3 10t3 7q4 6 7 9t5 7q4 2 8 5t9 5q4 5 8 6t8 3q6 0 9 1t9 1q4 0 9.5 -1t9.5 -1l9 -3t7 -6
q4 -2 8 -5t6 -5q3 -4 6 -7t5 -9q6 -6 8 -17q2 -4 3 -9t1 -7q0 -8 -1 -15t-5 -16q-2 -6 -6 -11t-11 -9zM2232 330h7.5t9.5 2q2 0 5 2t5 4q2 0 6 3t8 5l3 6t3 4q2 4 3.5 7.5t1.5 9.5q2 2 2 6v8q0 2 -1 8t-1 13l-6 8t-5 10q-6 2 -11 5t-9 7h-10.5h-10.5h-11h-11q-6 -4 -9 -7
t-8 -5q-6 -6 -8 -10l-4 -8q-2 -7 -2 -13v-8v-14q0 -6 1 -9.5t5 -7.5q0 -2 3 -4t5 -6q2 -2 5.5 -5t5.5 -3q2 -2 5 -4t9 -2q2 -2 6 -2h8zM2460 453q2 2 3 2h3h12v-140h-14v115l-2 -2v0v-2q-4 -8 -6 -17.5t-7 -15.5q-4 -6 -7 -12l-7 -14q-2 -9 -4 -15l-4 -12q-4 -6 -7 -11
t-5 -14h-15q-10 13 -15 27t-11 27q-4 14 -11.5 28.5t-11.5 28.5v2l-4 2v-115h-16v140h14q6 0 8 -2l2 -2v-5l49 -108q0 -2 2 -2v-4q0 2 1 4t1 4q0 4 5 8l43 98q0 5 1 5t3 2zM74 262h157v-20v-4v-5q0 -4 -2 -6l-4 -4l-106 -145h2v2h4h2h104v-37h-165v12q0 11 2 13q0 2 4 8
q2 2 2 4t2 4t3 4l3 6l94 129h-102v39zM260 262h139v-39h-100v-49h80v-41h-80v-53h100v-37h-139v219zM571 223h-59v-180h-43v180h-63v39h165v-39zM672 262l94 -219h-25q-8 0 -16 4q-4 2 -5 6t-5 8l-13 29h-100l-10 -29q-2 -4 -3 -5t-3 -1q0 -4 -1 -5t-5 -3q-2 0 -4.5 -1
t-4.5 -1q0 -2 -2 -2h-4h-24l94 219h37zM684 129l-27 68q0 2 -1 3t-1 3q0 4 -2 6v-6q0 -2 -2 -3t-2 -3l-26 -68h61zM774 262h139v-39h-100v-55h82v-39h-82v-86h-39v219zM1133 207q4 -6 6 -12.5t6 -12.5q2 -8 2 -15v-13v-17t-2 -14q-4 -6 -6 -13.5t-6 -13.5q-5 -4 -9 -10
l-8 -12q-8 -4 -12 -9.5t-10 -7.5q-7 -6 -14 -8t-13 -4q-8 -2 -15.5 -3t-15.5 -1q-10 0 -21 3t-22 5q-12 6 -19 12.5t-18 12.5q-14 16 -20 35q-6 12 -8 22t-2 23q0 6 1 13t3 15q4 17 12 25q4 8 7 13t7 11q9 5 14 9t11 8t12 6t15 6q6 0 13 1t15 1t15.5 -1t15.5 -1q6 -4 13 -6
t14 -6q6 -4 10 -8t12 -9q4 -6 8 -11t9 -13zM1104 127q2 6 3 12t1 15q0 12 -4 24q-4 10 -8 15.5t-11 9.5q-4 4 -9 8t-11 6q-12 6 -29 6q-16 0 -28 -6q-4 -2 -9.5 -6t-11.5 -8t-9 -9.5t-7 -15.5q-4 -4 -4 -11v-13v-15t4 -12q4 -8 7 -14.5t9 -10.5t11.5 -8t9.5 -8q8 -2 14 -4
t14 -2t14.5 2t14.5 4q6 4 11 8t9 8q7 4 11 10.5t8 14.5zM1329 262h39v-219h-37l-102 147q-2 0 -2 1.5t-2 3.5q-2 4 -2 6q-4 0 -4 4l-1 1t-4 3v-166h-38v219h34q4 0 8.5 -1t4.5 -3l6 -3t4 -3q10 -16 21.5 -31.5t21.5 -34.5q12 -14 23.5 -29.5t25.5 -29.5q0 -4 1 -6t1 -6
q0 -2 1 -4t1 -5v156zM1389 262h165v-39h-65v-180h-39v180h-61v39zM1690 150q2 -5 5 -9t5 -8q0 -4 2 -9t2 -13q0 -13 -6 -27l-8 -12t-9 -11q-8 -4 -12 -8t-12 -6t-15.5 -4t-13.5 -2q-8 0 -15 2t-18 4q-6 2 -11 6t-13 13q-4 2 -6 5t-4 7q-5 2 -5 12l1.5 1t3.5 3q2 0 2 1t2 1
t4 1l2 1h10h3t3 -2q6 0 10 -2q5 -4 9 -6t6 -4q2 0 6 -2t10 -2q2 0 5 1t7 3q7 2 13 6l8 8q2 4 4 6t2 7q0 8 -6 12q-4 6 -8 6q-4 4 -7.5 5t-5.5 1q-6 2 -16 8q-4 0 -9 1t-9 6q-9 2 -13 5t-8 7q-6 4 -9 8t-5 8q-6 12 -6 25q0 18 6 26q2 7 6 11t10 8q4 4 9.5 6t13.5 6q4 0 10 1
t14 1q4 0 8.5 -1t10.5 -1q4 -2 7 -4t9 -4q2 -2 6 -5t8 -7q3 -2 6 -5.5t5 -7.5l-8 -4l-6 -4t-3 -4h-8h-4h-4h-2q-6 0 -6 2l-8 4q-3 0 -4 1l-1 1h-6h-12q-4 0 -5 -1t-5 -3q-2 -2 -4 -8q-2 -2 -2 -8t2 -6q2 -2 3 -4.5t1 -6.5q4 0 7 -1t5 -1q6 -2 11 -4t7 -4l11 -2q4 -4 9 -5
t11 -7q10 -2 17 -12zM1755 80q6 0 6 -6q2 0 2 -3v-5q0 -7 -2 -11q0 -4 -6 -8q-4 0 -6 -4q-2 0 -4 -1t-6 -1q-2 0 -4 1t-4 1q-2 2 -4.5 3t-4.5 1q-2 2 -3 4t-3 4q-2 4 -2 11v5t2 3q2 4 3 5t3 1q7 6 9 6q2 2 4 3t4 1q4 0 6 -1t4 -3q2 0 6 -6zM1839 203q-8 -8 -16 -25
q-2 -4 -4 -11t-2 -13q0 -9 2 -15l4 -12q4 -8 7 -14.5t9 -10.5q4 -4 9 -8t14 -8q8 -2 14 -4t14 -2q6 0 10.5 2t10.5 2q4 2 9 5t9 7q4 0 8 2h7h6t6 -2q6 -2 10 -6l6 -10q-6 -8 -16 -14q-6 -5 -10 -8t-11 -5q-6 -4 -11 -5t-11 -3t-11.5 -3t-11.5 -1q-14 0 -24.5 3t-20.5 5
q-20 10 -35 25q-16 16 -24 35q-2 12 -5 22t-3 23q0 6 1 13t3 15q2 6 4 12.5t6 12.5q6 8 9 13t9 11q7 5 12 9t13 8q4 4 10 6t17 6q4 0 12 1t16 1h11.5t11.5 -2t11 -4t11 -4q7 -2 11 -5t10 -7q10 -9 16 -17l-6 -8l-5 -5t-5 -3h-7h-5h-8t-7 2q-4 4 -9 7t-9 5q-6 2 -10.5 2
h-10.5q-16 0 -28 -6q-9 -2 -14 -6t-9 -8zM2195 207q3 -6 6 -12.5t5 -12.5q2 -8 2 -15v-13v-17t-2 -14t-5 -13.5t-6 -13.5q-8 -10 -16 -22q-8 -4 -14 -9.5t-11 -7.5q-6 -6 -13 -8t-15 -4q-6 -2 -13.5 -3t-15.5 -1q-20 0 -43 8q-8 6 -17 12.5t-16 12.5q-8 8 -14 16t-10 19
q-4 12 -6 22t-2 23q0 6 1 13t1 15q2 6 6 12.5t6 12.5q4 8 8 13t10 11q4 5 10.5 9t12.5 8q4 4 11 6t13 6q9 0 16 1t13 1q8 0 15.5 -1t13.5 -1q8 -4 15 -6t13 -6q5 -4 11 -8t14 -9q2 -6 8 -11t8 -13zM2165 127q4 10 4 27q0 6 -1 13t-3 11q-4 10 -7.5 15.5t-7.5 9.5
q-10 10 -24 14q-6 4 -13.5 5t-15.5 1q-14 0 -26 -6q-7 -2 -12 -6t-11 -8q-4 -4 -8 -9.5t-8 -15.5q-2 -4 -3 -11t-1 -13q0 -9 1 -15t3 -12q8 -16 16 -25q6 -4 11 -8t12 -8q6 -2 14 -4t12 -2q8 0 15.5 2t13.5 4q6 4 13 8t11 8q9 9 15 25zM2433 260l1 1t5 1h39v-219h-39v160
q0 -2 -1 -4l-3 -6v-7t-2 -4q-6 -18 -14.5 -35.5t-14.5 -33.5q-6 -17 -13 -34.5t-13 -35.5h-39l-55 139q-3 2 -3 11q-2 4 -3 5t-1 3v-158h-41v219h39q4 0 6.5 -1l2.5 -1q4 -2 5 -2t3 -2l6 -4l4 -4t2 -4q4 -17 11 -32t14 -34q6 -16 13 -32.5t13 -32.5v-2v-5v-4q4 0 4 -4v4v4
q0 3 1 5l1 2l9 16l45 115q0 2 1 4t1 4q2 2 5 3l3 1q2 2 4 2t4 2z" />
    <glyph glyph-name="two" unicode="2" horiz-adv-x="2531" 
d="M1929 721q4 -4 8.5 -9t6.5 -10q0 -6 1 -11t1 -11q0 -12 -2 -23q-2 -6 -6.5 -10t-8.5 -6q-4 -4 -8 -7t-8 -7q-12 -4 -23 -4q-6 0 -12 1t-10 3l-10.5 7t-8.5 7q-4 2 -7 6t-3 10q-4 7 -5 12t-1 11q0 10 6 22q0 5 3 10t7 9t8.5 7t10.5 5q8 4 22 4q6 0 10.5 -1t12.5 -3
q4 -2 8 -5t8 -7zM518 702q0 -2 -4 -8q-2 0 -3 -2t-5 -2q-2 -2 -8 -2h-33v47h33q4 0 8 -2q4 0 5 -1l3 -3l4 -8q2 -2 2 -10q0 -6 -2 -9zM801 721q4 -4 8 -9t6 -10q2 -6 3 -11t1 -11t-1 -11t-3 -12q-2 -6 -6 -10t-8 -6q-2 -4 -6 -7t-11 -7q-4 -2 -10 -3t-12 -1q-12 0 -23 4
q-4 4 -9 7t-9 7l-6 6t-6 10q-2 7 -4.5 12t-2.5 11q0 10 7 22q2 5 6 10t6 9q4 4 9 7t9 5q6 2 12.5 3t10.5 1q12 0 22 -4q7 -2 11 -5t6 -7zM1090 733q0 -4 1 -6t1 -4l28 -64h-59l29 64v4v6zM270 729q2 -2 3 -5t3 -5q3 -4 3 -10v-5.5t-3 -5.5q-2 -2 -3 -5t-3 -3l-8 -8h-10h-37
v53h37q6 0 10 -2q2 0 5 -2zM2478 1092v-586h-2404v586h911q0 30 5 58t18 54q12 27 27.5 51.5t37.5 42.5q37 39 90 62q29 12 56.5 17t56.5 5q33 0 61.5 -6t53.5 -18q28 -12 51.5 -28.5t42.5 -35.5q37 -37 61 -94q21 -53 21 -108h911zM1030 1192q-22 -47 -22 -100
q0 -58 22 -105q10 -22 24.5 -44.5t30.5 -41.5q19 -18 40.5 -32.5t45.5 -24.5q48 -23 105 -23q29 0 54.5 4t49.5 15q25 12 45.5 25.5t38.5 33.5q19 19 33 40.5t27 43.5q22 51 22 109q0 22 -4 45.5t-14 44.5q-12 41 -41 75q-14 17 -30.5 31.5t-33.5 24.5q-18 10 -37.5 19
t-39.5 18q-15 4 -32.5 6t-37.5 2q-29 0 -55.5 -5t-51.5 -18q-49 -18 -86 -57q-16 -18 -29.5 -41t-23.5 -45zM295 690q6 10 6 19q0 4 -1 9t-5 11q0 2 -4 6l-6 6q-2 4 -5.5 7.5t-9.5 3.5q-4 2 -9 4t-9 2h-53v-154h16v58h37q4 0 9 1t9 3q11 4 15 8q2 4 6 8t4 8zM410 758h-95
v-154h95v19h-72v47h59v20h-59v45h72v23zM559 604l-47 66q2 2 5 2t5 4q8 4 10 10q3 2 5 5t4 7v13v10t-2 8q-4 8 -11 14q-4 9 -14 9q-2 2 -7 4t-9 2h-56v-154h23v64h22l41 -56q2 -4 7 -6q2 -2 4 -2h6h14zM664 631q0 4 1 8t1 8q0 12 -4.5 20.5t-12.5 14.5q-2 0 -3 2t-5 4h-1
t-5 2h-2t-2 4q-6 0 -8 2q-7 0 -9 1l-6 3q-8 2 -8 5q-6 4 -6 6v8v8q2 0 4 2t2 4l3 1t5 1q4 2 6 2h4l2.5 -1t4.5 -1q8 0 8 -4q2 -2 4 -2h4q8 0 14 4l4 2q0 2 -2 4l-4 4q-4 2 -6 4.5t-6 4.5q-2 0 -4 1t-6 5q-6 0 -7 1t-6 1q-4 0 -9 -1t-9 -1q-4 -4 -7 -6t-7 -2q-2 -5 -5 -8
t-6 -7q-2 -4 -3 -7t-1 -9v-9t4 -8q3 -4 6 -7t3 -5q4 -2 8 -5t8 -3q4 -2 7 -4t7 -4q2 -2 5.5 -2h5.5q6 -2 7 -2t3 -2q4 -2 4 -3t2 -6q2 -2 2 -5v-7v-3t-2 -5q-2 -4 -2 -5t-4 -3q-2 -4 -5 -5t-5 -3h-5.5h-5.5h-7h-5q-2 2 -5 3t-3 5l-2 2q-6 4 -12 4h-4.5t-4.5 -2l-6 -2
q0 -4 2 -4q0 -4 4 -6q0 -2 2 -5l2 -2h3q8 -8 17 -10t19 -2h9.5t9.5 2t9 4t7 6q6 2 9.5 5.5t5.5 9.5zM838 659q2 7 2 11v10q0 12 -2 20q0 7 -3.5 11t-5.5 10q-4 6 -12 14q-4 4 -8 6t-10 9q-2 0 -6.5 2t-10.5 6q-6 0 -10 1t-10 1q-4 0 -10.5 -1t-10.5 -1q-6 -4 -10 -6t-8 -2
q-4 -7 -8 -9t-8 -6q-5 -4 -8 -7t-5 -7q-4 -6 -5 -10t-3 -11q-2 -8 -2 -20q0 -8 2 -15.5t4 -15.5q2 -6 6 -12t11 -14q6 -5 12 -9t14 -4q12 -6 29 -6h10h10q11 4 17 8q14 6 18 11q6 8 12 18q2 4 5.5 9t3.5 9zM997 758h-20v-119q0 2 -1 5l-1 3l-74 105q-4 0 -8 6h-4h-4h-15
v-154h21v129v-4l2 -2v0v-4l88 -119h16v154zM1169 604l-67 154h-23l-65 -154h12q6 0 8 2l3 3t5 3l9 27h79l11 -27q2 -4 6 -6q0 -2 8 -2h14zM1270 623h-66v135h-22v-154h88v19zM1479 758h-21v-92v-11t-2 -8q-2 -8 -10 -12q-2 -2 -5 -4t-5 -6q-6 -2 -9.5 -2h-7.5q-10 0 -14 2
q-6 4 -10 6t-4 4q-2 2 -4.5 5t-6.5 7q0 4 -1 8t-1 11v92h-20v-92v-12t2 -7q0 -8 4 -14q4 -10 12 -15q2 -2 5 -4t8 -4q2 -2 6 -3t6 -3q6 0 9 -2t9 -2q4 0 7.5 2t9.5 2q4 2 7 3t7 3l12 8q4 5 5 8t3 7q3 2 6 6t3 8v19v92zM1597 631q7 8 7 16q0 12 -4.5 20.5t-12.5 14.5
q-6 4 -6 6h-5t-5 2h-3t-5 4h-2t-5 2q-2 0 -4 1l-6 3q-8 2 -8 5q-4 2 -5 4t-3 2q0 2 -1 3t-1 5t4 8l6 6q2 0 3 1t5 1q0 2 10 2l2.5 -1t4.5 -1q2 -2 8 -4q8 -2 10 -2q6 0 8 4l6 2l-4 4l-4 4q0 2 -3 4.5t-5 4.5q-4 0 -6 1t-6 5q-4 0 -7.5 1l-3.5 1q-6 0 -10 -1t-8 -1
q-4 -4 -8 -6t-6 -2q-4 -5 -6 -8t-7 -7q0 -4 -2 -7t-2 -9t2 -9t2 -8q5 -8 11 -12q4 -2 7 -5t5 -3q6 -2 9 -4t7 -4t6.5 -2h4.5q2 -2 5 -2t5 -2t5 -3t3 -6q2 -2 2 -5v-7v-3t-2 -5q-2 -6 -8 -8q-4 -4 -6 -5t-4 -3h-6h-5h-7h-5q-4 2 -10 8v2q-6 4 -12 4h-3.5t-5.5 -2l-6 -2
q2 -2 2 -3t2 -1q0 -2 1 -3t1 -3l1 -1t1 -4q4 -2 7 -2q6 -8 15 -10t19 -2h10.5t10.5 2l8 4t8 6q2 2 5 5.5t5 9.5zM1722 758h-94v-154h94v19h-73v47h61v20h-61v45h73v23zM1966 659v11v10v11v9q-4 11 -10 21q-4 6 -12 14q-2 4 -6.5 6t-8.5 9q-4 0 -9 2t-9 6q-6 0 -10.5 1
t-10.5 1t-11 -1t-9 -1q-12 -6 -21 -8q-4 -7 -7 -9t-7 -6l-7 -7l-7 -7q-2 -6 -4 -10t-2 -11q-5 -8 -5 -20q0 -8 2.5 -15.5t4.5 -15.5q6 -14 18 -26q4 -5 10 -9t15 -4q12 -6 30 -6h10.5h10.5q4 2 9 4t9 4q4 4 8.5 6.5t6.5 4.5q8 8 12 18q6 8 10 18zM2126 758h-23v-119
q0 2 -1 5t-3 3l-74 105l-1 1t-3 5h-5h-5h-16v-154h24v129v-4v-2v-2l2 -2l86 -119h19v154zM2251 623h-66v135h-22v-154h88v19zM2374 758h-19q-4 0 -8 -4q-8 -4 -8 -9l-35 -47l-2 -2h-2v-2v2l-2 2l-37 47q-2 5 -6 9t-10 4h-17l56 -76l2 -2q0 -2 2 -2v-2v-2q0 -2 2 -2v-2v-66
h22v66v2v4q2 0 2 4v2h2zM1188 864q-19 8 -38.5 19.5t-33.5 25.5h322q-17 -14 -35.5 -25.5t-38.5 -19.5q-21 -6 -43.5 -12t-44.5 -6q-25 0 -46.5 6t-41.5 12zM1141 936l315 317q29 -39 45.5 -79.5t16.5 -81.5q0 -23 -3.5 -44.5t-11.5 -41.5q-8 -19 -18 -36.5t-23 -33.5h-321z
M1094 928q-27 35 -45 73q-7 21 -11 43.5t-4 47.5q0 20 4 40.5t11 41.5q6 18 16 35.5t25 33.5h319zM1364 1315q20 -8 38.5 -20.5t33.5 -22.5h-324q37 28 76 43q39 18 88 18t88 -18zM78 350q-4 4 -5 8t-3 9q-2 6 -3 10t-1 10t4 16q2 5 3 10t5 7l3 9t7 7q0 2 5 5t7 5q6 5 9.5 6
t9.5 3q2 0 8 1t10 1q8 0 14.5 -1t14.5 -5q8 -2 13 -6.5t9 -8.5q-2 -2 -4 -2v-4h-2h-2h-4h-6q-4 2 -8 5t-8 3h-7.5h-9.5h-10h-8q-8 -4 -12.5 -7t-8.5 -5q-4 -6 -7 -10t-5 -8q-4 -7 -4 -13v-8q0 -8 2 -14t3 -9.5t1 -7.5q2 -2 5 -4t5 -6q4 -2 6 -5t7 -3q2 -2 6 -4t8 -2
q2 -2 6 -2h6h10.5t8.5 2q4 0 9 2t9 4v29h-12h-2l-2 2l-3 3l-3 3l-1 1t-1 3v1v3v0h38v-53l-5 -5t-5 -6q-6 -2 -12 -2q-6 -2 -14 -2h-15h-10h-8q-6 2 -9.5 4.5t-9.5 6.5q-2 0 -7 3t-5 7q-6 2 -7 6t-3 8zM240 438v-45h55v-14h-55v-47h67v-17h-84v140h84v-17h-67zM369 315v123
h-45v17h106v-17h-47v-123h-14zM532 438v-49h60v-12h-60v-62h-16v140h84v-17h-68zM641 455v-86q0 -4 2 -7.5t4 -5.5q2 -6 5 -9t5 -7q0 -2 3.5 -4t5.5 -4q6 -2 10 -2h8h7t5 2q6 2 9.5 4t7.5 4q0 4 3 7t5 9q4 4 4 13v86h14v-86q0 -7 -1 -11t-3 -10t-5 -10t-7 -8t-8 -7.5
t-8 -5.5q-13 -2 -23 -2q-12 0 -25 2q-2 2 -7 5.5t-9 7.5q-6 6 -10 18q-2 6 -4 10t-2 11v86h14zM784 455v-123h62v-17h-78v140h16zM877 455v-123h65v-17h-80v140h15zM1069 315l-61 140h8q4 0 8 -2q2 -2 3 -2t3 -5l43 -104v-4q2 -2 2 -6v6l1 2l1 2q6 14 12.5 26.5t12.5 24.5
q4 17 10 29l12 24q0 5 2 5t2 2q2 2 3.5 2h5.5h8q-8 -17 -15.5 -34.5t-17.5 -33.5q-6 -20 -13 -36.5t-16 -35.5h-14zM1171 438v-45h58v-14h-58v-47h68v-17h-84v140h84v-17h-68zM1341 381q-2 -2 -10 -4l47 -62h-10q-2 0 -5 1l-3 1q-2 2 -4 3.5t-4 5.5l-39 51h-25v-62h-14v140
h51h5t7 -2q9 -2 15 -9q2 -4 4 -7t4 -7q2 -2 2 -7v-5v-9t-2 -6q0 -4 -2 -8t-4 -6l-4 -4t-9 -4zM1325 389q4 0 6 4q2 0 4 1t4 1l3 6t4 5q0 2 1 4t1 8l-1 2t-1 6q-3 2 -4 3t-3 5q-2 0 -4 1t-4 3h-6h-37v-49h37zM1452 336q2 2 4 8q2 2 3 6t1 6q0 6 -2 11q-2 0 -3 3t-3 5t-8 4
q-4 0 -6 1l-6 3q-5 0 -9 2t-4 4q-10 0 -14 6q-4 0 -5 4t-3 7v14v9t2 7q0 6 8 10q4 5 6 6t8 3q4 0 6.5 1t8.5 1q2 0 5 -1t5 -1t4 -1l6 -3q2 0 4 -2.5t2 -4.5q4 -2 5 -4t3 -2l-4 -2q-2 -2 -8 -2h-6q-4 2 -4 4h-2h-2h-2h-3h-1h-2h-9q-8 0 -8 -2q-6 -6 -6 -8q-4 0 -4 -8
q0 -6 4 -6q0 -4 2 -6t5 -3.5l3 -1.5q4 -4 6.5 -4t8.5 -4h3t3 -2h4t4 -4h2h1h1q2 0 4 -1l2 -1q4 -4 6 -7t7 -5q2 -10 2 -19v-10t-7 -8q0 -6 -8 -12q-2 -2 -6 -4.5t-8 -4.5t-8 -2h-10q-11 0 -18 2t-13 9q-2 0 -4 2l-4 4q0 2 -1 4l-1 2l2 2l1 1t5 1h2q2 0 4 -1t4 -3q4 -2 6 -4
t6 -2q0 -2 4 -2h7q8 0 10 2q8 0 12 4zM1524 455v-140h-17v140h17zM1579 336q-12 8 -18 20q-5 15 -5 31v7v9q7 11 9 17q6 8 14 16q6 6 12 10q4 5 9.5 6t9.5 3q4 0 8 1t10 1q4 0 9 -1t12 -1q4 -2 8 -3t8 -6l5 -5t7 -5q4 -4 6.5 -7t6.5 -9q2 -6 6 -17q2 -4 3 -9t1 -7
q0 -8 -2 -15t-6 -16q-2 -6 -5.5 -11t-9.5 -9q-6 -6 -11 -9t-11 -8q-10 -4 -27 -4q-8 0 -15 1t-11 3q-17 5 -23 17zM1579 408q-4 -7 -6 -13t-2 -8q0 -4 1 -8t1 -6q2 -8 8 -17q0 -2 2 -4t4 -6l5 -5t10 -3q2 -2 5 -4t5 -2q4 -2 8 -2h8h7t7 2q3 0 7 2l8 4q2 0 5 3l5 5q2 4 4 6
l4 4q2 4 3 7.5t3 9.5q0 2 1 6t1 8q0 2 -1 8t-5 13q0 4 -4 8t-6 10q-4 2 -8 5t-10 7h-9.5h-11.5h-12h-10q-4 -4 -9.5 -7t-9.5 -5q-2 -6 -5 -10t-3 -8zM1741 315h-17v140h13h5t5 -4l72 -103q2 0 2 -4l2 -2v-2v115h16v-140h-14l-82 115v4h-2v4v-123zM1956 438v-49h57v-12h-57
v-62h-14v140h83v-17h-69zM2114 381q-9 -2 -13 -4l45 -62h-12q-4 0 -8 2q0 2 -1 3.5t-3 5.5l-39 51h-25v-62h-16v140h51h6t8 -2t7.5 -4.5t5.5 -4.5q2 -4 4 -7t6 -7q0 -2 1 -7l1 -5q0 -6 -1 -9t-1 -6l-4 -8t-2 -6zM2101 393q2 0 3 1t3 1q7 8 7 11q2 4 2 12q0 2 -2 8q0 2 -7 8
q-2 0 -3 1l-3 3h-8h-35v-49h35q4 0 8 4zM2281 336q-4 -6 -10 -9t-12 -8q-6 -2 -12 -3t-15 -1q-8 0 -15 1t-13 3q-13 5 -23 17q-4 4 -8 9t-6 11q-2 9 -5 16t-3 15q0 2 1 7t3 9q2 5 3 10t3 7q4 6 7 9t5 7q4 2 8 5t9 5q4 5 8 6t8 3q6 0 9 1t9 1q4 0 9.5 -1t9.5 -1l9 -3t7 -6
q4 -2 8 -5t6 -5q3 -4 6 -7t5 -9q6 -6 8 -17q2 -4 3 -9t1 -7q0 -8 -1 -15t-5 -16q-2 -6 -6 -11t-11 -9zM2232 330h7.5t9.5 2q2 0 5 2t5 4q2 0 6 3t8 5l3 6t3 4q2 4 3.5 7.5t1.5 9.5q2 2 2 6v8q0 2 -1 8t-1 13l-6 8t-5 10q-6 2 -11 5t-9 7h-10.5h-10.5h-11h-11q-6 -4 -9 -7
t-8 -5q-6 -6 -8 -10l-4 -8q-2 -7 -2 -13v-8v-14q0 -6 1 -9.5t5 -7.5q0 -2 3 -4t5 -6q2 -2 5.5 -5t5.5 -3q2 -2 5 -4t9 -2q2 -2 6 -2h8zM2460 453q2 2 3 2h3h12v-140h-14v115l-2 -2v0v-2q-4 -8 -6 -17.5t-7 -15.5q-4 -6 -7 -12l-7 -14q-2 -9 -4 -15l-4 -12q-4 -6 -7 -11
t-5 -14h-15q-10 13 -15 27t-11 27q-4 14 -11.5 28.5t-11.5 28.5v2l-4 2v-115h-16v140h14q6 0 8 -2l2 -2v-5l49 -108q0 -2 2 -2v-4q0 2 1 4t1 4q0 4 5 8l43 98q0 5 1 5t3 2zM74 262h157v-20v-4v-5q0 -4 -2 -6l-4 -4l-106 -145h2v2h4h2h104v-37h-165v12q0 11 2 13q0 2 4 8
q2 2 2 4t2 4t3 4l3 6l94 129h-102v39zM260 262h139v-39h-100v-49h80v-41h-80v-53h100v-37h-139v219zM571 223h-59v-180h-43v180h-63v39h165v-39zM672 262l94 -219h-25q-8 0 -16 4q-4 2 -5 6t-5 8l-13 29h-100l-10 -29q-2 -4 -3 -5t-3 -1q0 -4 -1 -5t-5 -3q-2 0 -4.5 -1
t-4.5 -1q0 -2 -2 -2h-4h-24l94 219h37zM684 129l-27 68q0 2 -1 3t-1 3q0 4 -2 6v-6q0 -2 -2 -3t-2 -3l-26 -68h61zM774 262h139v-39h-100v-55h82v-39h-82v-86h-39v219zM1133 207q4 -6 6 -12.5t6 -12.5q2 -8 2 -15v-13v-17t-2 -14q-4 -6 -6 -13.5t-6 -13.5q-5 -4 -9 -10
l-8 -12q-8 -4 -12 -9.5t-10 -7.5q-7 -6 -14 -8t-13 -4q-8 -2 -15.5 -3t-15.5 -1q-10 0 -21 3t-22 5q-12 6 -19 12.5t-18 12.5q-14 16 -20 35q-6 12 -8 22t-2 23q0 6 1 13t3 15q4 17 12 25q4 8 7 13t7 11q9 5 14 9t11 8t12 6t15 6q6 0 13 1t15 1t15.5 -1t15.5 -1q6 -4 13 -6
t14 -6q6 -4 10 -8t12 -9q4 -6 8 -11t9 -13zM1104 127q2 6 3 12t1 15q0 12 -4 24q-4 10 -8 15.5t-11 9.5q-4 4 -9 8t-11 6q-12 6 -29 6q-16 0 -28 -6q-4 -2 -9.5 -6t-11.5 -8t-9 -9.5t-7 -15.5q-4 -4 -4 -11v-13v-15t4 -12q4 -8 7 -14.5t9 -10.5t11.5 -8t9.5 -8q8 -2 14 -4
t14 -2t14.5 2t14.5 4q6 4 11 8t9 8q7 4 11 10.5t8 14.5zM1329 262h39v-219h-37l-102 147q-2 0 -2 1.5t-2 3.5q-2 4 -2 6q-4 0 -4 4l-1 1t-4 3v-166h-38v219h34q4 0 8.5 -1t4.5 -3l6 -3t4 -3q10 -16 21.5 -31.5t21.5 -34.5q12 -14 23.5 -29.5t25.5 -29.5q0 -4 1 -6t1 -6
q0 -2 1 -4t1 -5v156zM1389 262h165v-39h-65v-180h-39v180h-61v39zM1690 150q2 -5 5 -9t5 -8q0 -4 2 -9t2 -13q0 -13 -6 -27l-8 -12t-9 -11q-8 -4 -12 -8t-12 -6t-15.5 -4t-13.5 -2q-8 0 -15 2t-18 4q-6 2 -11 6t-13 13q-4 2 -6 5t-4 7q-5 2 -5 12l1.5 1t3.5 3q2 0 2 1t2 1
t4 1l2 1h10h3t3 -2q6 0 10 -2q5 -4 9 -6t6 -4q2 0 6 -2t10 -2q2 0 5 1t7 3q7 2 13 6l8 8q2 4 4 6t2 7q0 8 -6 12q-4 6 -8 6q-4 4 -7.5 5t-5.5 1q-6 2 -16 8q-4 0 -9 1t-9 6q-9 2 -13 5t-8 7q-6 4 -9 8t-5 8q-6 12 -6 25q0 18 6 26q2 7 6 11t10 8q4 4 9.5 6t13.5 6q4 0 10 1
t14 1q4 0 8.5 -1t10.5 -1q4 -2 7 -4t9 -4q2 -2 6 -5t8 -7q3 -2 6 -5.5t5 -7.5l-8 -4l-6 -4t-3 -4h-8h-4h-4h-2q-6 0 -6 2l-8 4q-3 0 -4 1l-1 1h-6h-12q-4 0 -5 -1t-5 -3q-2 -2 -4 -8q-2 -2 -2 -8t2 -6q2 -2 3 -4.5t1 -6.5q4 0 7 -1t5 -1q6 -2 11 -4t7 -4l11 -2q4 -4 9 -5
t11 -7q10 -2 17 -12zM1755 80q6 0 6 -6q2 0 2 -3v-5q0 -7 -2 -11q0 -4 -6 -8q-4 0 -6 -4q-2 0 -4 -1t-6 -1q-2 0 -4 1t-4 1q-2 2 -4.5 3t-4.5 1q-2 2 -3 4t-3 4q-2 4 -2 11v5t2 3q2 4 3 5t3 1q7 6 9 6q2 2 4 3t4 1q4 0 6 -1t4 -3q2 0 6 -6zM1839 203q-8 -8 -16 -25
q-2 -4 -4 -11t-2 -13q0 -9 2 -15l4 -12q4 -8 7 -14.5t9 -10.5q4 -4 9 -8t14 -8q8 -2 14 -4t14 -2q6 0 10.5 2t10.5 2q4 2 9 5t9 7q4 0 8 2h7h6t6 -2q6 -2 10 -6l6 -10q-6 -8 -16 -14q-6 -5 -10 -8t-11 -5q-6 -4 -11 -5t-11 -3t-11.5 -3t-11.5 -1q-14 0 -24.5 3t-20.5 5
q-20 10 -35 25q-16 16 -24 35q-2 12 -5 22t-3 23q0 6 1 13t3 15q2 6 4 12.5t6 12.5q6 8 9 13t9 11q7 5 12 9t13 8q4 4 10 6t17 6q4 0 12 1t16 1h11.5t11.5 -2t11 -4t11 -4q7 -2 11 -5t10 -7q10 -9 16 -17l-6 -8l-5 -5t-5 -3h-7h-5h-8t-7 2q-4 4 -9 7t-9 5q-6 2 -10.5 2
h-10.5q-16 0 -28 -6q-9 -2 -14 -6t-9 -8zM2195 207q3 -6 6 -12.5t5 -12.5q2 -8 2 -15v-13v-17t-2 -14t-5 -13.5t-6 -13.5q-8 -10 -16 -22q-8 -4 -14 -9.5t-11 -7.5q-6 -6 -13 -8t-15 -4q-6 -2 -13.5 -3t-15.5 -1q-20 0 -43 8q-8 6 -17 12.5t-16 12.5q-8 8 -14 16t-10 19
q-4 12 -6 22t-2 23q0 6 1 13t1 15q2 6 6 12.5t6 12.5q4 8 8 13t10 11q4 5 10.5 9t12.5 8q4 4 11 6t13 6q9 0 16 1t13 1q8 0 15.5 -1t13.5 -1q8 -4 15 -6t13 -6q5 -4 11 -8t14 -9q2 -6 8 -11t8 -13zM2165 127q4 10 4 27q0 6 -1 13t-3 11q-4 10 -7.5 15.5t-7.5 9.5
q-10 10 -24 14q-6 4 -13.5 5t-15.5 1q-14 0 -26 -6q-7 -2 -12 -6t-11 -8q-4 -4 -8 -9.5t-8 -15.5q-2 -4 -3 -11t-1 -13q0 -9 1 -15t3 -12q8 -16 16 -25q6 -4 11 -8t12 -8q6 -2 14 -4t12 -2q8 0 15.5 2t13.5 4q6 4 13 8t11 8q9 9 15 25zM2433 260l1 1t5 1h39v-219h-39v160
q0 -2 -1 -4l-3 -6v-7t-2 -4q-6 -18 -14.5 -35.5t-14.5 -33.5q-6 -17 -13 -34.5t-13 -35.5h-39l-55 139q-3 2 -3 11q-2 4 -3 5t-1 3v-158h-41v219h39q4 0 6.5 -1l2.5 -1q4 -2 5 -2t3 -2l6 -4l4 -4t2 -4q4 -17 11 -32t14 -34q6 -16 13 -32.5t13 -32.5v-2v-5v-4q4 0 4 -4v4v4
q0 3 1 5l1 2l9 16l45 115q0 2 1 4t1 4q2 2 5 3l3 1q2 2 4 2t4 2z" />
    <glyph glyph-name="three" unicode="3" horiz-adv-x="2531" 
d="M1929 721q4 -4 8.5 -9t6.5 -10q0 -6 1 -11t1 -11q0 -12 -2 -23q-2 -6 -6.5 -10t-8.5 -6q-4 -4 -8 -7t-8 -7q-12 -4 -23 -4q-6 0 -12 1t-10 3l-10.5 7t-8.5 7q-4 2 -7 6t-3 10q-4 7 -5 12t-1 11q0 10 6 22q0 5 3 10t7 9t8.5 7t10.5 5q8 4 22 4q6 0 10.5 -1t12.5 -3
q4 -2 8 -5t8 -7zM518 702q0 -2 -4 -8q-2 0 -3 -2t-5 -2q-2 -2 -8 -2h-33v47h33q4 0 8 -2q4 0 5 -1l3 -3l4 -8q2 -2 2 -10q0 -6 -2 -9zM801 721q4 -4 8 -9t6 -10q2 -6 3 -11t1 -11t-1 -11t-3 -12q-2 -6 -6 -10t-8 -6q-2 -4 -6 -7t-11 -7q-4 -2 -10 -3t-12 -1q-12 0 -23 4
q-4 4 -9 7t-9 7l-6 6t-6 10q-2 7 -4.5 12t-2.5 11q0 10 7 22q2 5 6 10t6 9q4 4 9 7t9 5q6 2 12.5 3t10.5 1q12 0 22 -4q7 -2 11 -5t6 -7zM1090 733q0 -4 1 -6t1 -4l28 -64h-59l29 64v4v6zM270 729q2 -2 3 -5t3 -5q3 -4 3 -10v-5.5t-3 -5.5q-2 -2 -3 -5t-3 -3l-8 -8h-10h-37
v53h37q6 0 10 -2q2 0 5 -2zM2478 1092v-586h-2404v586h911q0 30 5 58t18 54q12 27 27.5 51.5t37.5 42.5q37 39 90 62q29 12 56.5 17t56.5 5q33 0 61.5 -6t53.5 -18q28 -12 51.5 -28.5t42.5 -35.5q37 -37 61 -94q21 -53 21 -108h911zM1030 1192q-22 -47 -22 -100
q0 -58 22 -105q10 -22 24.5 -44.5t30.5 -41.5q19 -18 40.5 -32.5t45.5 -24.5q48 -23 105 -23q29 0 54.5 4t49.5 15q25 12 45.5 25.5t38.5 33.5q19 19 33 40.5t27 43.5q22 51 22 109q0 22 -4 45.5t-14 44.5q-12 41 -41 75q-14 17 -30.5 31.5t-33.5 24.5q-18 10 -37.5 19
t-39.5 18q-15 4 -32.5 6t-37.5 2q-29 0 -55.5 -5t-51.5 -18q-49 -18 -86 -57q-16 -18 -29.5 -41t-23.5 -45zM295 690q6 10 6 19q0 4 -1 9t-5 11q0 2 -4 6l-6 6q-2 4 -5.5 7.5t-9.5 3.5q-4 2 -9 4t-9 2h-53v-154h16v58h37q4 0 9 1t9 3q11 4 15 8q2 4 6 8t4 8zM410 758h-95
v-154h95v19h-72v47h59v20h-59v45h72v23zM559 604l-47 66q2 2 5 2t5 4q8 4 10 10q3 2 5 5t4 7v13v10t-2 8q-4 8 -11 14q-4 9 -14 9q-2 2 -7 4t-9 2h-56v-154h23v64h22l41 -56q2 -4 7 -6q2 -2 4 -2h6h14zM664 631q0 4 1 8t1 8q0 12 -4.5 20.5t-12.5 14.5q-2 0 -3 2t-5 4h-1
t-5 2h-2t-2 4q-6 0 -8 2q-7 0 -9 1l-6 3q-8 2 -8 5q-6 4 -6 6v8v8q2 0 4 2t2 4l3 1t5 1q4 2 6 2h4l2.5 -1t4.5 -1q8 0 8 -4q2 -2 4 -2h4q8 0 14 4l4 2q0 2 -2 4l-4 4q-4 2 -6 4.5t-6 4.5q-2 0 -4 1t-6 5q-6 0 -7 1t-6 1q-4 0 -9 -1t-9 -1q-4 -4 -7 -6t-7 -2q-2 -5 -5 -8
t-6 -7q-2 -4 -3 -7t-1 -9v-9t4 -8q3 -4 6 -7t3 -5q4 -2 8 -5t8 -3q4 -2 7 -4t7 -4q2 -2 5.5 -2h5.5q6 -2 7 -2t3 -2q4 -2 4 -3t2 -6q2 -2 2 -5v-7v-3t-2 -5q-2 -4 -2 -5t-4 -3q-2 -4 -5 -5t-5 -3h-5.5h-5.5h-7h-5q-2 2 -5 3t-3 5l-2 2q-6 4 -12 4h-4.5t-4.5 -2l-6 -2
q0 -4 2 -4q0 -4 4 -6q0 -2 2 -5l2 -2h3q8 -8 17 -10t19 -2h9.5t9.5 2t9 4t7 6q6 2 9.5 5.5t5.5 9.5zM838 659q2 7 2 11v10q0 12 -2 20q0 7 -3.5 11t-5.5 10q-4 6 -12 14q-4 4 -8 6t-10 9q-2 0 -6.5 2t-10.5 6q-6 0 -10 1t-10 1q-4 0 -10.5 -1t-10.5 -1q-6 -4 -10 -6t-8 -2
q-4 -7 -8 -9t-8 -6q-5 -4 -8 -7t-5 -7q-4 -6 -5 -10t-3 -11q-2 -8 -2 -20q0 -8 2 -15.5t4 -15.5q2 -6 6 -12t11 -14q6 -5 12 -9t14 -4q12 -6 29 -6h10h10q11 4 17 8q14 6 18 11q6 8 12 18q2 4 5.5 9t3.5 9zM997 758h-20v-119q0 2 -1 5l-1 3l-74 105q-4 0 -8 6h-4h-4h-15
v-154h21v129v-4l2 -2v0v-4l88 -119h16v154zM1169 604l-67 154h-23l-65 -154h12q6 0 8 2l3 3t5 3l9 27h79l11 -27q2 -4 6 -6q0 -2 8 -2h14zM1270 623h-66v135h-22v-154h88v19zM1479 758h-21v-92v-11t-2 -8q-2 -8 -10 -12q-2 -2 -5 -4t-5 -6q-6 -2 -9.5 -2h-7.5q-10 0 -14 2
q-6 4 -10 6t-4 4q-2 2 -4.5 5t-6.5 7q0 4 -1 8t-1 11v92h-20v-92v-12t2 -7q0 -8 4 -14q4 -10 12 -15q2 -2 5 -4t8 -4q2 -2 6 -3t6 -3q6 0 9 -2t9 -2q4 0 7.5 2t9.5 2q4 2 7 3t7 3l12 8q4 5 5 8t3 7q3 2 6 6t3 8v19v92zM1597 631q7 8 7 16q0 12 -4.5 20.5t-12.5 14.5
q-6 4 -6 6h-5t-5 2h-3t-5 4h-2t-5 2q-2 0 -4 1l-6 3q-8 2 -8 5q-4 2 -5 4t-3 2q0 2 -1 3t-1 5t4 8l6 6q2 0 3 1t5 1q0 2 10 2l2.5 -1t4.5 -1q2 -2 8 -4q8 -2 10 -2q6 0 8 4l6 2l-4 4l-4 4q0 2 -3 4.5t-5 4.5q-4 0 -6 1t-6 5q-4 0 -7.5 1l-3.5 1q-6 0 -10 -1t-8 -1
q-4 -4 -8 -6t-6 -2q-4 -5 -6 -8t-7 -7q0 -4 -2 -7t-2 -9t2 -9t2 -8q5 -8 11 -12q4 -2 7 -5t5 -3q6 -2 9 -4t7 -4t6.5 -2h4.5q2 -2 5 -2t5 -2t5 -3t3 -6q2 -2 2 -5v-7v-3t-2 -5q-2 -6 -8 -8q-4 -4 -6 -5t-4 -3h-6h-5h-7h-5q-4 2 -10 8v2q-6 4 -12 4h-3.5t-5.5 -2l-6 -2
q2 -2 2 -3t2 -1q0 -2 1 -3t1 -3l1 -1t1 -4q4 -2 7 -2q6 -8 15 -10t19 -2h10.5t10.5 2l8 4t8 6q2 2 5 5.5t5 9.5zM1722 758h-94v-154h94v19h-73v47h61v20h-61v45h73v23zM1966 659v11v10v11v9q-4 11 -10 21q-4 6 -12 14q-2 4 -6.5 6t-8.5 9q-4 0 -9 2t-9 6q-6 0 -10.5 1
t-10.5 1t-11 -1t-9 -1q-12 -6 -21 -8q-4 -7 -7 -9t-7 -6l-7 -7l-7 -7q-2 -6 -4 -10t-2 -11q-5 -8 -5 -20q0 -8 2.5 -15.5t4.5 -15.5q6 -14 18 -26q4 -5 10 -9t15 -4q12 -6 30 -6h10.5h10.5q4 2 9 4t9 4q4 4 8.5 6.5t6.5 4.5q8 8 12 18q6 8 10 18zM2126 758h-23v-119
q0 2 -1 5t-3 3l-74 105l-1 1t-3 5h-5h-5h-16v-154h24v129v-4v-2v-2l2 -2l86 -119h19v154zM2251 623h-66v135h-22v-154h88v19zM2374 758h-19q-4 0 -8 -4q-8 -4 -8 -9l-35 -47l-2 -2h-2v-2v2l-2 2l-37 47q-2 5 -6 9t-10 4h-17l56 -76l2 -2q0 -2 2 -2v-2v-2q0 -2 2 -2v-2v-66
h22v66v2v4q2 0 2 4v2h2zM1188 864q-19 8 -38.5 19.5t-33.5 25.5h322q-17 -14 -35.5 -25.5t-38.5 -19.5q-21 -6 -43.5 -12t-44.5 -6q-25 0 -46.5 6t-41.5 12zM1141 936l315 317q29 -39 45.5 -79.5t16.5 -81.5q0 -23 -3.5 -44.5t-11.5 -41.5q-8 -19 -18 -36.5t-23 -33.5h-321z
M1094 928q-27 35 -45 73q-7 21 -11 43.5t-4 47.5q0 20 4 40.5t11 41.5q6 18 16 35.5t25 33.5h319zM1364 1315q20 -8 38.5 -20.5t33.5 -22.5h-324q37 28 76 43q39 18 88 18t88 -18zM78 350q-4 4 -5 8t-3 9q-2 6 -3 10t-1 10t4 16q2 5 3 10t5 7l3 9t7 7q0 2 5 5t7 5q6 5 9.5 6
t9.5 3q2 0 8 1t10 1q8 0 14.5 -1t14.5 -5q8 -2 13 -6.5t9 -8.5q-2 -2 -4 -2v-4h-2h-2h-4h-6q-4 2 -8 5t-8 3h-7.5h-9.5h-10h-8q-8 -4 -12.5 -7t-8.5 -5q-4 -6 -7 -10t-5 -8q-4 -7 -4 -13v-8q0 -8 2 -14t3 -9.5t1 -7.5q2 -2 5 -4t5 -6q4 -2 6 -5t7 -3q2 -2 6 -4t8 -2
q2 -2 6 -2h6h10.5t8.5 2q4 0 9 2t9 4v29h-12h-2l-2 2l-3 3l-3 3l-1 1t-1 3v1v3v0h38v-53l-5 -5t-5 -6q-6 -2 -12 -2q-6 -2 -14 -2h-15h-10h-8q-6 2 -9.5 4.5t-9.5 6.5q-2 0 -7 3t-5 7q-6 2 -7 6t-3 8zM240 438v-45h55v-14h-55v-47h67v-17h-84v140h84v-17h-67zM369 315v123
h-45v17h106v-17h-47v-123h-14zM532 438v-49h60v-12h-60v-62h-16v140h84v-17h-68zM641 455v-86q0 -4 2 -7.5t4 -5.5q2 -6 5 -9t5 -7q0 -2 3.5 -4t5.5 -4q6 -2 10 -2h8h7t5 2q6 2 9.5 4t7.5 4q0 4 3 7t5 9q4 4 4 13v86h14v-86q0 -7 -1 -11t-3 -10t-5 -10t-7 -8t-8 -7.5
t-8 -5.5q-13 -2 -23 -2q-12 0 -25 2q-2 2 -7 5.5t-9 7.5q-6 6 -10 18q-2 6 -4 10t-2 11v86h14zM784 455v-123h62v-17h-78v140h16zM877 455v-123h65v-17h-80v140h15zM1069 315l-61 140h8q4 0 8 -2q2 -2 3 -2t3 -5l43 -104v-4q2 -2 2 -6v6l1 2l1 2q6 14 12.5 26.5t12.5 24.5
q4 17 10 29l12 24q0 5 2 5t2 2q2 2 3.5 2h5.5h8q-8 -17 -15.5 -34.5t-17.5 -33.5q-6 -20 -13 -36.5t-16 -35.5h-14zM1171 438v-45h58v-14h-58v-47h68v-17h-84v140h84v-17h-68zM1341 381q-2 -2 -10 -4l47 -62h-10q-2 0 -5 1l-3 1q-2 2 -4 3.5t-4 5.5l-39 51h-25v-62h-14v140
h51h5t7 -2q9 -2 15 -9q2 -4 4 -7t4 -7q2 -2 2 -7v-5v-9t-2 -6q0 -4 -2 -8t-4 -6l-4 -4t-9 -4zM1325 389q4 0 6 4q2 0 4 1t4 1l3 6t4 5q0 2 1 4t1 8l-1 2t-1 6q-3 2 -4 3t-3 5q-2 0 -4 1t-4 3h-6h-37v-49h37zM1452 336q2 2 4 8q2 2 3 6t1 6q0 6 -2 11q-2 0 -3 3t-3 5t-8 4
q-4 0 -6 1l-6 3q-5 0 -9 2t-4 4q-10 0 -14 6q-4 0 -5 4t-3 7v14v9t2 7q0 6 8 10q4 5 6 6t8 3q4 0 6.5 1t8.5 1q2 0 5 -1t5 -1t4 -1l6 -3q2 0 4 -2.5t2 -4.5q4 -2 5 -4t3 -2l-4 -2q-2 -2 -8 -2h-6q-4 2 -4 4h-2h-2h-2h-3h-1h-2h-9q-8 0 -8 -2q-6 -6 -6 -8q-4 0 -4 -8
q0 -6 4 -6q0 -4 2 -6t5 -3.5l3 -1.5q4 -4 6.5 -4t8.5 -4h3t3 -2h4t4 -4h2h1h1q2 0 4 -1l2 -1q4 -4 6 -7t7 -5q2 -10 2 -19v-10t-7 -8q0 -6 -8 -12q-2 -2 -6 -4.5t-8 -4.5t-8 -2h-10q-11 0 -18 2t-13 9q-2 0 -4 2l-4 4q0 2 -1 4l-1 2l2 2l1 1t5 1h2q2 0 4 -1t4 -3q4 -2 6 -4
t6 -2q0 -2 4 -2h7q8 0 10 2q8 0 12 4zM1524 455v-140h-17v140h17zM1579 336q-12 8 -18 20q-5 15 -5 31v7v9q7 11 9 17q6 8 14 16q6 6 12 10q4 5 9.5 6t9.5 3q4 0 8 1t10 1q4 0 9 -1t12 -1q4 -2 8 -3t8 -6l5 -5t7 -5q4 -4 6.5 -7t6.5 -9q2 -6 6 -17q2 -4 3 -9t1 -7
q0 -8 -2 -15t-6 -16q-2 -6 -5.5 -11t-9.5 -9q-6 -6 -11 -9t-11 -8q-10 -4 -27 -4q-8 0 -15 1t-11 3q-17 5 -23 17zM1579 408q-4 -7 -6 -13t-2 -8q0 -4 1 -8t1 -6q2 -8 8 -17q0 -2 2 -4t4 -6l5 -5t10 -3q2 -2 5 -4t5 -2q4 -2 8 -2h8h7t7 2q3 0 7 2l8 4q2 0 5 3l5 5q2 4 4 6
l4 4q2 4 3 7.5t3 9.5q0 2 1 6t1 8q0 2 -1 8t-5 13q0 4 -4 8t-6 10q-4 2 -8 5t-10 7h-9.5h-11.5h-12h-10q-4 -4 -9.5 -7t-9.5 -5q-2 -6 -5 -10t-3 -8zM1741 315h-17v140h13h5t5 -4l72 -103q2 0 2 -4l2 -2v-2v115h16v-140h-14l-82 115v4h-2v4v-123zM1956 438v-49h57v-12h-57
v-62h-14v140h83v-17h-69zM2114 381q-9 -2 -13 -4l45 -62h-12q-4 0 -8 2q0 2 -1 3.5t-3 5.5l-39 51h-25v-62h-16v140h51h6t8 -2t7.5 -4.5t5.5 -4.5q2 -4 4 -7t6 -7q0 -2 1 -7l1 -5q0 -6 -1 -9t-1 -6l-4 -8t-2 -6zM2101 393q2 0 3 1t3 1q7 8 7 11q2 4 2 12q0 2 -2 8q0 2 -7 8
q-2 0 -3 1l-3 3h-8h-35v-49h35q4 0 8 4zM2281 336q-4 -6 -10 -9t-12 -8q-6 -2 -12 -3t-15 -1q-8 0 -15 1t-13 3q-13 5 -23 17q-4 4 -8 9t-6 11q-2 9 -5 16t-3 15q0 2 1 7t3 9q2 5 3 10t3 7q4 6 7 9t5 7q4 2 8 5t9 5q4 5 8 6t8 3q6 0 9 1t9 1q4 0 9.5 -1t9.5 -1l9 -3t7 -6
q4 -2 8 -5t6 -5q3 -4 6 -7t5 -9q6 -6 8 -17q2 -4 3 -9t1 -7q0 -8 -1 -15t-5 -16q-2 -6 -6 -11t-11 -9zM2232 330h7.5t9.5 2q2 0 5 2t5 4q2 0 6 3t8 5l3 6t3 4q2 4 3.5 7.5t1.5 9.5q2 2 2 6v8q0 2 -1 8t-1 13l-6 8t-5 10q-6 2 -11 5t-9 7h-10.5h-10.5h-11h-11q-6 -4 -9 -7
t-8 -5q-6 -6 -8 -10l-4 -8q-2 -7 -2 -13v-8v-14q0 -6 1 -9.5t5 -7.5q0 -2 3 -4t5 -6q2 -2 5.5 -5t5.5 -3q2 -2 5 -4t9 -2q2 -2 6 -2h8zM2460 453q2 2 3 2h3h12v-140h-14v115l-2 -2v0v-2q-4 -8 -6 -17.5t-7 -15.5q-4 -6 -7 -12l-7 -14q-2 -9 -4 -15l-4 -12q-4 -6 -7 -11
t-5 -14h-15q-10 13 -15 27t-11 27q-4 14 -11.5 28.5t-11.5 28.5v2l-4 2v-115h-16v140h14q6 0 8 -2l2 -2v-5l49 -108q0 -2 2 -2v-4q0 2 1 4t1 4q0 4 5 8l43 98q0 5 1 5t3 2zM74 262h157v-20v-4v-5q0 -4 -2 -6l-4 -4l-106 -145h2v2h4h2h104v-37h-165v12q0 11 2 13q0 2 4 8
q2 2 2 4t2 4t3 4l3 6l94 129h-102v39zM260 262h139v-39h-100v-49h80v-41h-80v-53h100v-37h-139v219zM571 223h-59v-180h-43v180h-63v39h165v-39zM672 262l94 -219h-25q-8 0 -16 4q-4 2 -5 6t-5 8l-13 29h-100l-10 -29q-2 -4 -3 -5t-3 -1q0 -4 -1 -5t-5 -3q-2 0 -4.5 -1
t-4.5 -1q0 -2 -2 -2h-4h-24l94 219h37zM684 129l-27 68q0 2 -1 3t-1 3q0 4 -2 6v-6q0 -2 -2 -3t-2 -3l-26 -68h61zM774 262h139v-39h-100v-55h82v-39h-82v-86h-39v219zM1133 207q4 -6 6 -12.5t6 -12.5q2 -8 2 -15v-13v-17t-2 -14q-4 -6 -6 -13.5t-6 -13.5q-5 -4 -9 -10
l-8 -12q-8 -4 -12 -9.5t-10 -7.5q-7 -6 -14 -8t-13 -4q-8 -2 -15.5 -3t-15.5 -1q-10 0 -21 3t-22 5q-12 6 -19 12.5t-18 12.5q-14 16 -20 35q-6 12 -8 22t-2 23q0 6 1 13t3 15q4 17 12 25q4 8 7 13t7 11q9 5 14 9t11 8t12 6t15 6q6 0 13 1t15 1t15.5 -1t15.5 -1q6 -4 13 -6
t14 -6q6 -4 10 -8t12 -9q4 -6 8 -11t9 -13zM1104 127q2 6 3 12t1 15q0 12 -4 24q-4 10 -8 15.5t-11 9.5q-4 4 -9 8t-11 6q-12 6 -29 6q-16 0 -28 -6q-4 -2 -9.5 -6t-11.5 -8t-9 -9.5t-7 -15.5q-4 -4 -4 -11v-13v-15t4 -12q4 -8 7 -14.5t9 -10.5t11.5 -8t9.5 -8q8 -2 14 -4
t14 -2t14.5 2t14.5 4q6 4 11 8t9 8q7 4 11 10.5t8 14.5zM1329 262h39v-219h-37l-102 147q-2 0 -2 1.5t-2 3.5q-2 4 -2 6q-4 0 -4 4l-1 1t-4 3v-166h-38v219h34q4 0 8.5 -1t4.5 -3l6 -3t4 -3q10 -16 21.5 -31.5t21.5 -34.5q12 -14 23.5 -29.5t25.5 -29.5q0 -4 1 -6t1 -6
q0 -2 1 -4t1 -5v156zM1389 262h165v-39h-65v-180h-39v180h-61v39zM1690 150q2 -5 5 -9t5 -8q0 -4 2 -9t2 -13q0 -13 -6 -27l-8 -12t-9 -11q-8 -4 -12 -8t-12 -6t-15.5 -4t-13.5 -2q-8 0 -15 2t-18 4q-6 2 -11 6t-13 13q-4 2 -6 5t-4 7q-5 2 -5 12l1.5 1t3.5 3q2 0 2 1t2 1
t4 1l2 1h10h3t3 -2q6 0 10 -2q5 -4 9 -6t6 -4q2 0 6 -2t10 -2q2 0 5 1t7 3q7 2 13 6l8 8q2 4 4 6t2 7q0 8 -6 12q-4 6 -8 6q-4 4 -7.5 5t-5.5 1q-6 2 -16 8q-4 0 -9 1t-9 6q-9 2 -13 5t-8 7q-6 4 -9 8t-5 8q-6 12 -6 25q0 18 6 26q2 7 6 11t10 8q4 4 9.5 6t13.5 6q4 0 10 1
t14 1q4 0 8.5 -1t10.5 -1q4 -2 7 -4t9 -4q2 -2 6 -5t8 -7q3 -2 6 -5.5t5 -7.5l-8 -4l-6 -4t-3 -4h-8h-4h-4h-2q-6 0 -6 2l-8 4q-3 0 -4 1l-1 1h-6h-12q-4 0 -5 -1t-5 -3q-2 -2 -4 -8q-2 -2 -2 -8t2 -6q2 -2 3 -4.5t1 -6.5q4 0 7 -1t5 -1q6 -2 11 -4t7 -4l11 -2q4 -4 9 -5
t11 -7q10 -2 17 -12zM1755 80q6 0 6 -6q2 0 2 -3v-5q0 -7 -2 -11q0 -4 -6 -8q-4 0 -6 -4q-2 0 -4 -1t-6 -1q-2 0 -4 1t-4 1q-2 2 -4.5 3t-4.5 1q-2 2 -3 4t-3 4q-2 4 -2 11v5t2 3q2 4 3 5t3 1q7 6 9 6q2 2 4 3t4 1q4 0 6 -1t4 -3q2 0 6 -6zM1839 203q-8 -8 -16 -25
q-2 -4 -4 -11t-2 -13q0 -9 2 -15l4 -12q4 -8 7 -14.5t9 -10.5q4 -4 9 -8t14 -8q8 -2 14 -4t14 -2q6 0 10.5 2t10.5 2q4 2 9 5t9 7q4 0 8 2h7h6t6 -2q6 -2 10 -6l6 -10q-6 -8 -16 -14q-6 -5 -10 -8t-11 -5q-6 -4 -11 -5t-11 -3t-11.5 -3t-11.5 -1q-14 0 -24.5 3t-20.5 5
q-20 10 -35 25q-16 16 -24 35q-2 12 -5 22t-3 23q0 6 1 13t3 15q2 6 4 12.5t6 12.5q6 8 9 13t9 11q7 5 12 9t13 8q4 4 10 6t17 6q4 0 12 1t16 1h11.5t11.5 -2t11 -4t11 -4q7 -2 11 -5t10 -7q10 -9 16 -17l-6 -8l-5 -5t-5 -3h-7h-5h-8t-7 2q-4 4 -9 7t-9 5q-6 2 -10.5 2
h-10.5q-16 0 -28 -6q-9 -2 -14 -6t-9 -8zM2195 207q3 -6 6 -12.5t5 -12.5q2 -8 2 -15v-13v-17t-2 -14t-5 -13.5t-6 -13.5q-8 -10 -16 -22q-8 -4 -14 -9.5t-11 -7.5q-6 -6 -13 -8t-15 -4q-6 -2 -13.5 -3t-15.5 -1q-20 0 -43 8q-8 6 -17 12.5t-16 12.5q-8 8 -14 16t-10 19
q-4 12 -6 22t-2 23q0 6 1 13t1 15q2 6 6 12.5t6 12.5q4 8 8 13t10 11q4 5 10.5 9t12.5 8q4 4 11 6t13 6q9 0 16 1t13 1q8 0 15.5 -1t13.5 -1q8 -4 15 -6t13 -6q5 -4 11 -8t14 -9q2 -6 8 -11t8 -13zM2165 127q4 10 4 27q0 6 -1 13t-3 11q-4 10 -7.5 15.5t-7.5 9.5
q-10 10 -24 14q-6 4 -13.5 5t-15.5 1q-14 0 -26 -6q-7 -2 -12 -6t-11 -8q-4 -4 -8 -9.5t-8 -15.5q-2 -4 -3 -11t-1 -13q0 -9 1 -15t3 -12q8 -16 16 -25q6 -4 11 -8t12 -8q6 -2 14 -4t12 -2q8 0 15.5 2t13.5 4q6 4 13 8t11 8q9 9 15 25zM2433 260l1 1t5 1h39v-219h-39v160
q0 -2 -1 -4l-3 -6v-7t-2 -4q-6 -18 -14.5 -35.5t-14.5 -33.5q-6 -17 -13 -34.5t-13 -35.5h-39l-55 139q-3 2 -3 11q-2 4 -3 5t-1 3v-158h-41v219h39q4 0 6.5 -1l2.5 -1q4 -2 5 -2t3 -2l6 -4l4 -4t2 -4q4 -17 11 -32t14 -34q6 -16 13 -32.5t13 -32.5v-2v-5v-4q4 0 4 -4v4v4
q0 3 1 5l1 2l9 16l45 115q0 2 1 4t1 4q2 2 5 3l3 1q2 2 4 2t4 2z" />
    <glyph glyph-name="four" unicode="4" horiz-adv-x="2531" 
d="M1929 721q4 -4 8.5 -9t6.5 -10q0 -6 1 -11t1 -11q0 -12 -2 -23q-2 -6 -6.5 -10t-8.5 -6q-4 -4 -8 -7t-8 -7q-12 -4 -23 -4q-6 0 -12 1t-10 3l-10.5 7t-8.5 7q-4 2 -7 6t-3 10q-4 7 -5 12t-1 11q0 10 6 22q0 5 3 10t7 9t8.5 7t10.5 5q8 4 22 4q6 0 10.5 -1t12.5 -3
q4 -2 8 -5t8 -7zM518 702q0 -2 -4 -8q-2 0 -3 -2t-5 -2q-2 -2 -8 -2h-33v47h33q4 0 8 -2q4 0 5 -1l3 -3l4 -8q2 -2 2 -10q0 -6 -2 -9zM801 721q4 -4 8 -9t6 -10q2 -6 3 -11t1 -11t-1 -11t-3 -12q-2 -6 -6 -10t-8 -6q-2 -4 -6 -7t-11 -7q-4 -2 -10 -3t-12 -1q-12 0 -23 4
q-4 4 -9 7t-9 7l-6 6t-6 10q-2 7 -4.5 12t-2.5 11q0 10 7 22q2 5 6 10t6 9q4 4 9 7t9 5q6 2 12.5 3t10.5 1q12 0 22 -4q7 -2 11 -5t6 -7zM1090 733q0 -4 1 -6t1 -4l28 -64h-59l29 64v4v6zM270 729q2 -2 3 -5t3 -5q3 -4 3 -10v-5.5t-3 -5.5q-2 -2 -3 -5t-3 -3l-8 -8h-10h-37
v53h37q6 0 10 -2q2 0 5 -2zM2478 1092v-586h-2404v586h911q0 30 5 58t18 54q12 27 27.5 51.5t37.5 42.5q37 39 90 62q29 12 56.5 17t56.5 5q33 0 61.5 -6t53.5 -18q28 -12 51.5 -28.5t42.5 -35.5q37 -37 61 -94q21 -53 21 -108h911zM1030 1192q-22 -47 -22 -100
q0 -58 22 -105q10 -22 24.5 -44.5t30.5 -41.5q19 -18 40.5 -32.5t45.5 -24.5q48 -23 105 -23q29 0 54.5 4t49.5 15q25 12 45.5 25.5t38.5 33.5q19 19 33 40.5t27 43.5q22 51 22 109q0 22 -4 45.5t-14 44.5q-12 41 -41 75q-14 17 -30.5 31.5t-33.5 24.5q-18 10 -37.5 19
t-39.5 18q-15 4 -32.5 6t-37.5 2q-29 0 -55.5 -5t-51.5 -18q-49 -18 -86 -57q-16 -18 -29.5 -41t-23.5 -45zM295 690q6 10 6 19q0 4 -1 9t-5 11q0 2 -4 6l-6 6q-2 4 -5.5 7.5t-9.5 3.5q-4 2 -9 4t-9 2h-53v-154h16v58h37q4 0 9 1t9 3q11 4 15 8q2 4 6 8t4 8zM410 758h-95
v-154h95v19h-72v47h59v20h-59v45h72v23zM559 604l-47 66q2 2 5 2t5 4q8 4 10 10q3 2 5 5t4 7v13v10t-2 8q-4 8 -11 14q-4 9 -14 9q-2 2 -7 4t-9 2h-56v-154h23v64h22l41 -56q2 -4 7 -6q2 -2 4 -2h6h14zM664 631q0 4 1 8t1 8q0 12 -4.5 20.5t-12.5 14.5q-2 0 -3 2t-5 4h-1
t-5 2h-2t-2 4q-6 0 -8 2q-7 0 -9 1l-6 3q-8 2 -8 5q-6 4 -6 6v8v8q2 0 4 2t2 4l3 1t5 1q4 2 6 2h4l2.5 -1t4.5 -1q8 0 8 -4q2 -2 4 -2h4q8 0 14 4l4 2q0 2 -2 4l-4 4q-4 2 -6 4.5t-6 4.5q-2 0 -4 1t-6 5q-6 0 -7 1t-6 1q-4 0 -9 -1t-9 -1q-4 -4 -7 -6t-7 -2q-2 -5 -5 -8
t-6 -7q-2 -4 -3 -7t-1 -9v-9t4 -8q3 -4 6 -7t3 -5q4 -2 8 -5t8 -3q4 -2 7 -4t7 -4q2 -2 5.5 -2h5.5q6 -2 7 -2t3 -2q4 -2 4 -3t2 -6q2 -2 2 -5v-7v-3t-2 -5q-2 -4 -2 -5t-4 -3q-2 -4 -5 -5t-5 -3h-5.5h-5.5h-7h-5q-2 2 -5 3t-3 5l-2 2q-6 4 -12 4h-4.5t-4.5 -2l-6 -2
q0 -4 2 -4q0 -4 4 -6q0 -2 2 -5l2 -2h3q8 -8 17 -10t19 -2h9.5t9.5 2t9 4t7 6q6 2 9.5 5.5t5.5 9.5zM838 659q2 7 2 11v10q0 12 -2 20q0 7 -3.5 11t-5.5 10q-4 6 -12 14q-4 4 -8 6t-10 9q-2 0 -6.5 2t-10.5 6q-6 0 -10 1t-10 1q-4 0 -10.5 -1t-10.5 -1q-6 -4 -10 -6t-8 -2
q-4 -7 -8 -9t-8 -6q-5 -4 -8 -7t-5 -7q-4 -6 -5 -10t-3 -11q-2 -8 -2 -20q0 -8 2 -15.5t4 -15.5q2 -6 6 -12t11 -14q6 -5 12 -9t14 -4q12 -6 29 -6h10h10q11 4 17 8q14 6 18 11q6 8 12 18q2 4 5.5 9t3.5 9zM997 758h-20v-119q0 2 -1 5l-1 3l-74 105q-4 0 -8 6h-4h-4h-15
v-154h21v129v-4l2 -2v0v-4l88 -119h16v154zM1169 604l-67 154h-23l-65 -154h12q6 0 8 2l3 3t5 3l9 27h79l11 -27q2 -4 6 -6q0 -2 8 -2h14zM1270 623h-66v135h-22v-154h88v19zM1479 758h-21v-92v-11t-2 -8q-2 -8 -10 -12q-2 -2 -5 -4t-5 -6q-6 -2 -9.5 -2h-7.5q-10 0 -14 2
q-6 4 -10 6t-4 4q-2 2 -4.5 5t-6.5 7q0 4 -1 8t-1 11v92h-20v-92v-12t2 -7q0 -8 4 -14q4 -10 12 -15q2 -2 5 -4t8 -4q2 -2 6 -3t6 -3q6 0 9 -2t9 -2q4 0 7.5 2t9.5 2q4 2 7 3t7 3l12 8q4 5 5 8t3 7q3 2 6 6t3 8v19v92zM1597 631q7 8 7 16q0 12 -4.5 20.5t-12.5 14.5
q-6 4 -6 6h-5t-5 2h-3t-5 4h-2t-5 2q-2 0 -4 1l-6 3q-8 2 -8 5q-4 2 -5 4t-3 2q0 2 -1 3t-1 5t4 8l6 6q2 0 3 1t5 1q0 2 10 2l2.5 -1t4.5 -1q2 -2 8 -4q8 -2 10 -2q6 0 8 4l6 2l-4 4l-4 4q0 2 -3 4.5t-5 4.5q-4 0 -6 1t-6 5q-4 0 -7.5 1l-3.5 1q-6 0 -10 -1t-8 -1
q-4 -4 -8 -6t-6 -2q-4 -5 -6 -8t-7 -7q0 -4 -2 -7t-2 -9t2 -9t2 -8q5 -8 11 -12q4 -2 7 -5t5 -3q6 -2 9 -4t7 -4t6.5 -2h4.5q2 -2 5 -2t5 -2t5 -3t3 -6q2 -2 2 -5v-7v-3t-2 -5q-2 -6 -8 -8q-4 -4 -6 -5t-4 -3h-6h-5h-7h-5q-4 2 -10 8v2q-6 4 -12 4h-3.5t-5.5 -2l-6 -2
q2 -2 2 -3t2 -1q0 -2 1 -3t1 -3l1 -1t1 -4q4 -2 7 -2q6 -8 15 -10t19 -2h10.5t10.5 2l8 4t8 6q2 2 5 5.5t5 9.5zM1722 758h-94v-154h94v19h-73v47h61v20h-61v45h73v23zM1966 659v11v10v11v9q-4 11 -10 21q-4 6 -12 14q-2 4 -6.5 6t-8.5 9q-4 0 -9 2t-9 6q-6 0 -10.5 1
t-10.5 1t-11 -1t-9 -1q-12 -6 -21 -8q-4 -7 -7 -9t-7 -6l-7 -7l-7 -7q-2 -6 -4 -10t-2 -11q-5 -8 -5 -20q0 -8 2.5 -15.5t4.5 -15.5q6 -14 18 -26q4 -5 10 -9t15 -4q12 -6 30 -6h10.5h10.5q4 2 9 4t9 4q4 4 8.5 6.5t6.5 4.5q8 8 12 18q6 8 10 18zM2126 758h-23v-119
q0 2 -1 5t-3 3l-74 105l-1 1t-3 5h-5h-5h-16v-154h24v129v-4v-2v-2l2 -2l86 -119h19v154zM2251 623h-66v135h-22v-154h88v19zM2374 758h-19q-4 0 -8 -4q-8 -4 -8 -9l-35 -47l-2 -2h-2v-2v2l-2 2l-37 47q-2 5 -6 9t-10 4h-17l56 -76l2 -2q0 -2 2 -2v-2v-2q0 -2 2 -2v-2v-66
h22v66v2v4q2 0 2 4v2h2zM1188 864q-19 8 -38.5 19.5t-33.5 25.5h322q-17 -14 -35.5 -25.5t-38.5 -19.5q-21 -6 -43.5 -12t-44.5 -6q-25 0 -46.5 6t-41.5 12zM1141 936l315 317q29 -39 45.5 -79.5t16.5 -81.5q0 -23 -3.5 -44.5t-11.5 -41.5q-8 -19 -18 -36.5t-23 -33.5h-321z
M1094 928q-27 35 -45 73q-7 21 -11 43.5t-4 47.5q0 20 4 40.5t11 41.5q6 18 16 35.5t25 33.5h319zM1364 1315q20 -8 38.5 -20.5t33.5 -22.5h-324q37 28 76 43q39 18 88 18t88 -18zM78 350q-4 4 -5 8t-3 9q-2 6 -3 10t-1 10t4 16q2 5 3 10t5 7l3 9t7 7q0 2 5 5t7 5q6 5 9.5 6
t9.5 3q2 0 8 1t10 1q8 0 14.5 -1t14.5 -5q8 -2 13 -6.5t9 -8.5q-2 -2 -4 -2v-4h-2h-2h-4h-6q-4 2 -8 5t-8 3h-7.5h-9.5h-10h-8q-8 -4 -12.5 -7t-8.5 -5q-4 -6 -7 -10t-5 -8q-4 -7 -4 -13v-8q0 -8 2 -14t3 -9.5t1 -7.5q2 -2 5 -4t5 -6q4 -2 6 -5t7 -3q2 -2 6 -4t8 -2
q2 -2 6 -2h6h10.5t8.5 2q4 0 9 2t9 4v29h-12h-2l-2 2l-3 3l-3 3l-1 1t-1 3v1v3v0h38v-53l-5 -5t-5 -6q-6 -2 -12 -2q-6 -2 -14 -2h-15h-10h-8q-6 2 -9.5 4.5t-9.5 6.5q-2 0 -7 3t-5 7q-6 2 -7 6t-3 8zM240 438v-45h55v-14h-55v-47h67v-17h-84v140h84v-17h-67zM369 315v123
h-45v17h106v-17h-47v-123h-14zM532 438v-49h60v-12h-60v-62h-16v140h84v-17h-68zM641 455v-86q0 -4 2 -7.5t4 -5.5q2 -6 5 -9t5 -7q0 -2 3.5 -4t5.5 -4q6 -2 10 -2h8h7t5 2q6 2 9.5 4t7.5 4q0 4 3 7t5 9q4 4 4 13v86h14v-86q0 -7 -1 -11t-3 -10t-5 -10t-7 -8t-8 -7.5
t-8 -5.5q-13 -2 -23 -2q-12 0 -25 2q-2 2 -7 5.5t-9 7.5q-6 6 -10 18q-2 6 -4 10t-2 11v86h14zM784 455v-123h62v-17h-78v140h16zM877 455v-123h65v-17h-80v140h15zM1069 315l-61 140h8q4 0 8 -2q2 -2 3 -2t3 -5l43 -104v-4q2 -2 2 -6v6l1 2l1 2q6 14 12.5 26.5t12.5 24.5
q4 17 10 29l12 24q0 5 2 5t2 2q2 2 3.5 2h5.5h8q-8 -17 -15.5 -34.5t-17.5 -33.5q-6 -20 -13 -36.5t-16 -35.5h-14zM1171 438v-45h58v-14h-58v-47h68v-17h-84v140h84v-17h-68zM1341 381q-2 -2 -10 -4l47 -62h-10q-2 0 -5 1l-3 1q-2 2 -4 3.5t-4 5.5l-39 51h-25v-62h-14v140
h51h5t7 -2q9 -2 15 -9q2 -4 4 -7t4 -7q2 -2 2 -7v-5v-9t-2 -6q0 -4 -2 -8t-4 -6l-4 -4t-9 -4zM1325 389q4 0 6 4q2 0 4 1t4 1l3 6t4 5q0 2 1 4t1 8l-1 2t-1 6q-3 2 -4 3t-3 5q-2 0 -4 1t-4 3h-6h-37v-49h37zM1452 336q2 2 4 8q2 2 3 6t1 6q0 6 -2 11q-2 0 -3 3t-3 5t-8 4
q-4 0 -6 1l-6 3q-5 0 -9 2t-4 4q-10 0 -14 6q-4 0 -5 4t-3 7v14v9t2 7q0 6 8 10q4 5 6 6t8 3q4 0 6.5 1t8.5 1q2 0 5 -1t5 -1t4 -1l6 -3q2 0 4 -2.5t2 -4.5q4 -2 5 -4t3 -2l-4 -2q-2 -2 -8 -2h-6q-4 2 -4 4h-2h-2h-2h-3h-1h-2h-9q-8 0 -8 -2q-6 -6 -6 -8q-4 0 -4 -8
q0 -6 4 -6q0 -4 2 -6t5 -3.5l3 -1.5q4 -4 6.5 -4t8.5 -4h3t3 -2h4t4 -4h2h1h1q2 0 4 -1l2 -1q4 -4 6 -7t7 -5q2 -10 2 -19v-10t-7 -8q0 -6 -8 -12q-2 -2 -6 -4.5t-8 -4.5t-8 -2h-10q-11 0 -18 2t-13 9q-2 0 -4 2l-4 4q0 2 -1 4l-1 2l2 2l1 1t5 1h2q2 0 4 -1t4 -3q4 -2 6 -4
t6 -2q0 -2 4 -2h7q8 0 10 2q8 0 12 4zM1524 455v-140h-17v140h17zM1579 336q-12 8 -18 20q-5 15 -5 31v7v9q7 11 9 17q6 8 14 16q6 6 12 10q4 5 9.5 6t9.5 3q4 0 8 1t10 1q4 0 9 -1t12 -1q4 -2 8 -3t8 -6l5 -5t7 -5q4 -4 6.5 -7t6.5 -9q2 -6 6 -17q2 -4 3 -9t1 -7
q0 -8 -2 -15t-6 -16q-2 -6 -5.5 -11t-9.5 -9q-6 -6 -11 -9t-11 -8q-10 -4 -27 -4q-8 0 -15 1t-11 3q-17 5 -23 17zM1579 408q-4 -7 -6 -13t-2 -8q0 -4 1 -8t1 -6q2 -8 8 -17q0 -2 2 -4t4 -6l5 -5t10 -3q2 -2 5 -4t5 -2q4 -2 8 -2h8h7t7 2q3 0 7 2l8 4q2 0 5 3l5 5q2 4 4 6
l4 4q2 4 3 7.5t3 9.5q0 2 1 6t1 8q0 2 -1 8t-5 13q0 4 -4 8t-6 10q-4 2 -8 5t-10 7h-9.5h-11.5h-12h-10q-4 -4 -9.5 -7t-9.5 -5q-2 -6 -5 -10t-3 -8zM1741 315h-17v140h13h5t5 -4l72 -103q2 0 2 -4l2 -2v-2v115h16v-140h-14l-82 115v4h-2v4v-123zM1956 438v-49h57v-12h-57
v-62h-14v140h83v-17h-69zM2114 381q-9 -2 -13 -4l45 -62h-12q-4 0 -8 2q0 2 -1 3.5t-3 5.5l-39 51h-25v-62h-16v140h51h6t8 -2t7.5 -4.5t5.5 -4.5q2 -4 4 -7t6 -7q0 -2 1 -7l1 -5q0 -6 -1 -9t-1 -6l-4 -8t-2 -6zM2101 393q2 0 3 1t3 1q7 8 7 11q2 4 2 12q0 2 -2 8q0 2 -7 8
q-2 0 -3 1l-3 3h-8h-35v-49h35q4 0 8 4zM2281 336q-4 -6 -10 -9t-12 -8q-6 -2 -12 -3t-15 -1q-8 0 -15 1t-13 3q-13 5 -23 17q-4 4 -8 9t-6 11q-2 9 -5 16t-3 15q0 2 1 7t3 9q2 5 3 10t3 7q4 6 7 9t5 7q4 2 8 5t9 5q4 5 8 6t8 3q6 0 9 1t9 1q4 0 9.5 -1t9.5 -1l9 -3t7 -6
q4 -2 8 -5t6 -5q3 -4 6 -7t5 -9q6 -6 8 -17q2 -4 3 -9t1 -7q0 -8 -1 -15t-5 -16q-2 -6 -6 -11t-11 -9zM2232 330h7.5t9.5 2q2 0 5 2t5 4q2 0 6 3t8 5l3 6t3 4q2 4 3.5 7.5t1.5 9.5q2 2 2 6v8q0 2 -1 8t-1 13l-6 8t-5 10q-6 2 -11 5t-9 7h-10.5h-10.5h-11h-11q-6 -4 -9 -7
t-8 -5q-6 -6 -8 -10l-4 -8q-2 -7 -2 -13v-8v-14q0 -6 1 -9.5t5 -7.5q0 -2 3 -4t5 -6q2 -2 5.5 -5t5.5 -3q2 -2 5 -4t9 -2q2 -2 6 -2h8zM2460 453q2 2 3 2h3h12v-140h-14v115l-2 -2v0v-2q-4 -8 -6 -17.5t-7 -15.5q-4 -6 -7 -12l-7 -14q-2 -9 -4 -15l-4 -12q-4 -6 -7 -11
t-5 -14h-15q-10 13 -15 27t-11 27q-4 14 -11.5 28.5t-11.5 28.5v2l-4 2v-115h-16v140h14q6 0 8 -2l2 -2v-5l49 -108q0 -2 2 -2v-4q0 2 1 4t1 4q0 4 5 8l43 98q0 5 1 5t3 2zM74 262h157v-20v-4v-5q0 -4 -2 -6l-4 -4l-106 -145h2v2h4h2h104v-37h-165v12q0 11 2 13q0 2 4 8
q2 2 2 4t2 4t3 4l3 6l94 129h-102v39zM260 262h139v-39h-100v-49h80v-41h-80v-53h100v-37h-139v219zM571 223h-59v-180h-43v180h-63v39h165v-39zM672 262l94 -219h-25q-8 0 -16 4q-4 2 -5 6t-5 8l-13 29h-100l-10 -29q-2 -4 -3 -5t-3 -1q0 -4 -1 -5t-5 -3q-2 0 -4.5 -1
t-4.5 -1q0 -2 -2 -2h-4h-24l94 219h37zM684 129l-27 68q0 2 -1 3t-1 3q0 4 -2 6v-6q0 -2 -2 -3t-2 -3l-26 -68h61zM774 262h139v-39h-100v-55h82v-39h-82v-86h-39v219zM1133 207q4 -6 6 -12.5t6 -12.5q2 -8 2 -15v-13v-17t-2 -14q-4 -6 -6 -13.5t-6 -13.5q-5 -4 -9 -10
l-8 -12q-8 -4 -12 -9.5t-10 -7.5q-7 -6 -14 -8t-13 -4q-8 -2 -15.5 -3t-15.5 -1q-10 0 -21 3t-22 5q-12 6 -19 12.5t-18 12.5q-14 16 -20 35q-6 12 -8 22t-2 23q0 6 1 13t3 15q4 17 12 25q4 8 7 13t7 11q9 5 14 9t11 8t12 6t15 6q6 0 13 1t15 1t15.5 -1t15.5 -1q6 -4 13 -6
t14 -6q6 -4 10 -8t12 -9q4 -6 8 -11t9 -13zM1104 127q2 6 3 12t1 15q0 12 -4 24q-4 10 -8 15.5t-11 9.5q-4 4 -9 8t-11 6q-12 6 -29 6q-16 0 -28 -6q-4 -2 -9.5 -6t-11.5 -8t-9 -9.5t-7 -15.5q-4 -4 -4 -11v-13v-15t4 -12q4 -8 7 -14.5t9 -10.5t11.5 -8t9.5 -8q8 -2 14 -4
t14 -2t14.5 2t14.5 4q6 4 11 8t9 8q7 4 11 10.5t8 14.5zM1329 262h39v-219h-37l-102 147q-2 0 -2 1.5t-2 3.5q-2 4 -2 6q-4 0 -4 4l-1 1t-4 3v-166h-38v219h34q4 0 8.5 -1t4.5 -3l6 -3t4 -3q10 -16 21.5 -31.5t21.5 -34.5q12 -14 23.5 -29.5t25.5 -29.5q0 -4 1 -6t1 -6
q0 -2 1 -4t1 -5v156zM1389 262h165v-39h-65v-180h-39v180h-61v39zM1690 150q2 -5 5 -9t5 -8q0 -4 2 -9t2 -13q0 -13 -6 -27l-8 -12t-9 -11q-8 -4 -12 -8t-12 -6t-15.5 -4t-13.5 -2q-8 0 -15 2t-18 4q-6 2 -11 6t-13 13q-4 2 -6 5t-4 7q-5 2 -5 12l1.5 1t3.5 3q2 0 2 1t2 1
t4 1l2 1h10h3t3 -2q6 0 10 -2q5 -4 9 -6t6 -4q2 0 6 -2t10 -2q2 0 5 1t7 3q7 2 13 6l8 8q2 4 4 6t2 7q0 8 -6 12q-4 6 -8 6q-4 4 -7.5 5t-5.5 1q-6 2 -16 8q-4 0 -9 1t-9 6q-9 2 -13 5t-8 7q-6 4 -9 8t-5 8q-6 12 -6 25q0 18 6 26q2 7 6 11t10 8q4 4 9.5 6t13.5 6q4 0 10 1
t14 1q4 0 8.5 -1t10.5 -1q4 -2 7 -4t9 -4q2 -2 6 -5t8 -7q3 -2 6 -5.5t5 -7.5l-8 -4l-6 -4t-3 -4h-8h-4h-4h-2q-6 0 -6 2l-8 4q-3 0 -4 1l-1 1h-6h-12q-4 0 -5 -1t-5 -3q-2 -2 -4 -8q-2 -2 -2 -8t2 -6q2 -2 3 -4.5t1 -6.5q4 0 7 -1t5 -1q6 -2 11 -4t7 -4l11 -2q4 -4 9 -5
t11 -7q10 -2 17 -12zM1755 80q6 0 6 -6q2 0 2 -3v-5q0 -7 -2 -11q0 -4 -6 -8q-4 0 -6 -4q-2 0 -4 -1t-6 -1q-2 0 -4 1t-4 1q-2 2 -4.5 3t-4.5 1q-2 2 -3 4t-3 4q-2 4 -2 11v5t2 3q2 4 3 5t3 1q7 6 9 6q2 2 4 3t4 1q4 0 6 -1t4 -3q2 0 6 -6zM1839 203q-8 -8 -16 -25
q-2 -4 -4 -11t-2 -13q0 -9 2 -15l4 -12q4 -8 7 -14.5t9 -10.5q4 -4 9 -8t14 -8q8 -2 14 -4t14 -2q6 0 10.5 2t10.5 2q4 2 9 5t9 7q4 0 8 2h7h6t6 -2q6 -2 10 -6l6 -10q-6 -8 -16 -14q-6 -5 -10 -8t-11 -5q-6 -4 -11 -5t-11 -3t-11.5 -3t-11.5 -1q-14 0 -24.5 3t-20.5 5
q-20 10 -35 25q-16 16 -24 35q-2 12 -5 22t-3 23q0 6 1 13t3 15q2 6 4 12.5t6 12.5q6 8 9 13t9 11q7 5 12 9t13 8q4 4 10 6t17 6q4 0 12 1t16 1h11.5t11.5 -2t11 -4t11 -4q7 -2 11 -5t10 -7q10 -9 16 -17l-6 -8l-5 -5t-5 -3h-7h-5h-8t-7 2q-4 4 -9 7t-9 5q-6 2 -10.5 2
h-10.5q-16 0 -28 -6q-9 -2 -14 -6t-9 -8zM2195 207q3 -6 6 -12.5t5 -12.5q2 -8 2 -15v-13v-17t-2 -14t-5 -13.5t-6 -13.5q-8 -10 -16 -22q-8 -4 -14 -9.5t-11 -7.5q-6 -6 -13 -8t-15 -4q-6 -2 -13.5 -3t-15.5 -1q-20 0 -43 8q-8 6 -17 12.5t-16 12.5q-8 8 -14 16t-10 19
q-4 12 -6 22t-2 23q0 6 1 13t1 15q2 6 6 12.5t6 12.5q4 8 8 13t10 11q4 5 10.5 9t12.5 8q4 4 11 6t13 6q9 0 16 1t13 1q8 0 15.5 -1t13.5 -1q8 -4 15 -6t13 -6q5 -4 11 -8t14 -9q2 -6 8 -11t8 -13zM2165 127q4 10 4 27q0 6 -1 13t-3 11q-4 10 -7.5 15.5t-7.5 9.5
q-10 10 -24 14q-6 4 -13.5 5t-15.5 1q-14 0 -26 -6q-7 -2 -12 -6t-11 -8q-4 -4 -8 -9.5t-8 -15.5q-2 -4 -3 -11t-1 -13q0 -9 1 -15t3 -12q8 -16 16 -25q6 -4 11 -8t12 -8q6 -2 14 -4t12 -2q8 0 15.5 2t13.5 4q6 4 13 8t11 8q9 9 15 25zM2433 260l1 1t5 1h39v-219h-39v160
q0 -2 -1 -4l-3 -6v-7t-2 -4q-6 -18 -14.5 -35.5t-14.5 -33.5q-6 -17 -13 -34.5t-13 -35.5h-39l-55 139q-3 2 -3 11q-2 4 -3 5t-1 3v-158h-41v219h39q4 0 6.5 -1l2.5 -1q4 -2 5 -2t3 -2l6 -4l4 -4t2 -4q4 -17 11 -32t14 -34q6 -16 13 -32.5t13 -32.5v-2v-5v-4q4 0 4 -4v4v4
q0 3 1 5l1 2l9 16l45 115q0 2 1 4t1 4q2 2 5 3l3 1q2 2 4 2t4 2z" />
    <glyph glyph-name="five" unicode="5" horiz-adv-x="2531" 
d="M1929 721q4 -4 8.5 -9t6.5 -10q0 -6 1 -11t1 -11q0 -12 -2 -23q-2 -6 -6.5 -10t-8.5 -6q-4 -4 -8 -7t-8 -7q-12 -4 -23 -4q-6 0 -12 1t-10 3l-10.5 7t-8.5 7q-4 2 -7 6t-3 10q-4 7 -5 12t-1 11q0 10 6 22q0 5 3 10t7 9t8.5 7t10.5 5q8 4 22 4q6 0 10.5 -1t12.5 -3
q4 -2 8 -5t8 -7zM518 702q0 -2 -4 -8q-2 0 -3 -2t-5 -2q-2 -2 -8 -2h-33v47h33q4 0 8 -2q4 0 5 -1l3 -3l4 -8q2 -2 2 -10q0 -6 -2 -9zM801 721q4 -4 8 -9t6 -10q2 -6 3 -11t1 -11t-1 -11t-3 -12q-2 -6 -6 -10t-8 -6q-2 -4 -6 -7t-11 -7q-4 -2 -10 -3t-12 -1q-12 0 -23 4
q-4 4 -9 7t-9 7l-6 6t-6 10q-2 7 -4.5 12t-2.5 11q0 10 7 22q2 5 6 10t6 9q4 4 9 7t9 5q6 2 12.5 3t10.5 1q12 0 22 -4q7 -2 11 -5t6 -7zM1090 733q0 -4 1 -6t1 -4l28 -64h-59l29 64v4v6zM270 729q2 -2 3 -5t3 -5q3 -4 3 -10v-5.5t-3 -5.5q-2 -2 -3 -5t-3 -3l-8 -8h-10h-37
v53h37q6 0 10 -2q2 0 5 -2zM2478 1092v-586h-2404v586h911q0 30 5 58t18 54q12 27 27.5 51.5t37.5 42.5q37 39 90 62q29 12 56.5 17t56.5 5q33 0 61.5 -6t53.5 -18q28 -12 51.5 -28.5t42.5 -35.5q37 -37 61 -94q21 -53 21 -108h911zM1030 1192q-22 -47 -22 -100
q0 -58 22 -105q10 -22 24.5 -44.5t30.5 -41.5q19 -18 40.5 -32.5t45.5 -24.5q48 -23 105 -23q29 0 54.5 4t49.5 15q25 12 45.5 25.5t38.5 33.5q19 19 33 40.5t27 43.5q22 51 22 109q0 22 -4 45.5t-14 44.5q-12 41 -41 75q-14 17 -30.5 31.5t-33.5 24.5q-18 10 -37.5 19
t-39.5 18q-15 4 -32.5 6t-37.5 2q-29 0 -55.5 -5t-51.5 -18q-49 -18 -86 -57q-16 -18 -29.5 -41t-23.5 -45zM295 690q6 10 6 19q0 4 -1 9t-5 11q0 2 -4 6l-6 6q-2 4 -5.5 7.5t-9.5 3.5q-4 2 -9 4t-9 2h-53v-154h16v58h37q4 0 9 1t9 3q11 4 15 8q2 4 6 8t4 8zM410 758h-95
v-154h95v19h-72v47h59v20h-59v45h72v23zM559 604l-47 66q2 2 5 2t5 4q8 4 10 10q3 2 5 5t4 7v13v10t-2 8q-4 8 -11 14q-4 9 -14 9q-2 2 -7 4t-9 2h-56v-154h23v64h22l41 -56q2 -4 7 -6q2 -2 4 -2h6h14zM664 631q0 4 1 8t1 8q0 12 -4.5 20.5t-12.5 14.5q-2 0 -3 2t-5 4h-1
t-5 2h-2t-2 4q-6 0 -8 2q-7 0 -9 1l-6 3q-8 2 -8 5q-6 4 -6 6v8v8q2 0 4 2t2 4l3 1t5 1q4 2 6 2h4l2.5 -1t4.5 -1q8 0 8 -4q2 -2 4 -2h4q8 0 14 4l4 2q0 2 -2 4l-4 4q-4 2 -6 4.5t-6 4.5q-2 0 -4 1t-6 5q-6 0 -7 1t-6 1q-4 0 -9 -1t-9 -1q-4 -4 -7 -6t-7 -2q-2 -5 -5 -8
t-6 -7q-2 -4 -3 -7t-1 -9v-9t4 -8q3 -4 6 -7t3 -5q4 -2 8 -5t8 -3q4 -2 7 -4t7 -4q2 -2 5.5 -2h5.5q6 -2 7 -2t3 -2q4 -2 4 -3t2 -6q2 -2 2 -5v-7v-3t-2 -5q-2 -4 -2 -5t-4 -3q-2 -4 -5 -5t-5 -3h-5.5h-5.5h-7h-5q-2 2 -5 3t-3 5l-2 2q-6 4 -12 4h-4.5t-4.5 -2l-6 -2
q0 -4 2 -4q0 -4 4 -6q0 -2 2 -5l2 -2h3q8 -8 17 -10t19 -2h9.5t9.5 2t9 4t7 6q6 2 9.5 5.5t5.5 9.5zM838 659q2 7 2 11v10q0 12 -2 20q0 7 -3.5 11t-5.5 10q-4 6 -12 14q-4 4 -8 6t-10 9q-2 0 -6.5 2t-10.5 6q-6 0 -10 1t-10 1q-4 0 -10.5 -1t-10.5 -1q-6 -4 -10 -6t-8 -2
q-4 -7 -8 -9t-8 -6q-5 -4 -8 -7t-5 -7q-4 -6 -5 -10t-3 -11q-2 -8 -2 -20q0 -8 2 -15.5t4 -15.5q2 -6 6 -12t11 -14q6 -5 12 -9t14 -4q12 -6 29 -6h10h10q11 4 17 8q14 6 18 11q6 8 12 18q2 4 5.5 9t3.5 9zM997 758h-20v-119q0 2 -1 5l-1 3l-74 105q-4 0 -8 6h-4h-4h-15
v-154h21v129v-4l2 -2v0v-4l88 -119h16v154zM1169 604l-67 154h-23l-65 -154h12q6 0 8 2l3 3t5 3l9 27h79l11 -27q2 -4 6 -6q0 -2 8 -2h14zM1270 623h-66v135h-22v-154h88v19zM1479 758h-21v-92v-11t-2 -8q-2 -8 -10 -12q-2 -2 -5 -4t-5 -6q-6 -2 -9.5 -2h-7.5q-10 0 -14 2
q-6 4 -10 6t-4 4q-2 2 -4.5 5t-6.5 7q0 4 -1 8t-1 11v92h-20v-92v-12t2 -7q0 -8 4 -14q4 -10 12 -15q2 -2 5 -4t8 -4q2 -2 6 -3t6 -3q6 0 9 -2t9 -2q4 0 7.5 2t9.5 2q4 2 7 3t7 3l12 8q4 5 5 8t3 7q3 2 6 6t3 8v19v92zM1597 631q7 8 7 16q0 12 -4.5 20.5t-12.5 14.5
q-6 4 -6 6h-5t-5 2h-3t-5 4h-2t-5 2q-2 0 -4 1l-6 3q-8 2 -8 5q-4 2 -5 4t-3 2q0 2 -1 3t-1 5t4 8l6 6q2 0 3 1t5 1q0 2 10 2l2.5 -1t4.5 -1q2 -2 8 -4q8 -2 10 -2q6 0 8 4l6 2l-4 4l-4 4q0 2 -3 4.5t-5 4.5q-4 0 -6 1t-6 5q-4 0 -7.5 1l-3.5 1q-6 0 -10 -1t-8 -1
q-4 -4 -8 -6t-6 -2q-4 -5 -6 -8t-7 -7q0 -4 -2 -7t-2 -9t2 -9t2 -8q5 -8 11 -12q4 -2 7 -5t5 -3q6 -2 9 -4t7 -4t6.5 -2h4.5q2 -2 5 -2t5 -2t5 -3t3 -6q2 -2 2 -5v-7v-3t-2 -5q-2 -6 -8 -8q-4 -4 -6 -5t-4 -3h-6h-5h-7h-5q-4 2 -10 8v2q-6 4 -12 4h-3.5t-5.5 -2l-6 -2
q2 -2 2 -3t2 -1q0 -2 1 -3t1 -3l1 -1t1 -4q4 -2 7 -2q6 -8 15 -10t19 -2h10.5t10.5 2l8 4t8 6q2 2 5 5.5t5 9.5zM1722 758h-94v-154h94v19h-73v47h61v20h-61v45h73v23zM1966 659v11v10v11v9q-4 11 -10 21q-4 6 -12 14q-2 4 -6.5 6t-8.5 9q-4 0 -9 2t-9 6q-6 0 -10.5 1
t-10.5 1t-11 -1t-9 -1q-12 -6 -21 -8q-4 -7 -7 -9t-7 -6l-7 -7l-7 -7q-2 -6 -4 -10t-2 -11q-5 -8 -5 -20q0 -8 2.5 -15.5t4.5 -15.5q6 -14 18 -26q4 -5 10 -9t15 -4q12 -6 30 -6h10.5h10.5q4 2 9 4t9 4q4 4 8.5 6.5t6.5 4.5q8 8 12 18q6 8 10 18zM2126 758h-23v-119
q0 2 -1 5t-3 3l-74 105l-1 1t-3 5h-5h-5h-16v-154h24v129v-4v-2v-2l2 -2l86 -119h19v154zM2251 623h-66v135h-22v-154h88v19zM2374 758h-19q-4 0 -8 -4q-8 -4 -8 -9l-35 -47l-2 -2h-2v-2v2l-2 2l-37 47q-2 5 -6 9t-10 4h-17l56 -76l2 -2q0 -2 2 -2v-2v-2q0 -2 2 -2v-2v-66
h22v66v2v4q2 0 2 4v2h2zM1188 864q-19 8 -38.5 19.5t-33.5 25.5h322q-17 -14 -35.5 -25.5t-38.5 -19.5q-21 -6 -43.5 -12t-44.5 -6q-25 0 -46.5 6t-41.5 12zM1141 936l315 317q29 -39 45.5 -79.5t16.5 -81.5q0 -23 -3.5 -44.5t-11.5 -41.5q-8 -19 -18 -36.5t-23 -33.5h-321z
M1094 928q-27 35 -45 73q-7 21 -11 43.5t-4 47.5q0 20 4 40.5t11 41.5q6 18 16 35.5t25 33.5h319zM1364 1315q20 -8 38.5 -20.5t33.5 -22.5h-324q37 28 76 43q39 18 88 18t88 -18zM78 350q-4 4 -5 8t-3 9q-2 6 -3 10t-1 10t4 16q2 5 3 10t5 7l3 9t7 7q0 2 5 5t7 5q6 5 9.5 6
t9.5 3q2 0 8 1t10 1q8 0 14.5 -1t14.5 -5q8 -2 13 -6.5t9 -8.5q-2 -2 -4 -2v-4h-2h-2h-4h-6q-4 2 -8 5t-8 3h-7.5h-9.5h-10h-8q-8 -4 -12.5 -7t-8.5 -5q-4 -6 -7 -10t-5 -8q-4 -7 -4 -13v-8q0 -8 2 -14t3 -9.5t1 -7.5q2 -2 5 -4t5 -6q4 -2 6 -5t7 -3q2 -2 6 -4t8 -2
q2 -2 6 -2h6h10.5t8.5 2q4 0 9 2t9 4v29h-12h-2l-2 2l-3 3l-3 3l-1 1t-1 3v1v3v0h38v-53l-5 -5t-5 -6q-6 -2 -12 -2q-6 -2 -14 -2h-15h-10h-8q-6 2 -9.5 4.5t-9.5 6.5q-2 0 -7 3t-5 7q-6 2 -7 6t-3 8zM240 438v-45h55v-14h-55v-47h67v-17h-84v140h84v-17h-67zM369 315v123
h-45v17h106v-17h-47v-123h-14zM532 438v-49h60v-12h-60v-62h-16v140h84v-17h-68zM641 455v-86q0 -4 2 -7.5t4 -5.5q2 -6 5 -9t5 -7q0 -2 3.5 -4t5.5 -4q6 -2 10 -2h8h7t5 2q6 2 9.5 4t7.5 4q0 4 3 7t5 9q4 4 4 13v86h14v-86q0 -7 -1 -11t-3 -10t-5 -10t-7 -8t-8 -7.5
t-8 -5.5q-13 -2 -23 -2q-12 0 -25 2q-2 2 -7 5.5t-9 7.5q-6 6 -10 18q-2 6 -4 10t-2 11v86h14zM784 455v-123h62v-17h-78v140h16zM877 455v-123h65v-17h-80v140h15zM1069 315l-61 140h8q4 0 8 -2q2 -2 3 -2t3 -5l43 -104v-4q2 -2 2 -6v6l1 2l1 2q6 14 12.5 26.5t12.5 24.5
q4 17 10 29l12 24q0 5 2 5t2 2q2 2 3.5 2h5.5h8q-8 -17 -15.5 -34.5t-17.5 -33.5q-6 -20 -13 -36.5t-16 -35.5h-14zM1171 438v-45h58v-14h-58v-47h68v-17h-84v140h84v-17h-68zM1341 381q-2 -2 -10 -4l47 -62h-10q-2 0 -5 1l-3 1q-2 2 -4 3.5t-4 5.5l-39 51h-25v-62h-14v140
h51h5t7 -2q9 -2 15 -9q2 -4 4 -7t4 -7q2 -2 2 -7v-5v-9t-2 -6q0 -4 -2 -8t-4 -6l-4 -4t-9 -4zM1325 389q4 0 6 4q2 0 4 1t4 1l3 6t4 5q0 2 1 4t1 8l-1 2t-1 6q-3 2 -4 3t-3 5q-2 0 -4 1t-4 3h-6h-37v-49h37zM1452 336q2 2 4 8q2 2 3 6t1 6q0 6 -2 11q-2 0 -3 3t-3 5t-8 4
q-4 0 -6 1l-6 3q-5 0 -9 2t-4 4q-10 0 -14 6q-4 0 -5 4t-3 7v14v9t2 7q0 6 8 10q4 5 6 6t8 3q4 0 6.5 1t8.5 1q2 0 5 -1t5 -1t4 -1l6 -3q2 0 4 -2.5t2 -4.5q4 -2 5 -4t3 -2l-4 -2q-2 -2 -8 -2h-6q-4 2 -4 4h-2h-2h-2h-3h-1h-2h-9q-8 0 -8 -2q-6 -6 -6 -8q-4 0 -4 -8
q0 -6 4 -6q0 -4 2 -6t5 -3.5l3 -1.5q4 -4 6.5 -4t8.5 -4h3t3 -2h4t4 -4h2h1h1q2 0 4 -1l2 -1q4 -4 6 -7t7 -5q2 -10 2 -19v-10t-7 -8q0 -6 -8 -12q-2 -2 -6 -4.5t-8 -4.5t-8 -2h-10q-11 0 -18 2t-13 9q-2 0 -4 2l-4 4q0 2 -1 4l-1 2l2 2l1 1t5 1h2q2 0 4 -1t4 -3q4 -2 6 -4
t6 -2q0 -2 4 -2h7q8 0 10 2q8 0 12 4zM1524 455v-140h-17v140h17zM1579 336q-12 8 -18 20q-5 15 -5 31v7v9q7 11 9 17q6 8 14 16q6 6 12 10q4 5 9.5 6t9.5 3q4 0 8 1t10 1q4 0 9 -1t12 -1q4 -2 8 -3t8 -6l5 -5t7 -5q4 -4 6.5 -7t6.5 -9q2 -6 6 -17q2 -4 3 -9t1 -7
q0 -8 -2 -15t-6 -16q-2 -6 -5.5 -11t-9.5 -9q-6 -6 -11 -9t-11 -8q-10 -4 -27 -4q-8 0 -15 1t-11 3q-17 5 -23 17zM1579 408q-4 -7 -6 -13t-2 -8q0 -4 1 -8t1 -6q2 -8 8 -17q0 -2 2 -4t4 -6l5 -5t10 -3q2 -2 5 -4t5 -2q4 -2 8 -2h8h7t7 2q3 0 7 2l8 4q2 0 5 3l5 5q2 4 4 6
l4 4q2 4 3 7.5t3 9.5q0 2 1 6t1 8q0 2 -1 8t-5 13q0 4 -4 8t-6 10q-4 2 -8 5t-10 7h-9.5h-11.5h-12h-10q-4 -4 -9.5 -7t-9.5 -5q-2 -6 -5 -10t-3 -8zM1741 315h-17v140h13h5t5 -4l72 -103q2 0 2 -4l2 -2v-2v115h16v-140h-14l-82 115v4h-2v4v-123zM1956 438v-49h57v-12h-57
v-62h-14v140h83v-17h-69zM2114 381q-9 -2 -13 -4l45 -62h-12q-4 0 -8 2q0 2 -1 3.5t-3 5.5l-39 51h-25v-62h-16v140h51h6t8 -2t7.5 -4.5t5.5 -4.5q2 -4 4 -7t6 -7q0 -2 1 -7l1 -5q0 -6 -1 -9t-1 -6l-4 -8t-2 -6zM2101 393q2 0 3 1t3 1q7 8 7 11q2 4 2 12q0 2 -2 8q0 2 -7 8
q-2 0 -3 1l-3 3h-8h-35v-49h35q4 0 8 4zM2281 336q-4 -6 -10 -9t-12 -8q-6 -2 -12 -3t-15 -1q-8 0 -15 1t-13 3q-13 5 -23 17q-4 4 -8 9t-6 11q-2 9 -5 16t-3 15q0 2 1 7t3 9q2 5 3 10t3 7q4 6 7 9t5 7q4 2 8 5t9 5q4 5 8 6t8 3q6 0 9 1t9 1q4 0 9.5 -1t9.5 -1l9 -3t7 -6
q4 -2 8 -5t6 -5q3 -4 6 -7t5 -9q6 -6 8 -17q2 -4 3 -9t1 -7q0 -8 -1 -15t-5 -16q-2 -6 -6 -11t-11 -9zM2232 330h7.5t9.5 2q2 0 5 2t5 4q2 0 6 3t8 5l3 6t3 4q2 4 3.5 7.5t1.5 9.5q2 2 2 6v8q0 2 -1 8t-1 13l-6 8t-5 10q-6 2 -11 5t-9 7h-10.5h-10.5h-11h-11q-6 -4 -9 -7
t-8 -5q-6 -6 -8 -10l-4 -8q-2 -7 -2 -13v-8v-14q0 -6 1 -9.5t5 -7.5q0 -2 3 -4t5 -6q2 -2 5.5 -5t5.5 -3q2 -2 5 -4t9 -2q2 -2 6 -2h8zM2460 453q2 2 3 2h3h12v-140h-14v115l-2 -2v0v-2q-4 -8 -6 -17.5t-7 -15.5q-4 -6 -7 -12l-7 -14q-2 -9 -4 -15l-4 -12q-4 -6 -7 -11
t-5 -14h-15q-10 13 -15 27t-11 27q-4 14 -11.5 28.5t-11.5 28.5v2l-4 2v-115h-16v140h14q6 0 8 -2l2 -2v-5l49 -108q0 -2 2 -2v-4q0 2 1 4t1 4q0 4 5 8l43 98q0 5 1 5t3 2zM74 262h157v-20v-4v-5q0 -4 -2 -6l-4 -4l-106 -145h2v2h4h2h104v-37h-165v12q0 11 2 13q0 2 4 8
q2 2 2 4t2 4t3 4l3 6l94 129h-102v39zM260 262h139v-39h-100v-49h80v-41h-80v-53h100v-37h-139v219zM571 223h-59v-180h-43v180h-63v39h165v-39zM672 262l94 -219h-25q-8 0 -16 4q-4 2 -5 6t-5 8l-13 29h-100l-10 -29q-2 -4 -3 -5t-3 -1q0 -4 -1 -5t-5 -3q-2 0 -4.5 -1
t-4.5 -1q0 -2 -2 -2h-4h-24l94 219h37zM684 129l-27 68q0 2 -1 3t-1 3q0 4 -2 6v-6q0 -2 -2 -3t-2 -3l-26 -68h61zM774 262h139v-39h-100v-55h82v-39h-82v-86h-39v219zM1133 207q4 -6 6 -12.5t6 -12.5q2 -8 2 -15v-13v-17t-2 -14q-4 -6 -6 -13.5t-6 -13.5q-5 -4 -9 -10
l-8 -12q-8 -4 -12 -9.5t-10 -7.5q-7 -6 -14 -8t-13 -4q-8 -2 -15.5 -3t-15.5 -1q-10 0 -21 3t-22 5q-12 6 -19 12.5t-18 12.5q-14 16 -20 35q-6 12 -8 22t-2 23q0 6 1 13t3 15q4 17 12 25q4 8 7 13t7 11q9 5 14 9t11 8t12 6t15 6q6 0 13 1t15 1t15.5 -1t15.5 -1q6 -4 13 -6
t14 -6q6 -4 10 -8t12 -9q4 -6 8 -11t9 -13zM1104 127q2 6 3 12t1 15q0 12 -4 24q-4 10 -8 15.5t-11 9.5q-4 4 -9 8t-11 6q-12 6 -29 6q-16 0 -28 -6q-4 -2 -9.5 -6t-11.5 -8t-9 -9.5t-7 -15.5q-4 -4 -4 -11v-13v-15t4 -12q4 -8 7 -14.5t9 -10.5t11.5 -8t9.5 -8q8 -2 14 -4
t14 -2t14.5 2t14.5 4q6 4 11 8t9 8q7 4 11 10.5t8 14.5zM1329 262h39v-219h-37l-102 147q-2 0 -2 1.5t-2 3.5q-2 4 -2 6q-4 0 -4 4l-1 1t-4 3v-166h-38v219h34q4 0 8.5 -1t4.5 -3l6 -3t4 -3q10 -16 21.5 -31.5t21.5 -34.5q12 -14 23.5 -29.5t25.5 -29.5q0 -4 1 -6t1 -6
q0 -2 1 -4t1 -5v156zM1389 262h165v-39h-65v-180h-39v180h-61v39zM1690 150q2 -5 5 -9t5 -8q0 -4 2 -9t2 -13q0 -13 -6 -27l-8 -12t-9 -11q-8 -4 -12 -8t-12 -6t-15.5 -4t-13.5 -2q-8 0 -15 2t-18 4q-6 2 -11 6t-13 13q-4 2 -6 5t-4 7q-5 2 -5 12l1.5 1t3.5 3q2 0 2 1t2 1
t4 1l2 1h10h3t3 -2q6 0 10 -2q5 -4 9 -6t6 -4q2 0 6 -2t10 -2q2 0 5 1t7 3q7 2 13 6l8 8q2 4 4 6t2 7q0 8 -6 12q-4 6 -8 6q-4 4 -7.5 5t-5.5 1q-6 2 -16 8q-4 0 -9 1t-9 6q-9 2 -13 5t-8 7q-6 4 -9 8t-5 8q-6 12 -6 25q0 18 6 26q2 7 6 11t10 8q4 4 9.5 6t13.5 6q4 0 10 1
t14 1q4 0 8.5 -1t10.5 -1q4 -2 7 -4t9 -4q2 -2 6 -5t8 -7q3 -2 6 -5.5t5 -7.5l-8 -4l-6 -4t-3 -4h-8h-4h-4h-2q-6 0 -6 2l-8 4q-3 0 -4 1l-1 1h-6h-12q-4 0 -5 -1t-5 -3q-2 -2 -4 -8q-2 -2 -2 -8t2 -6q2 -2 3 -4.5t1 -6.5q4 0 7 -1t5 -1q6 -2 11 -4t7 -4l11 -2q4 -4 9 -5
t11 -7q10 -2 17 -12zM1755 80q6 0 6 -6q2 0 2 -3v-5q0 -7 -2 -11q0 -4 -6 -8q-4 0 -6 -4q-2 0 -4 -1t-6 -1q-2 0 -4 1t-4 1q-2 2 -4.5 3t-4.5 1q-2 2 -3 4t-3 4q-2 4 -2 11v5t2 3q2 4 3 5t3 1q7 6 9 6q2 2 4 3t4 1q4 0 6 -1t4 -3q2 0 6 -6zM1839 203q-8 -8 -16 -25
q-2 -4 -4 -11t-2 -13q0 -9 2 -15l4 -12q4 -8 7 -14.5t9 -10.5q4 -4 9 -8t14 -8q8 -2 14 -4t14 -2q6 0 10.5 2t10.5 2q4 2 9 5t9 7q4 0 8 2h7h6t6 -2q6 -2 10 -6l6 -10q-6 -8 -16 -14q-6 -5 -10 -8t-11 -5q-6 -4 -11 -5t-11 -3t-11.5 -3t-11.5 -1q-14 0 -24.5 3t-20.5 5
q-20 10 -35 25q-16 16 -24 35q-2 12 -5 22t-3 23q0 6 1 13t3 15q2 6 4 12.5t6 12.5q6 8 9 13t9 11q7 5 12 9t13 8q4 4 10 6t17 6q4 0 12 1t16 1h11.5t11.5 -2t11 -4t11 -4q7 -2 11 -5t10 -7q10 -9 16 -17l-6 -8l-5 -5t-5 -3h-7h-5h-8t-7 2q-4 4 -9 7t-9 5q-6 2 -10.5 2
h-10.5q-16 0 -28 -6q-9 -2 -14 -6t-9 -8zM2195 207q3 -6 6 -12.5t5 -12.5q2 -8 2 -15v-13v-17t-2 -14t-5 -13.5t-6 -13.5q-8 -10 -16 -22q-8 -4 -14 -9.5t-11 -7.5q-6 -6 -13 -8t-15 -4q-6 -2 -13.5 -3t-15.5 -1q-20 0 -43 8q-8 6 -17 12.5t-16 12.5q-8 8 -14 16t-10 19
q-4 12 -6 22t-2 23q0 6 1 13t1 15q2 6 6 12.5t6 12.5q4 8 8 13t10 11q4 5 10.5 9t12.5 8q4 4 11 6t13 6q9 0 16 1t13 1q8 0 15.5 -1t13.5 -1q8 -4 15 -6t13 -6q5 -4 11 -8t14 -9q2 -6 8 -11t8 -13zM2165 127q4 10 4 27q0 6 -1 13t-3 11q-4 10 -7.5 15.5t-7.5 9.5
q-10 10 -24 14q-6 4 -13.5 5t-15.5 1q-14 0 -26 -6q-7 -2 -12 -6t-11 -8q-4 -4 -8 -9.5t-8 -15.5q-2 -4 -3 -11t-1 -13q0 -9 1 -15t3 -12q8 -16 16 -25q6 -4 11 -8t12 -8q6 -2 14 -4t12 -2q8 0 15.5 2t13.5 4q6 4 13 8t11 8q9 9 15 25zM2433 260l1 1t5 1h39v-219h-39v160
q0 -2 -1 -4l-3 -6v-7t-2 -4q-6 -18 -14.5 -35.5t-14.5 -33.5q-6 -17 -13 -34.5t-13 -35.5h-39l-55 139q-3 2 -3 11q-2 4 -3 5t-1 3v-158h-41v219h39q4 0 6.5 -1l2.5 -1q4 -2 5 -2t3 -2l6 -4l4 -4t2 -4q4 -17 11 -32t14 -34q6 -16 13 -32.5t13 -32.5v-2v-5v-4q4 0 4 -4v4v4
q0 3 1 5l1 2l9 16l45 115q0 2 1 4t1 4q2 2 5 3l3 1q2 2 4 2t4 2z" />
    <glyph glyph-name="six" unicode="6" horiz-adv-x="2531" 
d="M1929 721q4 -4 8.5 -9t6.5 -10q0 -6 1 -11t1 -11q0 -12 -2 -23q-2 -6 -6.5 -10t-8.5 -6q-4 -4 -8 -7t-8 -7q-12 -4 -23 -4q-6 0 -12 1t-10 3l-10.5 7t-8.5 7q-4 2 -7 6t-3 10q-4 7 -5 12t-1 11q0 10 6 22q0 5 3 10t7 9t8.5 7t10.5 5q8 4 22 4q6 0 10.5 -1t12.5 -3
q4 -2 8 -5t8 -7zM518 702q0 -2 -4 -8q-2 0 -3 -2t-5 -2q-2 -2 -8 -2h-33v47h33q4 0 8 -2q4 0 5 -1l3 -3l4 -8q2 -2 2 -10q0 -6 -2 -9zM801 721q4 -4 8 -9t6 -10q2 -6 3 -11t1 -11t-1 -11t-3 -12q-2 -6 -6 -10t-8 -6q-2 -4 -6 -7t-11 -7q-4 -2 -10 -3t-12 -1q-12 0 -23 4
q-4 4 -9 7t-9 7l-6 6t-6 10q-2 7 -4.5 12t-2.5 11q0 10 7 22q2 5 6 10t6 9q4 4 9 7t9 5q6 2 12.5 3t10.5 1q12 0 22 -4q7 -2 11 -5t6 -7zM1090 733q0 -4 1 -6t1 -4l28 -64h-59l29 64v4v6zM270 729q2 -2 3 -5t3 -5q3 -4 3 -10v-5.5t-3 -5.5q-2 -2 -3 -5t-3 -3l-8 -8h-10h-37
v53h37q6 0 10 -2q2 0 5 -2zM2478 1092v-586h-2404v586h911q0 30 5 58t18 54q12 27 27.5 51.5t37.5 42.5q37 39 90 62q29 12 56.5 17t56.5 5q33 0 61.5 -6t53.5 -18q28 -12 51.5 -28.5t42.5 -35.5q37 -37 61 -94q21 -53 21 -108h911zM1030 1192q-22 -47 -22 -100
q0 -58 22 -105q10 -22 24.5 -44.5t30.5 -41.5q19 -18 40.5 -32.5t45.5 -24.5q48 -23 105 -23q29 0 54.5 4t49.5 15q25 12 45.5 25.5t38.5 33.5q19 19 33 40.5t27 43.5q22 51 22 109q0 22 -4 45.5t-14 44.5q-12 41 -41 75q-14 17 -30.5 31.5t-33.5 24.5q-18 10 -37.5 19
t-39.5 18q-15 4 -32.5 6t-37.5 2q-29 0 -55.5 -5t-51.5 -18q-49 -18 -86 -57q-16 -18 -29.5 -41t-23.5 -45zM295 690q6 10 6 19q0 4 -1 9t-5 11q0 2 -4 6l-6 6q-2 4 -5.5 7.5t-9.5 3.5q-4 2 -9 4t-9 2h-53v-154h16v58h37q4 0 9 1t9 3q11 4 15 8q2 4 6 8t4 8zM410 758h-95
v-154h95v19h-72v47h59v20h-59v45h72v23zM559 604l-47 66q2 2 5 2t5 4q8 4 10 10q3 2 5 5t4 7v13v10t-2 8q-4 8 -11 14q-4 9 -14 9q-2 2 -7 4t-9 2h-56v-154h23v64h22l41 -56q2 -4 7 -6q2 -2 4 -2h6h14zM664 631q0 4 1 8t1 8q0 12 -4.5 20.5t-12.5 14.5q-2 0 -3 2t-5 4h-1
t-5 2h-2t-2 4q-6 0 -8 2q-7 0 -9 1l-6 3q-8 2 -8 5q-6 4 -6 6v8v8q2 0 4 2t2 4l3 1t5 1q4 2 6 2h4l2.5 -1t4.5 -1q8 0 8 -4q2 -2 4 -2h4q8 0 14 4l4 2q0 2 -2 4l-4 4q-4 2 -6 4.5t-6 4.5q-2 0 -4 1t-6 5q-6 0 -7 1t-6 1q-4 0 -9 -1t-9 -1q-4 -4 -7 -6t-7 -2q-2 -5 -5 -8
t-6 -7q-2 -4 -3 -7t-1 -9v-9t4 -8q3 -4 6 -7t3 -5q4 -2 8 -5t8 -3q4 -2 7 -4t7 -4q2 -2 5.5 -2h5.5q6 -2 7 -2t3 -2q4 -2 4 -3t2 -6q2 -2 2 -5v-7v-3t-2 -5q-2 -4 -2 -5t-4 -3q-2 -4 -5 -5t-5 -3h-5.5h-5.5h-7h-5q-2 2 -5 3t-3 5l-2 2q-6 4 -12 4h-4.5t-4.5 -2l-6 -2
q0 -4 2 -4q0 -4 4 -6q0 -2 2 -5l2 -2h3q8 -8 17 -10t19 -2h9.5t9.5 2t9 4t7 6q6 2 9.5 5.5t5.5 9.5zM838 659q2 7 2 11v10q0 12 -2 20q0 7 -3.5 11t-5.5 10q-4 6 -12 14q-4 4 -8 6t-10 9q-2 0 -6.5 2t-10.5 6q-6 0 -10 1t-10 1q-4 0 -10.5 -1t-10.5 -1q-6 -4 -10 -6t-8 -2
q-4 -7 -8 -9t-8 -6q-5 -4 -8 -7t-5 -7q-4 -6 -5 -10t-3 -11q-2 -8 -2 -20q0 -8 2 -15.5t4 -15.5q2 -6 6 -12t11 -14q6 -5 12 -9t14 -4q12 -6 29 -6h10h10q11 4 17 8q14 6 18 11q6 8 12 18q2 4 5.5 9t3.5 9zM997 758h-20v-119q0 2 -1 5l-1 3l-74 105q-4 0 -8 6h-4h-4h-15
v-154h21v129v-4l2 -2v0v-4l88 -119h16v154zM1169 604l-67 154h-23l-65 -154h12q6 0 8 2l3 3t5 3l9 27h79l11 -27q2 -4 6 -6q0 -2 8 -2h14zM1270 623h-66v135h-22v-154h88v19zM1479 758h-21v-92v-11t-2 -8q-2 -8 -10 -12q-2 -2 -5 -4t-5 -6q-6 -2 -9.5 -2h-7.5q-10 0 -14 2
q-6 4 -10 6t-4 4q-2 2 -4.5 5t-6.5 7q0 4 -1 8t-1 11v92h-20v-92v-12t2 -7q0 -8 4 -14q4 -10 12 -15q2 -2 5 -4t8 -4q2 -2 6 -3t6 -3q6 0 9 -2t9 -2q4 0 7.5 2t9.5 2q4 2 7 3t7 3l12 8q4 5 5 8t3 7q3 2 6 6t3 8v19v92zM1597 631q7 8 7 16q0 12 -4.5 20.5t-12.5 14.5
q-6 4 -6 6h-5t-5 2h-3t-5 4h-2t-5 2q-2 0 -4 1l-6 3q-8 2 -8 5q-4 2 -5 4t-3 2q0 2 -1 3t-1 5t4 8l6 6q2 0 3 1t5 1q0 2 10 2l2.5 -1t4.5 -1q2 -2 8 -4q8 -2 10 -2q6 0 8 4l6 2l-4 4l-4 4q0 2 -3 4.5t-5 4.5q-4 0 -6 1t-6 5q-4 0 -7.5 1l-3.5 1q-6 0 -10 -1t-8 -1
q-4 -4 -8 -6t-6 -2q-4 -5 -6 -8t-7 -7q0 -4 -2 -7t-2 -9t2 -9t2 -8q5 -8 11 -12q4 -2 7 -5t5 -3q6 -2 9 -4t7 -4t6.5 -2h4.5q2 -2 5 -2t5 -2t5 -3t3 -6q2 -2 2 -5v-7v-3t-2 -5q-2 -6 -8 -8q-4 -4 -6 -5t-4 -3h-6h-5h-7h-5q-4 2 -10 8v2q-6 4 -12 4h-3.5t-5.5 -2l-6 -2
q2 -2 2 -3t2 -1q0 -2 1 -3t1 -3l1 -1t1 -4q4 -2 7 -2q6 -8 15 -10t19 -2h10.5t10.5 2l8 4t8 6q2 2 5 5.5t5 9.5zM1722 758h-94v-154h94v19h-73v47h61v20h-61v45h73v23zM1966 659v11v10v11v9q-4 11 -10 21q-4 6 -12 14q-2 4 -6.5 6t-8.5 9q-4 0 -9 2t-9 6q-6 0 -10.5 1
t-10.5 1t-11 -1t-9 -1q-12 -6 -21 -8q-4 -7 -7 -9t-7 -6l-7 -7l-7 -7q-2 -6 -4 -10t-2 -11q-5 -8 -5 -20q0 -8 2.5 -15.5t4.5 -15.5q6 -14 18 -26q4 -5 10 -9t15 -4q12 -6 30 -6h10.5h10.5q4 2 9 4t9 4q4 4 8.5 6.5t6.5 4.5q8 8 12 18q6 8 10 18zM2126 758h-23v-119
q0 2 -1 5t-3 3l-74 105l-1 1t-3 5h-5h-5h-16v-154h24v129v-4v-2v-2l2 -2l86 -119h19v154zM2251 623h-66v135h-22v-154h88v19zM2374 758h-19q-4 0 -8 -4q-8 -4 -8 -9l-35 -47l-2 -2h-2v-2v2l-2 2l-37 47q-2 5 -6 9t-10 4h-17l56 -76l2 -2q0 -2 2 -2v-2v-2q0 -2 2 -2v-2v-66
h22v66v2v4q2 0 2 4v2h2zM1188 864q-19 8 -38.5 19.5t-33.5 25.5h322q-17 -14 -35.5 -25.5t-38.5 -19.5q-21 -6 -43.5 -12t-44.5 -6q-25 0 -46.5 6t-41.5 12zM1141 936l315 317q29 -39 45.5 -79.5t16.5 -81.5q0 -23 -3.5 -44.5t-11.5 -41.5q-8 -19 -18 -36.5t-23 -33.5h-321z
M1094 928q-27 35 -45 73q-7 21 -11 43.5t-4 47.5q0 20 4 40.5t11 41.5q6 18 16 35.5t25 33.5h319zM1364 1315q20 -8 38.5 -20.5t33.5 -22.5h-324q37 28 76 43q39 18 88 18t88 -18zM78 350q-4 4 -5 8t-3 9q-2 6 -3 10t-1 10t4 16q2 5 3 10t5 7l3 9t7 7q0 2 5 5t7 5q6 5 9.5 6
t9.5 3q2 0 8 1t10 1q8 0 14.5 -1t14.5 -5q8 -2 13 -6.5t9 -8.5q-2 -2 -4 -2v-4h-2h-2h-4h-6q-4 2 -8 5t-8 3h-7.5h-9.5h-10h-8q-8 -4 -12.5 -7t-8.5 -5q-4 -6 -7 -10t-5 -8q-4 -7 -4 -13v-8q0 -8 2 -14t3 -9.5t1 -7.5q2 -2 5 -4t5 -6q4 -2 6 -5t7 -3q2 -2 6 -4t8 -2
q2 -2 6 -2h6h10.5t8.5 2q4 0 9 2t9 4v29h-12h-2l-2 2l-3 3l-3 3l-1 1t-1 3v1v3v0h38v-53l-5 -5t-5 -6q-6 -2 -12 -2q-6 -2 -14 -2h-15h-10h-8q-6 2 -9.5 4.5t-9.5 6.5q-2 0 -7 3t-5 7q-6 2 -7 6t-3 8zM240 438v-45h55v-14h-55v-47h67v-17h-84v140h84v-17h-67zM369 315v123
h-45v17h106v-17h-47v-123h-14zM532 438v-49h60v-12h-60v-62h-16v140h84v-17h-68zM641 455v-86q0 -4 2 -7.5t4 -5.5q2 -6 5 -9t5 -7q0 -2 3.5 -4t5.5 -4q6 -2 10 -2h8h7t5 2q6 2 9.5 4t7.5 4q0 4 3 7t5 9q4 4 4 13v86h14v-86q0 -7 -1 -11t-3 -10t-5 -10t-7 -8t-8 -7.5
t-8 -5.5q-13 -2 -23 -2q-12 0 -25 2q-2 2 -7 5.5t-9 7.5q-6 6 -10 18q-2 6 -4 10t-2 11v86h14zM784 455v-123h62v-17h-78v140h16zM877 455v-123h65v-17h-80v140h15zM1069 315l-61 140h8q4 0 8 -2q2 -2 3 -2t3 -5l43 -104v-4q2 -2 2 -6v6l1 2l1 2q6 14 12.5 26.5t12.5 24.5
q4 17 10 29l12 24q0 5 2 5t2 2q2 2 3.5 2h5.5h8q-8 -17 -15.5 -34.5t-17.5 -33.5q-6 -20 -13 -36.5t-16 -35.5h-14zM1171 438v-45h58v-14h-58v-47h68v-17h-84v140h84v-17h-68zM1341 381q-2 -2 -10 -4l47 -62h-10q-2 0 -5 1l-3 1q-2 2 -4 3.5t-4 5.5l-39 51h-25v-62h-14v140
h51h5t7 -2q9 -2 15 -9q2 -4 4 -7t4 -7q2 -2 2 -7v-5v-9t-2 -6q0 -4 -2 -8t-4 -6l-4 -4t-9 -4zM1325 389q4 0 6 4q2 0 4 1t4 1l3 6t4 5q0 2 1 4t1 8l-1 2t-1 6q-3 2 -4 3t-3 5q-2 0 -4 1t-4 3h-6h-37v-49h37zM1452 336q2 2 4 8q2 2 3 6t1 6q0 6 -2 11q-2 0 -3 3t-3 5t-8 4
q-4 0 -6 1l-6 3q-5 0 -9 2t-4 4q-10 0 -14 6q-4 0 -5 4t-3 7v14v9t2 7q0 6 8 10q4 5 6 6t8 3q4 0 6.5 1t8.5 1q2 0 5 -1t5 -1t4 -1l6 -3q2 0 4 -2.5t2 -4.5q4 -2 5 -4t3 -2l-4 -2q-2 -2 -8 -2h-6q-4 2 -4 4h-2h-2h-2h-3h-1h-2h-9q-8 0 -8 -2q-6 -6 -6 -8q-4 0 -4 -8
q0 -6 4 -6q0 -4 2 -6t5 -3.5l3 -1.5q4 -4 6.5 -4t8.5 -4h3t3 -2h4t4 -4h2h1h1q2 0 4 -1l2 -1q4 -4 6 -7t7 -5q2 -10 2 -19v-10t-7 -8q0 -6 -8 -12q-2 -2 -6 -4.5t-8 -4.5t-8 -2h-10q-11 0 -18 2t-13 9q-2 0 -4 2l-4 4q0 2 -1 4l-1 2l2 2l1 1t5 1h2q2 0 4 -1t4 -3q4 -2 6 -4
t6 -2q0 -2 4 -2h7q8 0 10 2q8 0 12 4zM1524 455v-140h-17v140h17zM1579 336q-12 8 -18 20q-5 15 -5 31v7v9q7 11 9 17q6 8 14 16q6 6 12 10q4 5 9.5 6t9.5 3q4 0 8 1t10 1q4 0 9 -1t12 -1q4 -2 8 -3t8 -6l5 -5t7 -5q4 -4 6.5 -7t6.5 -9q2 -6 6 -17q2 -4 3 -9t1 -7
q0 -8 -2 -15t-6 -16q-2 -6 -5.5 -11t-9.5 -9q-6 -6 -11 -9t-11 -8q-10 -4 -27 -4q-8 0 -15 1t-11 3q-17 5 -23 17zM1579 408q-4 -7 -6 -13t-2 -8q0 -4 1 -8t1 -6q2 -8 8 -17q0 -2 2 -4t4 -6l5 -5t10 -3q2 -2 5 -4t5 -2q4 -2 8 -2h8h7t7 2q3 0 7 2l8 4q2 0 5 3l5 5q2 4 4 6
l4 4q2 4 3 7.5t3 9.5q0 2 1 6t1 8q0 2 -1 8t-5 13q0 4 -4 8t-6 10q-4 2 -8 5t-10 7h-9.5h-11.5h-12h-10q-4 -4 -9.5 -7t-9.5 -5q-2 -6 -5 -10t-3 -8zM1741 315h-17v140h13h5t5 -4l72 -103q2 0 2 -4l2 -2v-2v115h16v-140h-14l-82 115v4h-2v4v-123zM1956 438v-49h57v-12h-57
v-62h-14v140h83v-17h-69zM2114 381q-9 -2 -13 -4l45 -62h-12q-4 0 -8 2q0 2 -1 3.5t-3 5.5l-39 51h-25v-62h-16v140h51h6t8 -2t7.5 -4.5t5.5 -4.5q2 -4 4 -7t6 -7q0 -2 1 -7l1 -5q0 -6 -1 -9t-1 -6l-4 -8t-2 -6zM2101 393q2 0 3 1t3 1q7 8 7 11q2 4 2 12q0 2 -2 8q0 2 -7 8
q-2 0 -3 1l-3 3h-8h-35v-49h35q4 0 8 4zM2281 336q-4 -6 -10 -9t-12 -8q-6 -2 -12 -3t-15 -1q-8 0 -15 1t-13 3q-13 5 -23 17q-4 4 -8 9t-6 11q-2 9 -5 16t-3 15q0 2 1 7t3 9q2 5 3 10t3 7q4 6 7 9t5 7q4 2 8 5t9 5q4 5 8 6t8 3q6 0 9 1t9 1q4 0 9.5 -1t9.5 -1l9 -3t7 -6
q4 -2 8 -5t6 -5q3 -4 6 -7t5 -9q6 -6 8 -17q2 -4 3 -9t1 -7q0 -8 -1 -15t-5 -16q-2 -6 -6 -11t-11 -9zM2232 330h7.5t9.5 2q2 0 5 2t5 4q2 0 6 3t8 5l3 6t3 4q2 4 3.5 7.5t1.5 9.5q2 2 2 6v8q0 2 -1 8t-1 13l-6 8t-5 10q-6 2 -11 5t-9 7h-10.5h-10.5h-11h-11q-6 -4 -9 -7
t-8 -5q-6 -6 -8 -10l-4 -8q-2 -7 -2 -13v-8v-14q0 -6 1 -9.5t5 -7.5q0 -2 3 -4t5 -6q2 -2 5.5 -5t5.5 -3q2 -2 5 -4t9 -2q2 -2 6 -2h8zM2460 453q2 2 3 2h3h12v-140h-14v115l-2 -2v0v-2q-4 -8 -6 -17.5t-7 -15.5q-4 -6 -7 -12l-7 -14q-2 -9 -4 -15l-4 -12q-4 -6 -7 -11
t-5 -14h-15q-10 13 -15 27t-11 27q-4 14 -11.5 28.5t-11.5 28.5v2l-4 2v-115h-16v140h14q6 0 8 -2l2 -2v-5l49 -108q0 -2 2 -2v-4q0 2 1 4t1 4q0 4 5 8l43 98q0 5 1 5t3 2zM74 262h157v-20v-4v-5q0 -4 -2 -6l-4 -4l-106 -145h2v2h4h2h104v-37h-165v12q0 11 2 13q0 2 4 8
q2 2 2 4t2 4t3 4l3 6l94 129h-102v39zM260 262h139v-39h-100v-49h80v-41h-80v-53h100v-37h-139v219zM571 223h-59v-180h-43v180h-63v39h165v-39zM672 262l94 -219h-25q-8 0 -16 4q-4 2 -5 6t-5 8l-13 29h-100l-10 -29q-2 -4 -3 -5t-3 -1q0 -4 -1 -5t-5 -3q-2 0 -4.5 -1
t-4.5 -1q0 -2 -2 -2h-4h-24l94 219h37zM684 129l-27 68q0 2 -1 3t-1 3q0 4 -2 6v-6q0 -2 -2 -3t-2 -3l-26 -68h61zM774 262h139v-39h-100v-55h82v-39h-82v-86h-39v219zM1133 207q4 -6 6 -12.5t6 -12.5q2 -8 2 -15v-13v-17t-2 -14q-4 -6 -6 -13.5t-6 -13.5q-5 -4 -9 -10
l-8 -12q-8 -4 -12 -9.5t-10 -7.5q-7 -6 -14 -8t-13 -4q-8 -2 -15.5 -3t-15.5 -1q-10 0 -21 3t-22 5q-12 6 -19 12.5t-18 12.5q-14 16 -20 35q-6 12 -8 22t-2 23q0 6 1 13t3 15q4 17 12 25q4 8 7 13t7 11q9 5 14 9t11 8t12 6t15 6q6 0 13 1t15 1t15.5 -1t15.5 -1q6 -4 13 -6
t14 -6q6 -4 10 -8t12 -9q4 -6 8 -11t9 -13zM1104 127q2 6 3 12t1 15q0 12 -4 24q-4 10 -8 15.5t-11 9.5q-4 4 -9 8t-11 6q-12 6 -29 6q-16 0 -28 -6q-4 -2 -9.5 -6t-11.5 -8t-9 -9.5t-7 -15.5q-4 -4 -4 -11v-13v-15t4 -12q4 -8 7 -14.5t9 -10.5t11.5 -8t9.5 -8q8 -2 14 -4
t14 -2t14.5 2t14.5 4q6 4 11 8t9 8q7 4 11 10.5t8 14.5zM1329 262h39v-219h-37l-102 147q-2 0 -2 1.5t-2 3.5q-2 4 -2 6q-4 0 -4 4l-1 1t-4 3v-166h-38v219h34q4 0 8.5 -1t4.5 -3l6 -3t4 -3q10 -16 21.5 -31.5t21.5 -34.5q12 -14 23.5 -29.5t25.5 -29.5q0 -4 1 -6t1 -6
q0 -2 1 -4t1 -5v156zM1389 262h165v-39h-65v-180h-39v180h-61v39zM1690 150q2 -5 5 -9t5 -8q0 -4 2 -9t2 -13q0 -13 -6 -27l-8 -12t-9 -11q-8 -4 -12 -8t-12 -6t-15.5 -4t-13.5 -2q-8 0 -15 2t-18 4q-6 2 -11 6t-13 13q-4 2 -6 5t-4 7q-5 2 -5 12l1.5 1t3.5 3q2 0 2 1t2 1
t4 1l2 1h10h3t3 -2q6 0 10 -2q5 -4 9 -6t6 -4q2 0 6 -2t10 -2q2 0 5 1t7 3q7 2 13 6l8 8q2 4 4 6t2 7q0 8 -6 12q-4 6 -8 6q-4 4 -7.5 5t-5.5 1q-6 2 -16 8q-4 0 -9 1t-9 6q-9 2 -13 5t-8 7q-6 4 -9 8t-5 8q-6 12 -6 25q0 18 6 26q2 7 6 11t10 8q4 4 9.5 6t13.5 6q4 0 10 1
t14 1q4 0 8.5 -1t10.5 -1q4 -2 7 -4t9 -4q2 -2 6 -5t8 -7q3 -2 6 -5.5t5 -7.5l-8 -4l-6 -4t-3 -4h-8h-4h-4h-2q-6 0 -6 2l-8 4q-3 0 -4 1l-1 1h-6h-12q-4 0 -5 -1t-5 -3q-2 -2 -4 -8q-2 -2 -2 -8t2 -6q2 -2 3 -4.5t1 -6.5q4 0 7 -1t5 -1q6 -2 11 -4t7 -4l11 -2q4 -4 9 -5
t11 -7q10 -2 17 -12zM1755 80q6 0 6 -6q2 0 2 -3v-5q0 -7 -2 -11q0 -4 -6 -8q-4 0 -6 -4q-2 0 -4 -1t-6 -1q-2 0 -4 1t-4 1q-2 2 -4.5 3t-4.5 1q-2 2 -3 4t-3 4q-2 4 -2 11v5t2 3q2 4 3 5t3 1q7 6 9 6q2 2 4 3t4 1q4 0 6 -1t4 -3q2 0 6 -6zM1839 203q-8 -8 -16 -25
q-2 -4 -4 -11t-2 -13q0 -9 2 -15l4 -12q4 -8 7 -14.5t9 -10.5q4 -4 9 -8t14 -8q8 -2 14 -4t14 -2q6 0 10.5 2t10.5 2q4 2 9 5t9 7q4 0 8 2h7h6t6 -2q6 -2 10 -6l6 -10q-6 -8 -16 -14q-6 -5 -10 -8t-11 -5q-6 -4 -11 -5t-11 -3t-11.5 -3t-11.5 -1q-14 0 -24.5 3t-20.5 5
q-20 10 -35 25q-16 16 -24 35q-2 12 -5 22t-3 23q0 6 1 13t3 15q2 6 4 12.5t6 12.5q6 8 9 13t9 11q7 5 12 9t13 8q4 4 10 6t17 6q4 0 12 1t16 1h11.5t11.5 -2t11 -4t11 -4q7 -2 11 -5t10 -7q10 -9 16 -17l-6 -8l-5 -5t-5 -3h-7h-5h-8t-7 2q-4 4 -9 7t-9 5q-6 2 -10.5 2
h-10.5q-16 0 -28 -6q-9 -2 -14 -6t-9 -8zM2195 207q3 -6 6 -12.5t5 -12.5q2 -8 2 -15v-13v-17t-2 -14t-5 -13.5t-6 -13.5q-8 -10 -16 -22q-8 -4 -14 -9.5t-11 -7.5q-6 -6 -13 -8t-15 -4q-6 -2 -13.5 -3t-15.5 -1q-20 0 -43 8q-8 6 -17 12.5t-16 12.5q-8 8 -14 16t-10 19
q-4 12 -6 22t-2 23q0 6 1 13t1 15q2 6 6 12.5t6 12.5q4 8 8 13t10 11q4 5 10.5 9t12.5 8q4 4 11 6t13 6q9 0 16 1t13 1q8 0 15.5 -1t13.5 -1q8 -4 15 -6t13 -6q5 -4 11 -8t14 -9q2 -6 8 -11t8 -13zM2165 127q4 10 4 27q0 6 -1 13t-3 11q-4 10 -7.5 15.5t-7.5 9.5
q-10 10 -24 14q-6 4 -13.5 5t-15.5 1q-14 0 -26 -6q-7 -2 -12 -6t-11 -8q-4 -4 -8 -9.5t-8 -15.5q-2 -4 -3 -11t-1 -13q0 -9 1 -15t3 -12q8 -16 16 -25q6 -4 11 -8t12 -8q6 -2 14 -4t12 -2q8 0 15.5 2t13.5 4q6 4 13 8t11 8q9 9 15 25zM2433 260l1 1t5 1h39v-219h-39v160
q0 -2 -1 -4l-3 -6v-7t-2 -4q-6 -18 -14.5 -35.5t-14.5 -33.5q-6 -17 -13 -34.5t-13 -35.5h-39l-55 139q-3 2 -3 11q-2 4 -3 5t-1 3v-158h-41v219h39q4 0 6.5 -1l2.5 -1q4 -2 5 -2t3 -2l6 -4l4 -4t2 -4q4 -17 11 -32t14 -34q6 -16 13 -32.5t13 -32.5v-2v-5v-4q4 0 4 -4v4v4
q0 3 1 5l1 2l9 16l45 115q0 2 1 4t1 4q2 2 5 3l3 1q2 2 4 2t4 2z" />
    <glyph glyph-name="seven" unicode="7" horiz-adv-x="2531" 
d="M1929 721q4 -4 8.5 -9t6.5 -10q0 -6 1 -11t1 -11q0 -12 -2 -23q-2 -6 -6.5 -10t-8.5 -6q-4 -4 -8 -7t-8 -7q-12 -4 -23 -4q-6 0 -12 1t-10 3l-10.5 7t-8.5 7q-4 2 -7 6t-3 10q-4 7 -5 12t-1 11q0 10 6 22q0 5 3 10t7 9t8.5 7t10.5 5q8 4 22 4q6 0 10.5 -1t12.5 -3
q4 -2 8 -5t8 -7zM518 702q0 -2 -4 -8q-2 0 -3 -2t-5 -2q-2 -2 -8 -2h-33v47h33q4 0 8 -2q4 0 5 -1l3 -3l4 -8q2 -2 2 -10q0 -6 -2 -9zM801 721q4 -4 8 -9t6 -10q2 -6 3 -11t1 -11t-1 -11t-3 -12q-2 -6 -6 -10t-8 -6q-2 -4 -6 -7t-11 -7q-4 -2 -10 -3t-12 -1q-12 0 -23 4
q-4 4 -9 7t-9 7l-6 6t-6 10q-2 7 -4.5 12t-2.5 11q0 10 7 22q2 5 6 10t6 9q4 4 9 7t9 5q6 2 12.5 3t10.5 1q12 0 22 -4q7 -2 11 -5t6 -7zM1090 733q0 -4 1 -6t1 -4l28 -64h-59l29 64v4v6zM270 729q2 -2 3 -5t3 -5q3 -4 3 -10v-5.5t-3 -5.5q-2 -2 -3 -5t-3 -3l-8 -8h-10h-37
v53h37q6 0 10 -2q2 0 5 -2zM2478 1092v-586h-2404v586h911q0 30 5 58t18 54q12 27 27.5 51.5t37.5 42.5q37 39 90 62q29 12 56.5 17t56.5 5q33 0 61.5 -6t53.5 -18q28 -12 51.5 -28.5t42.5 -35.5q37 -37 61 -94q21 -53 21 -108h911zM1030 1192q-22 -47 -22 -100
q0 -58 22 -105q10 -22 24.5 -44.5t30.5 -41.5q19 -18 40.5 -32.5t45.5 -24.5q48 -23 105 -23q29 0 54.5 4t49.5 15q25 12 45.5 25.5t38.5 33.5q19 19 33 40.5t27 43.5q22 51 22 109q0 22 -4 45.5t-14 44.5q-12 41 -41 75q-14 17 -30.5 31.5t-33.5 24.5q-18 10 -37.5 19
t-39.5 18q-15 4 -32.5 6t-37.5 2q-29 0 -55.5 -5t-51.5 -18q-49 -18 -86 -57q-16 -18 -29.5 -41t-23.5 -45zM295 690q6 10 6 19q0 4 -1 9t-5 11q0 2 -4 6l-6 6q-2 4 -5.5 7.5t-9.5 3.5q-4 2 -9 4t-9 2h-53v-154h16v58h37q4 0 9 1t9 3q11 4 15 8q2 4 6 8t4 8zM410 758h-95
v-154h95v19h-72v47h59v20h-59v45h72v23zM559 604l-47 66q2 2 5 2t5 4q8 4 10 10q3 2 5 5t4 7v13v10t-2 8q-4 8 -11 14q-4 9 -14 9q-2 2 -7 4t-9 2h-56v-154h23v64h22l41 -56q2 -4 7 -6q2 -2 4 -2h6h14zM664 631q0 4 1 8t1 8q0 12 -4.5 20.5t-12.5 14.5q-2 0 -3 2t-5 4h-1
t-5 2h-2t-2 4q-6 0 -8 2q-7 0 -9 1l-6 3q-8 2 -8 5q-6 4 -6 6v8v8q2 0 4 2t2 4l3 1t5 1q4 2 6 2h4l2.5 -1t4.5 -1q8 0 8 -4q2 -2 4 -2h4q8 0 14 4l4 2q0 2 -2 4l-4 4q-4 2 -6 4.5t-6 4.5q-2 0 -4 1t-6 5q-6 0 -7 1t-6 1q-4 0 -9 -1t-9 -1q-4 -4 -7 -6t-7 -2q-2 -5 -5 -8
t-6 -7q-2 -4 -3 -7t-1 -9v-9t4 -8q3 -4 6 -7t3 -5q4 -2 8 -5t8 -3q4 -2 7 -4t7 -4q2 -2 5.5 -2h5.5q6 -2 7 -2t3 -2q4 -2 4 -3t2 -6q2 -2 2 -5v-7v-3t-2 -5q-2 -4 -2 -5t-4 -3q-2 -4 -5 -5t-5 -3h-5.5h-5.5h-7h-5q-2 2 -5 3t-3 5l-2 2q-6 4 -12 4h-4.5t-4.5 -2l-6 -2
q0 -4 2 -4q0 -4 4 -6q0 -2 2 -5l2 -2h3q8 -8 17 -10t19 -2h9.5t9.5 2t9 4t7 6q6 2 9.5 5.5t5.5 9.5zM838 659q2 7 2 11v10q0 12 -2 20q0 7 -3.5 11t-5.5 10q-4 6 -12 14q-4 4 -8 6t-10 9q-2 0 -6.5 2t-10.5 6q-6 0 -10 1t-10 1q-4 0 -10.5 -1t-10.5 -1q-6 -4 -10 -6t-8 -2
q-4 -7 -8 -9t-8 -6q-5 -4 -8 -7t-5 -7q-4 -6 -5 -10t-3 -11q-2 -8 -2 -20q0 -8 2 -15.5t4 -15.5q2 -6 6 -12t11 -14q6 -5 12 -9t14 -4q12 -6 29 -6h10h10q11 4 17 8q14 6 18 11q6 8 12 18q2 4 5.5 9t3.5 9zM997 758h-20v-119q0 2 -1 5l-1 3l-74 105q-4 0 -8 6h-4h-4h-15
v-154h21v129v-4l2 -2v0v-4l88 -119h16v154zM1169 604l-67 154h-23l-65 -154h12q6 0 8 2l3 3t5 3l9 27h79l11 -27q2 -4 6 -6q0 -2 8 -2h14zM1270 623h-66v135h-22v-154h88v19zM1479 758h-21v-92v-11t-2 -8q-2 -8 -10 -12q-2 -2 -5 -4t-5 -6q-6 -2 -9.5 -2h-7.5q-10 0 -14 2
q-6 4 -10 6t-4 4q-2 2 -4.5 5t-6.5 7q0 4 -1 8t-1 11v92h-20v-92v-12t2 -7q0 -8 4 -14q4 -10 12 -15q2 -2 5 -4t8 -4q2 -2 6 -3t6 -3q6 0 9 -2t9 -2q4 0 7.5 2t9.5 2q4 2 7 3t7 3l12 8q4 5 5 8t3 7q3 2 6 6t3 8v19v92zM1597 631q7 8 7 16q0 12 -4.5 20.5t-12.5 14.5
q-6 4 -6 6h-5t-5 2h-3t-5 4h-2t-5 2q-2 0 -4 1l-6 3q-8 2 -8 5q-4 2 -5 4t-3 2q0 2 -1 3t-1 5t4 8l6 6q2 0 3 1t5 1q0 2 10 2l2.5 -1t4.5 -1q2 -2 8 -4q8 -2 10 -2q6 0 8 4l6 2l-4 4l-4 4q0 2 -3 4.5t-5 4.5q-4 0 -6 1t-6 5q-4 0 -7.5 1l-3.5 1q-6 0 -10 -1t-8 -1
q-4 -4 -8 -6t-6 -2q-4 -5 -6 -8t-7 -7q0 -4 -2 -7t-2 -9t2 -9t2 -8q5 -8 11 -12q4 -2 7 -5t5 -3q6 -2 9 -4t7 -4t6.5 -2h4.5q2 -2 5 -2t5 -2t5 -3t3 -6q2 -2 2 -5v-7v-3t-2 -5q-2 -6 -8 -8q-4 -4 -6 -5t-4 -3h-6h-5h-7h-5q-4 2 -10 8v2q-6 4 -12 4h-3.5t-5.5 -2l-6 -2
q2 -2 2 -3t2 -1q0 -2 1 -3t1 -3l1 -1t1 -4q4 -2 7 -2q6 -8 15 -10t19 -2h10.5t10.5 2l8 4t8 6q2 2 5 5.5t5 9.5zM1722 758h-94v-154h94v19h-73v47h61v20h-61v45h73v23zM1966 659v11v10v11v9q-4 11 -10 21q-4 6 -12 14q-2 4 -6.5 6t-8.5 9q-4 0 -9 2t-9 6q-6 0 -10.5 1
t-10.5 1t-11 -1t-9 -1q-12 -6 -21 -8q-4 -7 -7 -9t-7 -6l-7 -7l-7 -7q-2 -6 -4 -10t-2 -11q-5 -8 -5 -20q0 -8 2.5 -15.5t4.5 -15.5q6 -14 18 -26q4 -5 10 -9t15 -4q12 -6 30 -6h10.5h10.5q4 2 9 4t9 4q4 4 8.5 6.5t6.5 4.5q8 8 12 18q6 8 10 18zM2126 758h-23v-119
q0 2 -1 5t-3 3l-74 105l-1 1t-3 5h-5h-5h-16v-154h24v129v-4v-2v-2l2 -2l86 -119h19v154zM2251 623h-66v135h-22v-154h88v19zM2374 758h-19q-4 0 -8 -4q-8 -4 -8 -9l-35 -47l-2 -2h-2v-2v2l-2 2l-37 47q-2 5 -6 9t-10 4h-17l56 -76l2 -2q0 -2 2 -2v-2v-2q0 -2 2 -2v-2v-66
h22v66v2v4q2 0 2 4v2h2zM1188 864q-19 8 -38.5 19.5t-33.5 25.5h322q-17 -14 -35.5 -25.5t-38.5 -19.5q-21 -6 -43.5 -12t-44.5 -6q-25 0 -46.5 6t-41.5 12zM1141 936l315 317q29 -39 45.5 -79.5t16.5 -81.5q0 -23 -3.5 -44.5t-11.5 -41.5q-8 -19 -18 -36.5t-23 -33.5h-321z
M1094 928q-27 35 -45 73q-7 21 -11 43.5t-4 47.5q0 20 4 40.5t11 41.5q6 18 16 35.5t25 33.5h319zM1364 1315q20 -8 38.5 -20.5t33.5 -22.5h-324q37 28 76 43q39 18 88 18t88 -18zM78 350q-4 4 -5 8t-3 9q-2 6 -3 10t-1 10t4 16q2 5 3 10t5 7l3 9t7 7q0 2 5 5t7 5q6 5 9.5 6
t9.5 3q2 0 8 1t10 1q8 0 14.5 -1t14.5 -5q8 -2 13 -6.5t9 -8.5q-2 -2 -4 -2v-4h-2h-2h-4h-6q-4 2 -8 5t-8 3h-7.5h-9.5h-10h-8q-8 -4 -12.5 -7t-8.5 -5q-4 -6 -7 -10t-5 -8q-4 -7 -4 -13v-8q0 -8 2 -14t3 -9.5t1 -7.5q2 -2 5 -4t5 -6q4 -2 6 -5t7 -3q2 -2 6 -4t8 -2
q2 -2 6 -2h6h10.5t8.5 2q4 0 9 2t9 4v29h-12h-2l-2 2l-3 3l-3 3l-1 1t-1 3v1v3v0h38v-53l-5 -5t-5 -6q-6 -2 -12 -2q-6 -2 -14 -2h-15h-10h-8q-6 2 -9.5 4.5t-9.5 6.5q-2 0 -7 3t-5 7q-6 2 -7 6t-3 8zM240 438v-45h55v-14h-55v-47h67v-17h-84v140h84v-17h-67zM369 315v123
h-45v17h106v-17h-47v-123h-14zM532 438v-49h60v-12h-60v-62h-16v140h84v-17h-68zM641 455v-86q0 -4 2 -7.5t4 -5.5q2 -6 5 -9t5 -7q0 -2 3.5 -4t5.5 -4q6 -2 10 -2h8h7t5 2q6 2 9.5 4t7.5 4q0 4 3 7t5 9q4 4 4 13v86h14v-86q0 -7 -1 -11t-3 -10t-5 -10t-7 -8t-8 -7.5
t-8 -5.5q-13 -2 -23 -2q-12 0 -25 2q-2 2 -7 5.5t-9 7.5q-6 6 -10 18q-2 6 -4 10t-2 11v86h14zM784 455v-123h62v-17h-78v140h16zM877 455v-123h65v-17h-80v140h15zM1069 315l-61 140h8q4 0 8 -2q2 -2 3 -2t3 -5l43 -104v-4q2 -2 2 -6v6l1 2l1 2q6 14 12.5 26.5t12.5 24.5
q4 17 10 29l12 24q0 5 2 5t2 2q2 2 3.5 2h5.5h8q-8 -17 -15.5 -34.5t-17.5 -33.5q-6 -20 -13 -36.5t-16 -35.5h-14zM1171 438v-45h58v-14h-58v-47h68v-17h-84v140h84v-17h-68zM1341 381q-2 -2 -10 -4l47 -62h-10q-2 0 -5 1l-3 1q-2 2 -4 3.5t-4 5.5l-39 51h-25v-62h-14v140
h51h5t7 -2q9 -2 15 -9q2 -4 4 -7t4 -7q2 -2 2 -7v-5v-9t-2 -6q0 -4 -2 -8t-4 -6l-4 -4t-9 -4zM1325 389q4 0 6 4q2 0 4 1t4 1l3 6t4 5q0 2 1 4t1 8l-1 2t-1 6q-3 2 -4 3t-3 5q-2 0 -4 1t-4 3h-6h-37v-49h37zM1452 336q2 2 4 8q2 2 3 6t1 6q0 6 -2 11q-2 0 -3 3t-3 5t-8 4
q-4 0 -6 1l-6 3q-5 0 -9 2t-4 4q-10 0 -14 6q-4 0 -5 4t-3 7v14v9t2 7q0 6 8 10q4 5 6 6t8 3q4 0 6.5 1t8.5 1q2 0 5 -1t5 -1t4 -1l6 -3q2 0 4 -2.5t2 -4.5q4 -2 5 -4t3 -2l-4 -2q-2 -2 -8 -2h-6q-4 2 -4 4h-2h-2h-2h-3h-1h-2h-9q-8 0 -8 -2q-6 -6 -6 -8q-4 0 -4 -8
q0 -6 4 -6q0 -4 2 -6t5 -3.5l3 -1.5q4 -4 6.5 -4t8.5 -4h3t3 -2h4t4 -4h2h1h1q2 0 4 -1l2 -1q4 -4 6 -7t7 -5q2 -10 2 -19v-10t-7 -8q0 -6 -8 -12q-2 -2 -6 -4.5t-8 -4.5t-8 -2h-10q-11 0 -18 2t-13 9q-2 0 -4 2l-4 4q0 2 -1 4l-1 2l2 2l1 1t5 1h2q2 0 4 -1t4 -3q4 -2 6 -4
t6 -2q0 -2 4 -2h7q8 0 10 2q8 0 12 4zM1524 455v-140h-17v140h17zM1579 336q-12 8 -18 20q-5 15 -5 31v7v9q7 11 9 17q6 8 14 16q6 6 12 10q4 5 9.5 6t9.5 3q4 0 8 1t10 1q4 0 9 -1t12 -1q4 -2 8 -3t8 -6l5 -5t7 -5q4 -4 6.5 -7t6.5 -9q2 -6 6 -17q2 -4 3 -9t1 -7
q0 -8 -2 -15t-6 -16q-2 -6 -5.5 -11t-9.5 -9q-6 -6 -11 -9t-11 -8q-10 -4 -27 -4q-8 0 -15 1t-11 3q-17 5 -23 17zM1579 408q-4 -7 -6 -13t-2 -8q0 -4 1 -8t1 -6q2 -8 8 -17q0 -2 2 -4t4 -6l5 -5t10 -3q2 -2 5 -4t5 -2q4 -2 8 -2h8h7t7 2q3 0 7 2l8 4q2 0 5 3l5 5q2 4 4 6
l4 4q2 4 3 7.5t3 9.5q0 2 1 6t1 8q0 2 -1 8t-5 13q0 4 -4 8t-6 10q-4 2 -8 5t-10 7h-9.5h-11.5h-12h-10q-4 -4 -9.5 -7t-9.5 -5q-2 -6 -5 -10t-3 -8zM1741 315h-17v140h13h5t5 -4l72 -103q2 0 2 -4l2 -2v-2v115h16v-140h-14l-82 115v4h-2v4v-123zM1956 438v-49h57v-12h-57
v-62h-14v140h83v-17h-69zM2114 381q-9 -2 -13 -4l45 -62h-12q-4 0 -8 2q0 2 -1 3.5t-3 5.5l-39 51h-25v-62h-16v140h51h6t8 -2t7.5 -4.5t5.5 -4.5q2 -4 4 -7t6 -7q0 -2 1 -7l1 -5q0 -6 -1 -9t-1 -6l-4 -8t-2 -6zM2101 393q2 0 3 1t3 1q7 8 7 11q2 4 2 12q0 2 -2 8q0 2 -7 8
q-2 0 -3 1l-3 3h-8h-35v-49h35q4 0 8 4zM2281 336q-4 -6 -10 -9t-12 -8q-6 -2 -12 -3t-15 -1q-8 0 -15 1t-13 3q-13 5 -23 17q-4 4 -8 9t-6 11q-2 9 -5 16t-3 15q0 2 1 7t3 9q2 5 3 10t3 7q4 6 7 9t5 7q4 2 8 5t9 5q4 5 8 6t8 3q6 0 9 1t9 1q4 0 9.5 -1t9.5 -1l9 -3t7 -6
q4 -2 8 -5t6 -5q3 -4 6 -7t5 -9q6 -6 8 -17q2 -4 3 -9t1 -7q0 -8 -1 -15t-5 -16q-2 -6 -6 -11t-11 -9zM2232 330h7.5t9.5 2q2 0 5 2t5 4q2 0 6 3t8 5l3 6t3 4q2 4 3.5 7.5t1.5 9.5q2 2 2 6v8q0 2 -1 8t-1 13l-6 8t-5 10q-6 2 -11 5t-9 7h-10.5h-10.5h-11h-11q-6 -4 -9 -7
t-8 -5q-6 -6 -8 -10l-4 -8q-2 -7 -2 -13v-8v-14q0 -6 1 -9.5t5 -7.5q0 -2 3 -4t5 -6q2 -2 5.5 -5t5.5 -3q2 -2 5 -4t9 -2q2 -2 6 -2h8zM2460 453q2 2 3 2h3h12v-140h-14v115l-2 -2v0v-2q-4 -8 -6 -17.5t-7 -15.5q-4 -6 -7 -12l-7 -14q-2 -9 -4 -15l-4 -12q-4 -6 -7 -11
t-5 -14h-15q-10 13 -15 27t-11 27q-4 14 -11.5 28.5t-11.5 28.5v2l-4 2v-115h-16v140h14q6 0 8 -2l2 -2v-5l49 -108q0 -2 2 -2v-4q0 2 1 4t1 4q0 4 5 8l43 98q0 5 1 5t3 2zM74 262h157v-20v-4v-5q0 -4 -2 -6l-4 -4l-106 -145h2v2h4h2h104v-37h-165v12q0 11 2 13q0 2 4 8
q2 2 2 4t2 4t3 4l3 6l94 129h-102v39zM260 262h139v-39h-100v-49h80v-41h-80v-53h100v-37h-139v219zM571 223h-59v-180h-43v180h-63v39h165v-39zM672 262l94 -219h-25q-8 0 -16 4q-4 2 -5 6t-5 8l-13 29h-100l-10 -29q-2 -4 -3 -5t-3 -1q0 -4 -1 -5t-5 -3q-2 0 -4.5 -1
t-4.5 -1q0 -2 -2 -2h-4h-24l94 219h37zM684 129l-27 68q0 2 -1 3t-1 3q0 4 -2 6v-6q0 -2 -2 -3t-2 -3l-26 -68h61zM774 262h139v-39h-100v-55h82v-39h-82v-86h-39v219zM1133 207q4 -6 6 -12.5t6 -12.5q2 -8 2 -15v-13v-17t-2 -14q-4 -6 -6 -13.5t-6 -13.5q-5 -4 -9 -10
l-8 -12q-8 -4 -12 -9.5t-10 -7.5q-7 -6 -14 -8t-13 -4q-8 -2 -15.5 -3t-15.5 -1q-10 0 -21 3t-22 5q-12 6 -19 12.5t-18 12.5q-14 16 -20 35q-6 12 -8 22t-2 23q0 6 1 13t3 15q4 17 12 25q4 8 7 13t7 11q9 5 14 9t11 8t12 6t15 6q6 0 13 1t15 1t15.5 -1t15.5 -1q6 -4 13 -6
t14 -6q6 -4 10 -8t12 -9q4 -6 8 -11t9 -13zM1104 127q2 6 3 12t1 15q0 12 -4 24q-4 10 -8 15.5t-11 9.5q-4 4 -9 8t-11 6q-12 6 -29 6q-16 0 -28 -6q-4 -2 -9.5 -6t-11.5 -8t-9 -9.5t-7 -15.5q-4 -4 -4 -11v-13v-15t4 -12q4 -8 7 -14.5t9 -10.5t11.5 -8t9.5 -8q8 -2 14 -4
t14 -2t14.5 2t14.5 4q6 4 11 8t9 8q7 4 11 10.5t8 14.5zM1329 262h39v-219h-37l-102 147q-2 0 -2 1.5t-2 3.5q-2 4 -2 6q-4 0 -4 4l-1 1t-4 3v-166h-38v219h34q4 0 8.5 -1t4.5 -3l6 -3t4 -3q10 -16 21.5 -31.5t21.5 -34.5q12 -14 23.5 -29.5t25.5 -29.5q0 -4 1 -6t1 -6
q0 -2 1 -4t1 -5v156zM1389 262h165v-39h-65v-180h-39v180h-61v39zM1690 150q2 -5 5 -9t5 -8q0 -4 2 -9t2 -13q0 -13 -6 -27l-8 -12t-9 -11q-8 -4 -12 -8t-12 -6t-15.5 -4t-13.5 -2q-8 0 -15 2t-18 4q-6 2 -11 6t-13 13q-4 2 -6 5t-4 7q-5 2 -5 12l1.5 1t3.5 3q2 0 2 1t2 1
t4 1l2 1h10h3t3 -2q6 0 10 -2q5 -4 9 -6t6 -4q2 0 6 -2t10 -2q2 0 5 1t7 3q7 2 13 6l8 8q2 4 4 6t2 7q0 8 -6 12q-4 6 -8 6q-4 4 -7.5 5t-5.5 1q-6 2 -16 8q-4 0 -9 1t-9 6q-9 2 -13 5t-8 7q-6 4 -9 8t-5 8q-6 12 -6 25q0 18 6 26q2 7 6 11t10 8q4 4 9.5 6t13.5 6q4 0 10 1
t14 1q4 0 8.5 -1t10.5 -1q4 -2 7 -4t9 -4q2 -2 6 -5t8 -7q3 -2 6 -5.5t5 -7.5l-8 -4l-6 -4t-3 -4h-8h-4h-4h-2q-6 0 -6 2l-8 4q-3 0 -4 1l-1 1h-6h-12q-4 0 -5 -1t-5 -3q-2 -2 -4 -8q-2 -2 -2 -8t2 -6q2 -2 3 -4.5t1 -6.5q4 0 7 -1t5 -1q6 -2 11 -4t7 -4l11 -2q4 -4 9 -5
t11 -7q10 -2 17 -12zM1755 80q6 0 6 -6q2 0 2 -3v-5q0 -7 -2 -11q0 -4 -6 -8q-4 0 -6 -4q-2 0 -4 -1t-6 -1q-2 0 -4 1t-4 1q-2 2 -4.5 3t-4.5 1q-2 2 -3 4t-3 4q-2 4 -2 11v5t2 3q2 4 3 5t3 1q7 6 9 6q2 2 4 3t4 1q4 0 6 -1t4 -3q2 0 6 -6zM1839 203q-8 -8 -16 -25
q-2 -4 -4 -11t-2 -13q0 -9 2 -15l4 -12q4 -8 7 -14.5t9 -10.5q4 -4 9 -8t14 -8q8 -2 14 -4t14 -2q6 0 10.5 2t10.5 2q4 2 9 5t9 7q4 0 8 2h7h6t6 -2q6 -2 10 -6l6 -10q-6 -8 -16 -14q-6 -5 -10 -8t-11 -5q-6 -4 -11 -5t-11 -3t-11.5 -3t-11.5 -1q-14 0 -24.5 3t-20.5 5
q-20 10 -35 25q-16 16 -24 35q-2 12 -5 22t-3 23q0 6 1 13t3 15q2 6 4 12.5t6 12.5q6 8 9 13t9 11q7 5 12 9t13 8q4 4 10 6t17 6q4 0 12 1t16 1h11.5t11.5 -2t11 -4t11 -4q7 -2 11 -5t10 -7q10 -9 16 -17l-6 -8l-5 -5t-5 -3h-7h-5h-8t-7 2q-4 4 -9 7t-9 5q-6 2 -10.5 2
h-10.5q-16 0 -28 -6q-9 -2 -14 -6t-9 -8zM2195 207q3 -6 6 -12.5t5 -12.5q2 -8 2 -15v-13v-17t-2 -14t-5 -13.5t-6 -13.5q-8 -10 -16 -22q-8 -4 -14 -9.5t-11 -7.5q-6 -6 -13 -8t-15 -4q-6 -2 -13.5 -3t-15.5 -1q-20 0 -43 8q-8 6 -17 12.5t-16 12.5q-8 8 -14 16t-10 19
q-4 12 -6 22t-2 23q0 6 1 13t1 15q2 6 6 12.5t6 12.5q4 8 8 13t10 11q4 5 10.5 9t12.5 8q4 4 11 6t13 6q9 0 16 1t13 1q8 0 15.5 -1t13.5 -1q8 -4 15 -6t13 -6q5 -4 11 -8t14 -9q2 -6 8 -11t8 -13zM2165 127q4 10 4 27q0 6 -1 13t-3 11q-4 10 -7.5 15.5t-7.5 9.5
q-10 10 -24 14q-6 4 -13.5 5t-15.5 1q-14 0 -26 -6q-7 -2 -12 -6t-11 -8q-4 -4 -8 -9.5t-8 -15.5q-2 -4 -3 -11t-1 -13q0 -9 1 -15t3 -12q8 -16 16 -25q6 -4 11 -8t12 -8q6 -2 14 -4t12 -2q8 0 15.5 2t13.5 4q6 4 13 8t11 8q9 9 15 25zM2433 260l1 1t5 1h39v-219h-39v160
q0 -2 -1 -4l-3 -6v-7t-2 -4q-6 -18 -14.5 -35.5t-14.5 -33.5q-6 -17 -13 -34.5t-13 -35.5h-39l-55 139q-3 2 -3 11q-2 4 -3 5t-1 3v-158h-41v219h39q4 0 6.5 -1l2.5 -1q4 -2 5 -2t3 -2l6 -4l4 -4t2 -4q4 -17 11 -32t14 -34q6 -16 13 -32.5t13 -32.5v-2v-5v-4q4 0 4 -4v4v4
q0 3 1 5l1 2l9 16l45 115q0 2 1 4t1 4q2 2 5 3l3 1q2 2 4 2t4 2z" />
    <glyph glyph-name="eight" unicode="8" horiz-adv-x="2531" 
d="M1929 721q4 -4 8.5 -9t6.5 -10q0 -6 1 -11t1 -11q0 -12 -2 -23q-2 -6 -6.5 -10t-8.5 -6q-4 -4 -8 -7t-8 -7q-12 -4 -23 -4q-6 0 -12 1t-10 3l-10.5 7t-8.5 7q-4 2 -7 6t-3 10q-4 7 -5 12t-1 11q0 10 6 22q0 5 3 10t7 9t8.5 7t10.5 5q8 4 22 4q6 0 10.5 -1t12.5 -3
q4 -2 8 -5t8 -7zM518 702q0 -2 -4 -8q-2 0 -3 -2t-5 -2q-2 -2 -8 -2h-33v47h33q4 0 8 -2q4 0 5 -1l3 -3l4 -8q2 -2 2 -10q0 -6 -2 -9zM801 721q4 -4 8 -9t6 -10q2 -6 3 -11t1 -11t-1 -11t-3 -12q-2 -6 -6 -10t-8 -6q-2 -4 -6 -7t-11 -7q-4 -2 -10 -3t-12 -1q-12 0 -23 4
q-4 4 -9 7t-9 7l-6 6t-6 10q-2 7 -4.5 12t-2.5 11q0 10 7 22q2 5 6 10t6 9q4 4 9 7t9 5q6 2 12.5 3t10.5 1q12 0 22 -4q7 -2 11 -5t6 -7zM1090 733q0 -4 1 -6t1 -4l28 -64h-59l29 64v4v6zM270 729q2 -2 3 -5t3 -5q3 -4 3 -10v-5.5t-3 -5.5q-2 -2 -3 -5t-3 -3l-8 -8h-10h-37
v53h37q6 0 10 -2q2 0 5 -2zM2478 1092v-586h-2404v586h911q0 30 5 58t18 54q12 27 27.5 51.5t37.5 42.5q37 39 90 62q29 12 56.5 17t56.5 5q33 0 61.5 -6t53.5 -18q28 -12 51.5 -28.5t42.5 -35.5q37 -37 61 -94q21 -53 21 -108h911zM1030 1192q-22 -47 -22 -100
q0 -58 22 -105q10 -22 24.5 -44.5t30.5 -41.5q19 -18 40.5 -32.5t45.5 -24.5q48 -23 105 -23q29 0 54.5 4t49.5 15q25 12 45.5 25.5t38.5 33.5q19 19 33 40.5t27 43.5q22 51 22 109q0 22 -4 45.5t-14 44.5q-12 41 -41 75q-14 17 -30.5 31.5t-33.5 24.5q-18 10 -37.5 19
t-39.5 18q-15 4 -32.5 6t-37.5 2q-29 0 -55.5 -5t-51.5 -18q-49 -18 -86 -57q-16 -18 -29.5 -41t-23.5 -45zM295 690q6 10 6 19q0 4 -1 9t-5 11q0 2 -4 6l-6 6q-2 4 -5.5 7.5t-9.5 3.5q-4 2 -9 4t-9 2h-53v-154h16v58h37q4 0 9 1t9 3q11 4 15 8q2 4 6 8t4 8zM410 758h-95
v-154h95v19h-72v47h59v20h-59v45h72v23zM559 604l-47 66q2 2 5 2t5 4q8 4 10 10q3 2 5 5t4 7v13v10t-2 8q-4 8 -11 14q-4 9 -14 9q-2 2 -7 4t-9 2h-56v-154h23v64h22l41 -56q2 -4 7 -6q2 -2 4 -2h6h14zM664 631q0 4 1 8t1 8q0 12 -4.5 20.5t-12.5 14.5q-2 0 -3 2t-5 4h-1
t-5 2h-2t-2 4q-6 0 -8 2q-7 0 -9 1l-6 3q-8 2 -8 5q-6 4 -6 6v8v8q2 0 4 2t2 4l3 1t5 1q4 2 6 2h4l2.5 -1t4.5 -1q8 0 8 -4q2 -2 4 -2h4q8 0 14 4l4 2q0 2 -2 4l-4 4q-4 2 -6 4.5t-6 4.5q-2 0 -4 1t-6 5q-6 0 -7 1t-6 1q-4 0 -9 -1t-9 -1q-4 -4 -7 -6t-7 -2q-2 -5 -5 -8
t-6 -7q-2 -4 -3 -7t-1 -9v-9t4 -8q3 -4 6 -7t3 -5q4 -2 8 -5t8 -3q4 -2 7 -4t7 -4q2 -2 5.5 -2h5.5q6 -2 7 -2t3 -2q4 -2 4 -3t2 -6q2 -2 2 -5v-7v-3t-2 -5q-2 -4 -2 -5t-4 -3q-2 -4 -5 -5t-5 -3h-5.5h-5.5h-7h-5q-2 2 -5 3t-3 5l-2 2q-6 4 -12 4h-4.5t-4.5 -2l-6 -2
q0 -4 2 -4q0 -4 4 -6q0 -2 2 -5l2 -2h3q8 -8 17 -10t19 -2h9.5t9.5 2t9 4t7 6q6 2 9.5 5.5t5.5 9.5zM838 659q2 7 2 11v10q0 12 -2 20q0 7 -3.5 11t-5.5 10q-4 6 -12 14q-4 4 -8 6t-10 9q-2 0 -6.5 2t-10.5 6q-6 0 -10 1t-10 1q-4 0 -10.5 -1t-10.5 -1q-6 -4 -10 -6t-8 -2
q-4 -7 -8 -9t-8 -6q-5 -4 -8 -7t-5 -7q-4 -6 -5 -10t-3 -11q-2 -8 -2 -20q0 -8 2 -15.5t4 -15.5q2 -6 6 -12t11 -14q6 -5 12 -9t14 -4q12 -6 29 -6h10h10q11 4 17 8q14 6 18 11q6 8 12 18q2 4 5.5 9t3.5 9zM997 758h-20v-119q0 2 -1 5l-1 3l-74 105q-4 0 -8 6h-4h-4h-15
v-154h21v129v-4l2 -2v0v-4l88 -119h16v154zM1169 604l-67 154h-23l-65 -154h12q6 0 8 2l3 3t5 3l9 27h79l11 -27q2 -4 6 -6q0 -2 8 -2h14zM1270 623h-66v135h-22v-154h88v19zM1479 758h-21v-92v-11t-2 -8q-2 -8 -10 -12q-2 -2 -5 -4t-5 -6q-6 -2 -9.5 -2h-7.5q-10 0 -14 2
q-6 4 -10 6t-4 4q-2 2 -4.5 5t-6.5 7q0 4 -1 8t-1 11v92h-20v-92v-12t2 -7q0 -8 4 -14q4 -10 12 -15q2 -2 5 -4t8 -4q2 -2 6 -3t6 -3q6 0 9 -2t9 -2q4 0 7.5 2t9.5 2q4 2 7 3t7 3l12 8q4 5 5 8t3 7q3 2 6 6t3 8v19v92zM1597 631q7 8 7 16q0 12 -4.5 20.5t-12.5 14.5
q-6 4 -6 6h-5t-5 2h-3t-5 4h-2t-5 2q-2 0 -4 1l-6 3q-8 2 -8 5q-4 2 -5 4t-3 2q0 2 -1 3t-1 5t4 8l6 6q2 0 3 1t5 1q0 2 10 2l2.5 -1t4.5 -1q2 -2 8 -4q8 -2 10 -2q6 0 8 4l6 2l-4 4l-4 4q0 2 -3 4.5t-5 4.5q-4 0 -6 1t-6 5q-4 0 -7.5 1l-3.5 1q-6 0 -10 -1t-8 -1
q-4 -4 -8 -6t-6 -2q-4 -5 -6 -8t-7 -7q0 -4 -2 -7t-2 -9t2 -9t2 -8q5 -8 11 -12q4 -2 7 -5t5 -3q6 -2 9 -4t7 -4t6.5 -2h4.5q2 -2 5 -2t5 -2t5 -3t3 -6q2 -2 2 -5v-7v-3t-2 -5q-2 -6 -8 -8q-4 -4 -6 -5t-4 -3h-6h-5h-7h-5q-4 2 -10 8v2q-6 4 -12 4h-3.5t-5.5 -2l-6 -2
q2 -2 2 -3t2 -1q0 -2 1 -3t1 -3l1 -1t1 -4q4 -2 7 -2q6 -8 15 -10t19 -2h10.5t10.5 2l8 4t8 6q2 2 5 5.5t5 9.5zM1722 758h-94v-154h94v19h-73v47h61v20h-61v45h73v23zM1966 659v11v10v11v9q-4 11 -10 21q-4 6 -12 14q-2 4 -6.5 6t-8.5 9q-4 0 -9 2t-9 6q-6 0 -10.5 1
t-10.5 1t-11 -1t-9 -1q-12 -6 -21 -8q-4 -7 -7 -9t-7 -6l-7 -7l-7 -7q-2 -6 -4 -10t-2 -11q-5 -8 -5 -20q0 -8 2.5 -15.5t4.5 -15.5q6 -14 18 -26q4 -5 10 -9t15 -4q12 -6 30 -6h10.5h10.5q4 2 9 4t9 4q4 4 8.5 6.5t6.5 4.5q8 8 12 18q6 8 10 18zM2126 758h-23v-119
q0 2 -1 5t-3 3l-74 105l-1 1t-3 5h-5h-5h-16v-154h24v129v-4v-2v-2l2 -2l86 -119h19v154zM2251 623h-66v135h-22v-154h88v19zM2374 758h-19q-4 0 -8 -4q-8 -4 -8 -9l-35 -47l-2 -2h-2v-2v2l-2 2l-37 47q-2 5 -6 9t-10 4h-17l56 -76l2 -2q0 -2 2 -2v-2v-2q0 -2 2 -2v-2v-66
h22v66v2v4q2 0 2 4v2h2zM1188 864q-19 8 -38.5 19.5t-33.5 25.5h322q-17 -14 -35.5 -25.5t-38.5 -19.5q-21 -6 -43.5 -12t-44.5 -6q-25 0 -46.5 6t-41.5 12zM1141 936l315 317q29 -39 45.5 -79.5t16.5 -81.5q0 -23 -3.5 -44.5t-11.5 -41.5q-8 -19 -18 -36.5t-23 -33.5h-321z
M1094 928q-27 35 -45 73q-7 21 -11 43.5t-4 47.5q0 20 4 40.5t11 41.5q6 18 16 35.5t25 33.5h319zM1364 1315q20 -8 38.5 -20.5t33.5 -22.5h-324q37 28 76 43q39 18 88 18t88 -18zM78 350q-4 4 -5 8t-3 9q-2 6 -3 10t-1 10t4 16q2 5 3 10t5 7l3 9t7 7q0 2 5 5t7 5q6 5 9.5 6
t9.5 3q2 0 8 1t10 1q8 0 14.5 -1t14.5 -5q8 -2 13 -6.5t9 -8.5q-2 -2 -4 -2v-4h-2h-2h-4h-6q-4 2 -8 5t-8 3h-7.5h-9.5h-10h-8q-8 -4 -12.5 -7t-8.5 -5q-4 -6 -7 -10t-5 -8q-4 -7 -4 -13v-8q0 -8 2 -14t3 -9.5t1 -7.5q2 -2 5 -4t5 -6q4 -2 6 -5t7 -3q2 -2 6 -4t8 -2
q2 -2 6 -2h6h10.5t8.5 2q4 0 9 2t9 4v29h-12h-2l-2 2l-3 3l-3 3l-1 1t-1 3v1v3v0h38v-53l-5 -5t-5 -6q-6 -2 -12 -2q-6 -2 -14 -2h-15h-10h-8q-6 2 -9.5 4.5t-9.5 6.5q-2 0 -7 3t-5 7q-6 2 -7 6t-3 8zM240 438v-45h55v-14h-55v-47h67v-17h-84v140h84v-17h-67zM369 315v123
h-45v17h106v-17h-47v-123h-14zM532 438v-49h60v-12h-60v-62h-16v140h84v-17h-68zM641 455v-86q0 -4 2 -7.5t4 -5.5q2 -6 5 -9t5 -7q0 -2 3.5 -4t5.5 -4q6 -2 10 -2h8h7t5 2q6 2 9.5 4t7.5 4q0 4 3 7t5 9q4 4 4 13v86h14v-86q0 -7 -1 -11t-3 -10t-5 -10t-7 -8t-8 -7.5
t-8 -5.5q-13 -2 -23 -2q-12 0 -25 2q-2 2 -7 5.5t-9 7.5q-6 6 -10 18q-2 6 -4 10t-2 11v86h14zM784 455v-123h62v-17h-78v140h16zM877 455v-123h65v-17h-80v140h15zM1069 315l-61 140h8q4 0 8 -2q2 -2 3 -2t3 -5l43 -104v-4q2 -2 2 -6v6l1 2l1 2q6 14 12.5 26.5t12.5 24.5
q4 17 10 29l12 24q0 5 2 5t2 2q2 2 3.5 2h5.5h8q-8 -17 -15.5 -34.5t-17.5 -33.5q-6 -20 -13 -36.5t-16 -35.5h-14zM1171 438v-45h58v-14h-58v-47h68v-17h-84v140h84v-17h-68zM1341 381q-2 -2 -10 -4l47 -62h-10q-2 0 -5 1l-3 1q-2 2 -4 3.5t-4 5.5l-39 51h-25v-62h-14v140
h51h5t7 -2q9 -2 15 -9q2 -4 4 -7t4 -7q2 -2 2 -7v-5v-9t-2 -6q0 -4 -2 -8t-4 -6l-4 -4t-9 -4zM1325 389q4 0 6 4q2 0 4 1t4 1l3 6t4 5q0 2 1 4t1 8l-1 2t-1 6q-3 2 -4 3t-3 5q-2 0 -4 1t-4 3h-6h-37v-49h37zM1452 336q2 2 4 8q2 2 3 6t1 6q0 6 -2 11q-2 0 -3 3t-3 5t-8 4
q-4 0 -6 1l-6 3q-5 0 -9 2t-4 4q-10 0 -14 6q-4 0 -5 4t-3 7v14v9t2 7q0 6 8 10q4 5 6 6t8 3q4 0 6.5 1t8.5 1q2 0 5 -1t5 -1t4 -1l6 -3q2 0 4 -2.5t2 -4.5q4 -2 5 -4t3 -2l-4 -2q-2 -2 -8 -2h-6q-4 2 -4 4h-2h-2h-2h-3h-1h-2h-9q-8 0 -8 -2q-6 -6 -6 -8q-4 0 -4 -8
q0 -6 4 -6q0 -4 2 -6t5 -3.5l3 -1.5q4 -4 6.5 -4t8.5 -4h3t3 -2h4t4 -4h2h1h1q2 0 4 -1l2 -1q4 -4 6 -7t7 -5q2 -10 2 -19v-10t-7 -8q0 -6 -8 -12q-2 -2 -6 -4.5t-8 -4.5t-8 -2h-10q-11 0 -18 2t-13 9q-2 0 -4 2l-4 4q0 2 -1 4l-1 2l2 2l1 1t5 1h2q2 0 4 -1t4 -3q4 -2 6 -4
t6 -2q0 -2 4 -2h7q8 0 10 2q8 0 12 4zM1524 455v-140h-17v140h17zM1579 336q-12 8 -18 20q-5 15 -5 31v7v9q7 11 9 17q6 8 14 16q6 6 12 10q4 5 9.5 6t9.5 3q4 0 8 1t10 1q4 0 9 -1t12 -1q4 -2 8 -3t8 -6l5 -5t7 -5q4 -4 6.5 -7t6.5 -9q2 -6 6 -17q2 -4 3 -9t1 -7
q0 -8 -2 -15t-6 -16q-2 -6 -5.5 -11t-9.5 -9q-6 -6 -11 -9t-11 -8q-10 -4 -27 -4q-8 0 -15 1t-11 3q-17 5 -23 17zM1579 408q-4 -7 -6 -13t-2 -8q0 -4 1 -8t1 -6q2 -8 8 -17q0 -2 2 -4t4 -6l5 -5t10 -3q2 -2 5 -4t5 -2q4 -2 8 -2h8h7t7 2q3 0 7 2l8 4q2 0 5 3l5 5q2 4 4 6
l4 4q2 4 3 7.5t3 9.5q0 2 1 6t1 8q0 2 -1 8t-5 13q0 4 -4 8t-6 10q-4 2 -8 5t-10 7h-9.5h-11.5h-12h-10q-4 -4 -9.5 -7t-9.5 -5q-2 -6 -5 -10t-3 -8zM1741 315h-17v140h13h5t5 -4l72 -103q2 0 2 -4l2 -2v-2v115h16v-140h-14l-82 115v4h-2v4v-123zM1956 438v-49h57v-12h-57
v-62h-14v140h83v-17h-69zM2114 381q-9 -2 -13 -4l45 -62h-12q-4 0 -8 2q0 2 -1 3.5t-3 5.5l-39 51h-25v-62h-16v140h51h6t8 -2t7.5 -4.5t5.5 -4.5q2 -4 4 -7t6 -7q0 -2 1 -7l1 -5q0 -6 -1 -9t-1 -6l-4 -8t-2 -6zM2101 393q2 0 3 1t3 1q7 8 7 11q2 4 2 12q0 2 -2 8q0 2 -7 8
q-2 0 -3 1l-3 3h-8h-35v-49h35q4 0 8 4zM2281 336q-4 -6 -10 -9t-12 -8q-6 -2 -12 -3t-15 -1q-8 0 -15 1t-13 3q-13 5 -23 17q-4 4 -8 9t-6 11q-2 9 -5 16t-3 15q0 2 1 7t3 9q2 5 3 10t3 7q4 6 7 9t5 7q4 2 8 5t9 5q4 5 8 6t8 3q6 0 9 1t9 1q4 0 9.5 -1t9.5 -1l9 -3t7 -6
q4 -2 8 -5t6 -5q3 -4 6 -7t5 -9q6 -6 8 -17q2 -4 3 -9t1 -7q0 -8 -1 -15t-5 -16q-2 -6 -6 -11t-11 -9zM2232 330h7.5t9.5 2q2 0 5 2t5 4q2 0 6 3t8 5l3 6t3 4q2 4 3.5 7.5t1.5 9.5q2 2 2 6v8q0 2 -1 8t-1 13l-6 8t-5 10q-6 2 -11 5t-9 7h-10.5h-10.5h-11h-11q-6 -4 -9 -7
t-8 -5q-6 -6 -8 -10l-4 -8q-2 -7 -2 -13v-8v-14q0 -6 1 -9.5t5 -7.5q0 -2 3 -4t5 -6q2 -2 5.5 -5t5.5 -3q2 -2 5 -4t9 -2q2 -2 6 -2h8zM2460 453q2 2 3 2h3h12v-140h-14v115l-2 -2v0v-2q-4 -8 -6 -17.5t-7 -15.5q-4 -6 -7 -12l-7 -14q-2 -9 -4 -15l-4 -12q-4 -6 -7 -11
t-5 -14h-15q-10 13 -15 27t-11 27q-4 14 -11.5 28.5t-11.5 28.5v2l-4 2v-115h-16v140h14q6 0 8 -2l2 -2v-5l49 -108q0 -2 2 -2v-4q0 2 1 4t1 4q0 4 5 8l43 98q0 5 1 5t3 2zM74 262h157v-20v-4v-5q0 -4 -2 -6l-4 -4l-106 -145h2v2h4h2h104v-37h-165v12q0 11 2 13q0 2 4 8
q2 2 2 4t2 4t3 4l3 6l94 129h-102v39zM260 262h139v-39h-100v-49h80v-41h-80v-53h100v-37h-139v219zM571 223h-59v-180h-43v180h-63v39h165v-39zM672 262l94 -219h-25q-8 0 -16 4q-4 2 -5 6t-5 8l-13 29h-100l-10 -29q-2 -4 -3 -5t-3 -1q0 -4 -1 -5t-5 -3q-2 0 -4.5 -1
t-4.5 -1q0 -2 -2 -2h-4h-24l94 219h37zM684 129l-27 68q0 2 -1 3t-1 3q0 4 -2 6v-6q0 -2 -2 -3t-2 -3l-26 -68h61zM774 262h139v-39h-100v-55h82v-39h-82v-86h-39v219zM1133 207q4 -6 6 -12.5t6 -12.5q2 -8 2 -15v-13v-17t-2 -14q-4 -6 -6 -13.5t-6 -13.5q-5 -4 -9 -10
l-8 -12q-8 -4 -12 -9.5t-10 -7.5q-7 -6 -14 -8t-13 -4q-8 -2 -15.5 -3t-15.5 -1q-10 0 -21 3t-22 5q-12 6 -19 12.5t-18 12.5q-14 16 -20 35q-6 12 -8 22t-2 23q0 6 1 13t3 15q4 17 12 25q4 8 7 13t7 11q9 5 14 9t11 8t12 6t15 6q6 0 13 1t15 1t15.5 -1t15.5 -1q6 -4 13 -6
t14 -6q6 -4 10 -8t12 -9q4 -6 8 -11t9 -13zM1104 127q2 6 3 12t1 15q0 12 -4 24q-4 10 -8 15.5t-11 9.5q-4 4 -9 8t-11 6q-12 6 -29 6q-16 0 -28 -6q-4 -2 -9.5 -6t-11.5 -8t-9 -9.5t-7 -15.5q-4 -4 -4 -11v-13v-15t4 -12q4 -8 7 -14.5t9 -10.5t11.5 -8t9.5 -8q8 -2 14 -4
t14 -2t14.5 2t14.5 4q6 4 11 8t9 8q7 4 11 10.5t8 14.5zM1329 262h39v-219h-37l-102 147q-2 0 -2 1.5t-2 3.5q-2 4 -2 6q-4 0 -4 4l-1 1t-4 3v-166h-38v219h34q4 0 8.5 -1t4.5 -3l6 -3t4 -3q10 -16 21.5 -31.5t21.5 -34.5q12 -14 23.5 -29.5t25.5 -29.5q0 -4 1 -6t1 -6
q0 -2 1 -4t1 -5v156zM1389 262h165v-39h-65v-180h-39v180h-61v39zM1690 150q2 -5 5 -9t5 -8q0 -4 2 -9t2 -13q0 -13 -6 -27l-8 -12t-9 -11q-8 -4 -12 -8t-12 -6t-15.5 -4t-13.5 -2q-8 0 -15 2t-18 4q-6 2 -11 6t-13 13q-4 2 -6 5t-4 7q-5 2 -5 12l1.5 1t3.5 3q2 0 2 1t2 1
t4 1l2 1h10h3t3 -2q6 0 10 -2q5 -4 9 -6t6 -4q2 0 6 -2t10 -2q2 0 5 1t7 3q7 2 13 6l8 8q2 4 4 6t2 7q0 8 -6 12q-4 6 -8 6q-4 4 -7.5 5t-5.5 1q-6 2 -16 8q-4 0 -9 1t-9 6q-9 2 -13 5t-8 7q-6 4 -9 8t-5 8q-6 12 -6 25q0 18 6 26q2 7 6 11t10 8q4 4 9.5 6t13.5 6q4 0 10 1
t14 1q4 0 8.5 -1t10.5 -1q4 -2 7 -4t9 -4q2 -2 6 -5t8 -7q3 -2 6 -5.5t5 -7.5l-8 -4l-6 -4t-3 -4h-8h-4h-4h-2q-6 0 -6 2l-8 4q-3 0 -4 1l-1 1h-6h-12q-4 0 -5 -1t-5 -3q-2 -2 -4 -8q-2 -2 -2 -8t2 -6q2 -2 3 -4.5t1 -6.5q4 0 7 -1t5 -1q6 -2 11 -4t7 -4l11 -2q4 -4 9 -5
t11 -7q10 -2 17 -12zM1755 80q6 0 6 -6q2 0 2 -3v-5q0 -7 -2 -11q0 -4 -6 -8q-4 0 -6 -4q-2 0 -4 -1t-6 -1q-2 0 -4 1t-4 1q-2 2 -4.5 3t-4.5 1q-2 2 -3 4t-3 4q-2 4 -2 11v5t2 3q2 4 3 5t3 1q7 6 9 6q2 2 4 3t4 1q4 0 6 -1t4 -3q2 0 6 -6zM1839 203q-8 -8 -16 -25
q-2 -4 -4 -11t-2 -13q0 -9 2 -15l4 -12q4 -8 7 -14.5t9 -10.5q4 -4 9 -8t14 -8q8 -2 14 -4t14 -2q6 0 10.5 2t10.5 2q4 2 9 5t9 7q4 0 8 2h7h6t6 -2q6 -2 10 -6l6 -10q-6 -8 -16 -14q-6 -5 -10 -8t-11 -5q-6 -4 -11 -5t-11 -3t-11.5 -3t-11.5 -1q-14 0 -24.5 3t-20.5 5
q-20 10 -35 25q-16 16 -24 35q-2 12 -5 22t-3 23q0 6 1 13t3 15q2 6 4 12.5t6 12.5q6 8 9 13t9 11q7 5 12 9t13 8q4 4 10 6t17 6q4 0 12 1t16 1h11.5t11.5 -2t11 -4t11 -4q7 -2 11 -5t10 -7q10 -9 16 -17l-6 -8l-5 -5t-5 -3h-7h-5h-8t-7 2q-4 4 -9 7t-9 5q-6 2 -10.5 2
h-10.5q-16 0 -28 -6q-9 -2 -14 -6t-9 -8zM2195 207q3 -6 6 -12.5t5 -12.5q2 -8 2 -15v-13v-17t-2 -14t-5 -13.5t-6 -13.5q-8 -10 -16 -22q-8 -4 -14 -9.5t-11 -7.5q-6 -6 -13 -8t-15 -4q-6 -2 -13.5 -3t-15.5 -1q-20 0 -43 8q-8 6 -17 12.5t-16 12.5q-8 8 -14 16t-10 19
q-4 12 -6 22t-2 23q0 6 1 13t1 15q2 6 6 12.5t6 12.5q4 8 8 13t10 11q4 5 10.5 9t12.5 8q4 4 11 6t13 6q9 0 16 1t13 1q8 0 15.5 -1t13.5 -1q8 -4 15 -6t13 -6q5 -4 11 -8t14 -9q2 -6 8 -11t8 -13zM2165 127q4 10 4 27q0 6 -1 13t-3 11q-4 10 -7.5 15.5t-7.5 9.5
q-10 10 -24 14q-6 4 -13.5 5t-15.5 1q-14 0 -26 -6q-7 -2 -12 -6t-11 -8q-4 -4 -8 -9.5t-8 -15.5q-2 -4 -3 -11t-1 -13q0 -9 1 -15t3 -12q8 -16 16 -25q6 -4 11 -8t12 -8q6 -2 14 -4t12 -2q8 0 15.5 2t13.5 4q6 4 13 8t11 8q9 9 15 25zM2433 260l1 1t5 1h39v-219h-39v160
q0 -2 -1 -4l-3 -6v-7t-2 -4q-6 -18 -14.5 -35.5t-14.5 -33.5q-6 -17 -13 -34.5t-13 -35.5h-39l-55 139q-3 2 -3 11q-2 4 -3 5t-1 3v-158h-41v219h39q4 0 6.5 -1l2.5 -1q4 -2 5 -2t3 -2l6 -4l4 -4t2 -4q4 -17 11 -32t14 -34q6 -16 13 -32.5t13 -32.5v-2v-5v-4q4 0 4 -4v4v4
q0 3 1 5l1 2l9 16l45 115q0 2 1 4t1 4q2 2 5 3l3 1q2 2 4 2t4 2z" />
    <glyph glyph-name="nine" unicode="9" horiz-adv-x="2531" 
d="M1929 721q4 -4 8.5 -9t6.5 -10q0 -6 1 -11t1 -11q0 -12 -2 -23q-2 -6 -6.5 -10t-8.5 -6q-4 -4 -8 -7t-8 -7q-12 -4 -23 -4q-6 0 -12 1t-10 3l-10.5 7t-8.5 7q-4 2 -7 6t-3 10q-4 7 -5 12t-1 11q0 10 6 22q0 5 3 10t7 9t8.5 7t10.5 5q8 4 22 4q6 0 10.5 -1t12.5 -3
q4 -2 8 -5t8 -7zM518 702q0 -2 -4 -8q-2 0 -3 -2t-5 -2q-2 -2 -8 -2h-33v47h33q4 0 8 -2q4 0 5 -1l3 -3l4 -8q2 -2 2 -10q0 -6 -2 -9zM801 721q4 -4 8 -9t6 -10q2 -6 3 -11t1 -11t-1 -11t-3 -12q-2 -6 -6 -10t-8 -6q-2 -4 -6 -7t-11 -7q-4 -2 -10 -3t-12 -1q-12 0 -23 4
q-4 4 -9 7t-9 7l-6 6t-6 10q-2 7 -4.5 12t-2.5 11q0 10 7 22q2 5 6 10t6 9q4 4 9 7t9 5q6 2 12.5 3t10.5 1q12 0 22 -4q7 -2 11 -5t6 -7zM1090 733q0 -4 1 -6t1 -4l28 -64h-59l29 64v4v6zM270 729q2 -2 3 -5t3 -5q3 -4 3 -10v-5.5t-3 -5.5q-2 -2 -3 -5t-3 -3l-8 -8h-10h-37
v53h37q6 0 10 -2q2 0 5 -2zM2478 1092v-586h-2404v586h911q0 30 5 58t18 54q12 27 27.5 51.5t37.5 42.5q37 39 90 62q29 12 56.5 17t56.5 5q33 0 61.5 -6t53.5 -18q28 -12 51.5 -28.5t42.5 -35.5q37 -37 61 -94q21 -53 21 -108h911zM1030 1192q-22 -47 -22 -100
q0 -58 22 -105q10 -22 24.5 -44.5t30.5 -41.5q19 -18 40.5 -32.5t45.5 -24.5q48 -23 105 -23q29 0 54.5 4t49.5 15q25 12 45.5 25.5t38.5 33.5q19 19 33 40.5t27 43.5q22 51 22 109q0 22 -4 45.5t-14 44.5q-12 41 -41 75q-14 17 -30.5 31.5t-33.5 24.5q-18 10 -37.5 19
t-39.5 18q-15 4 -32.5 6t-37.5 2q-29 0 -55.5 -5t-51.5 -18q-49 -18 -86 -57q-16 -18 -29.5 -41t-23.5 -45zM295 690q6 10 6 19q0 4 -1 9t-5 11q0 2 -4 6l-6 6q-2 4 -5.5 7.5t-9.5 3.5q-4 2 -9 4t-9 2h-53v-154h16v58h37q4 0 9 1t9 3q11 4 15 8q2 4 6 8t4 8zM410 758h-95
v-154h95v19h-72v47h59v20h-59v45h72v23zM559 604l-47 66q2 2 5 2t5 4q8 4 10 10q3 2 5 5t4 7v13v10t-2 8q-4 8 -11 14q-4 9 -14 9q-2 2 -7 4t-9 2h-56v-154h23v64h22l41 -56q2 -4 7 -6q2 -2 4 -2h6h14zM664 631q0 4 1 8t1 8q0 12 -4.5 20.5t-12.5 14.5q-2 0 -3 2t-5 4h-1
t-5 2h-2t-2 4q-6 0 -8 2q-7 0 -9 1l-6 3q-8 2 -8 5q-6 4 -6 6v8v8q2 0 4 2t2 4l3 1t5 1q4 2 6 2h4l2.5 -1t4.5 -1q8 0 8 -4q2 -2 4 -2h4q8 0 14 4l4 2q0 2 -2 4l-4 4q-4 2 -6 4.5t-6 4.5q-2 0 -4 1t-6 5q-6 0 -7 1t-6 1q-4 0 -9 -1t-9 -1q-4 -4 -7 -6t-7 -2q-2 -5 -5 -8
t-6 -7q-2 -4 -3 -7t-1 -9v-9t4 -8q3 -4 6 -7t3 -5q4 -2 8 -5t8 -3q4 -2 7 -4t7 -4q2 -2 5.5 -2h5.5q6 -2 7 -2t3 -2q4 -2 4 -3t2 -6q2 -2 2 -5v-7v-3t-2 -5q-2 -4 -2 -5t-4 -3q-2 -4 -5 -5t-5 -3h-5.5h-5.5h-7h-5q-2 2 -5 3t-3 5l-2 2q-6 4 -12 4h-4.5t-4.5 -2l-6 -2
q0 -4 2 -4q0 -4 4 -6q0 -2 2 -5l2 -2h3q8 -8 17 -10t19 -2h9.5t9.5 2t9 4t7 6q6 2 9.5 5.5t5.5 9.5zM838 659q2 7 2 11v10q0 12 -2 20q0 7 -3.5 11t-5.5 10q-4 6 -12 14q-4 4 -8 6t-10 9q-2 0 -6.5 2t-10.5 6q-6 0 -10 1t-10 1q-4 0 -10.5 -1t-10.5 -1q-6 -4 -10 -6t-8 -2
q-4 -7 -8 -9t-8 -6q-5 -4 -8 -7t-5 -7q-4 -6 -5 -10t-3 -11q-2 -8 -2 -20q0 -8 2 -15.5t4 -15.5q2 -6 6 -12t11 -14q6 -5 12 -9t14 -4q12 -6 29 -6h10h10q11 4 17 8q14 6 18 11q6 8 12 18q2 4 5.5 9t3.5 9zM997 758h-20v-119q0 2 -1 5l-1 3l-74 105q-4 0 -8 6h-4h-4h-15
v-154h21v129v-4l2 -2v0v-4l88 -119h16v154zM1169 604l-67 154h-23l-65 -154h12q6 0 8 2l3 3t5 3l9 27h79l11 -27q2 -4 6 -6q0 -2 8 -2h14zM1270 623h-66v135h-22v-154h88v19zM1479 758h-21v-92v-11t-2 -8q-2 -8 -10 -12q-2 -2 -5 -4t-5 -6q-6 -2 -9.5 -2h-7.5q-10 0 -14 2
q-6 4 -10 6t-4 4q-2 2 -4.5 5t-6.5 7q0 4 -1 8t-1 11v92h-20v-92v-12t2 -7q0 -8 4 -14q4 -10 12 -15q2 -2 5 -4t8 -4q2 -2 6 -3t6 -3q6 0 9 -2t9 -2q4 0 7.5 2t9.5 2q4 2 7 3t7 3l12 8q4 5 5 8t3 7q3 2 6 6t3 8v19v92zM1597 631q7 8 7 16q0 12 -4.5 20.5t-12.5 14.5
q-6 4 -6 6h-5t-5 2h-3t-5 4h-2t-5 2q-2 0 -4 1l-6 3q-8 2 -8 5q-4 2 -5 4t-3 2q0 2 -1 3t-1 5t4 8l6 6q2 0 3 1t5 1q0 2 10 2l2.5 -1t4.5 -1q2 -2 8 -4q8 -2 10 -2q6 0 8 4l6 2l-4 4l-4 4q0 2 -3 4.5t-5 4.5q-4 0 -6 1t-6 5q-4 0 -7.5 1l-3.5 1q-6 0 -10 -1t-8 -1
q-4 -4 -8 -6t-6 -2q-4 -5 -6 -8t-7 -7q0 -4 -2 -7t-2 -9t2 -9t2 -8q5 -8 11 -12q4 -2 7 -5t5 -3q6 -2 9 -4t7 -4t6.5 -2h4.5q2 -2 5 -2t5 -2t5 -3t3 -6q2 -2 2 -5v-7v-3t-2 -5q-2 -6 -8 -8q-4 -4 -6 -5t-4 -3h-6h-5h-7h-5q-4 2 -10 8v2q-6 4 -12 4h-3.5t-5.5 -2l-6 -2
q2 -2 2 -3t2 -1q0 -2 1 -3t1 -3l1 -1t1 -4q4 -2 7 -2q6 -8 15 -10t19 -2h10.5t10.5 2l8 4t8 6q2 2 5 5.5t5 9.5zM1722 758h-94v-154h94v19h-73v47h61v20h-61v45h73v23zM1966 659v11v10v11v9q-4 11 -10 21q-4 6 -12 14q-2 4 -6.5 6t-8.5 9q-4 0 -9 2t-9 6q-6 0 -10.5 1
t-10.5 1t-11 -1t-9 -1q-12 -6 -21 -8q-4 -7 -7 -9t-7 -6l-7 -7l-7 -7q-2 -6 -4 -10t-2 -11q-5 -8 -5 -20q0 -8 2.5 -15.5t4.5 -15.5q6 -14 18 -26q4 -5 10 -9t15 -4q12 -6 30 -6h10.5h10.5q4 2 9 4t9 4q4 4 8.5 6.5t6.5 4.5q8 8 12 18q6 8 10 18zM2126 758h-23v-119
q0 2 -1 5t-3 3l-74 105l-1 1t-3 5h-5h-5h-16v-154h24v129v-4v-2v-2l2 -2l86 -119h19v154zM2251 623h-66v135h-22v-154h88v19zM2374 758h-19q-4 0 -8 -4q-8 -4 -8 -9l-35 -47l-2 -2h-2v-2v2l-2 2l-37 47q-2 5 -6 9t-10 4h-17l56 -76l2 -2q0 -2 2 -2v-2v-2q0 -2 2 -2v-2v-66
h22v66v2v4q2 0 2 4v2h2zM1188 864q-19 8 -38.5 19.5t-33.5 25.5h322q-17 -14 -35.5 -25.5t-38.5 -19.5q-21 -6 -43.5 -12t-44.5 -6q-25 0 -46.5 6t-41.5 12zM1141 936l315 317q29 -39 45.5 -79.5t16.5 -81.5q0 -23 -3.5 -44.5t-11.5 -41.5q-8 -19 -18 -36.5t-23 -33.5h-321z
M1094 928q-27 35 -45 73q-7 21 -11 43.5t-4 47.5q0 20 4 40.5t11 41.5q6 18 16 35.5t25 33.5h319zM1364 1315q20 -8 38.5 -20.5t33.5 -22.5h-324q37 28 76 43q39 18 88 18t88 -18zM78 350q-4 4 -5 8t-3 9q-2 6 -3 10t-1 10t4 16q2 5 3 10t5 7l3 9t7 7q0 2 5 5t7 5q6 5 9.5 6
t9.5 3q2 0 8 1t10 1q8 0 14.5 -1t14.5 -5q8 -2 13 -6.5t9 -8.5q-2 -2 -4 -2v-4h-2h-2h-4h-6q-4 2 -8 5t-8 3h-7.5h-9.5h-10h-8q-8 -4 -12.5 -7t-8.5 -5q-4 -6 -7 -10t-5 -8q-4 -7 -4 -13v-8q0 -8 2 -14t3 -9.5t1 -7.5q2 -2 5 -4t5 -6q4 -2 6 -5t7 -3q2 -2 6 -4t8 -2
q2 -2 6 -2h6h10.5t8.5 2q4 0 9 2t9 4v29h-12h-2l-2 2l-3 3l-3 3l-1 1t-1 3v1v3v0h38v-53l-5 -5t-5 -6q-6 -2 -12 -2q-6 -2 -14 -2h-15h-10h-8q-6 2 -9.5 4.5t-9.5 6.5q-2 0 -7 3t-5 7q-6 2 -7 6t-3 8zM240 438v-45h55v-14h-55v-47h67v-17h-84v140h84v-17h-67zM369 315v123
h-45v17h106v-17h-47v-123h-14zM532 438v-49h60v-12h-60v-62h-16v140h84v-17h-68zM641 455v-86q0 -4 2 -7.5t4 -5.5q2 -6 5 -9t5 -7q0 -2 3.5 -4t5.5 -4q6 -2 10 -2h8h7t5 2q6 2 9.5 4t7.5 4q0 4 3 7t5 9q4 4 4 13v86h14v-86q0 -7 -1 -11t-3 -10t-5 -10t-7 -8t-8 -7.5
t-8 -5.5q-13 -2 -23 -2q-12 0 -25 2q-2 2 -7 5.5t-9 7.5q-6 6 -10 18q-2 6 -4 10t-2 11v86h14zM784 455v-123h62v-17h-78v140h16zM877 455v-123h65v-17h-80v140h15zM1069 315l-61 140h8q4 0 8 -2q2 -2 3 -2t3 -5l43 -104v-4q2 -2 2 -6v6l1 2l1 2q6 14 12.5 26.5t12.5 24.5
q4 17 10 29l12 24q0 5 2 5t2 2q2 2 3.5 2h5.5h8q-8 -17 -15.5 -34.5t-17.5 -33.5q-6 -20 -13 -36.5t-16 -35.5h-14zM1171 438v-45h58v-14h-58v-47h68v-17h-84v140h84v-17h-68zM1341 381q-2 -2 -10 -4l47 -62h-10q-2 0 -5 1l-3 1q-2 2 -4 3.5t-4 5.5l-39 51h-25v-62h-14v140
h51h5t7 -2q9 -2 15 -9q2 -4 4 -7t4 -7q2 -2 2 -7v-5v-9t-2 -6q0 -4 -2 -8t-4 -6l-4 -4t-9 -4zM1325 389q4 0 6 4q2 0 4 1t4 1l3 6t4 5q0 2 1 4t1 8l-1 2t-1 6q-3 2 -4 3t-3 5q-2 0 -4 1t-4 3h-6h-37v-49h37zM1452 336q2 2 4 8q2 2 3 6t1 6q0 6 -2 11q-2 0 -3 3t-3 5t-8 4
q-4 0 -6 1l-6 3q-5 0 -9 2t-4 4q-10 0 -14 6q-4 0 -5 4t-3 7v14v9t2 7q0 6 8 10q4 5 6 6t8 3q4 0 6.5 1t8.5 1q2 0 5 -1t5 -1t4 -1l6 -3q2 0 4 -2.5t2 -4.5q4 -2 5 -4t3 -2l-4 -2q-2 -2 -8 -2h-6q-4 2 -4 4h-2h-2h-2h-3h-1h-2h-9q-8 0 -8 -2q-6 -6 -6 -8q-4 0 -4 -8
q0 -6 4 -6q0 -4 2 -6t5 -3.5l3 -1.5q4 -4 6.5 -4t8.5 -4h3t3 -2h4t4 -4h2h1h1q2 0 4 -1l2 -1q4 -4 6 -7t7 -5q2 -10 2 -19v-10t-7 -8q0 -6 -8 -12q-2 -2 -6 -4.5t-8 -4.5t-8 -2h-10q-11 0 -18 2t-13 9q-2 0 -4 2l-4 4q0 2 -1 4l-1 2l2 2l1 1t5 1h2q2 0 4 -1t4 -3q4 -2 6 -4
t6 -2q0 -2 4 -2h7q8 0 10 2q8 0 12 4zM1524 455v-140h-17v140h17zM1579 336q-12 8 -18 20q-5 15 -5 31v7v9q7 11 9 17q6 8 14 16q6 6 12 10q4 5 9.5 6t9.5 3q4 0 8 1t10 1q4 0 9 -1t12 -1q4 -2 8 -3t8 -6l5 -5t7 -5q4 -4 6.5 -7t6.5 -9q2 -6 6 -17q2 -4 3 -9t1 -7
q0 -8 -2 -15t-6 -16q-2 -6 -5.5 -11t-9.5 -9q-6 -6 -11 -9t-11 -8q-10 -4 -27 -4q-8 0 -15 1t-11 3q-17 5 -23 17zM1579 408q-4 -7 -6 -13t-2 -8q0 -4 1 -8t1 -6q2 -8 8 -17q0 -2 2 -4t4 -6l5 -5t10 -3q2 -2 5 -4t5 -2q4 -2 8 -2h8h7t7 2q3 0 7 2l8 4q2 0 5 3l5 5q2 4 4 6
l4 4q2 4 3 7.5t3 9.5q0 2 1 6t1 8q0 2 -1 8t-5 13q0 4 -4 8t-6 10q-4 2 -8 5t-10 7h-9.5h-11.5h-12h-10q-4 -4 -9.5 -7t-9.5 -5q-2 -6 -5 -10t-3 -8zM1741 315h-17v140h13h5t5 -4l72 -103q2 0 2 -4l2 -2v-2v115h16v-140h-14l-82 115v4h-2v4v-123zM1956 438v-49h57v-12h-57
v-62h-14v140h83v-17h-69zM2114 381q-9 -2 -13 -4l45 -62h-12q-4 0 -8 2q0 2 -1 3.5t-3 5.5l-39 51h-25v-62h-16v140h51h6t8 -2t7.5 -4.5t5.5 -4.5q2 -4 4 -7t6 -7q0 -2 1 -7l1 -5q0 -6 -1 -9t-1 -6l-4 -8t-2 -6zM2101 393q2 0 3 1t3 1q7 8 7 11q2 4 2 12q0 2 -2 8q0 2 -7 8
q-2 0 -3 1l-3 3h-8h-35v-49h35q4 0 8 4zM2281 336q-4 -6 -10 -9t-12 -8q-6 -2 -12 -3t-15 -1q-8 0 -15 1t-13 3q-13 5 -23 17q-4 4 -8 9t-6 11q-2 9 -5 16t-3 15q0 2 1 7t3 9q2 5 3 10t3 7q4 6 7 9t5 7q4 2 8 5t9 5q4 5 8 6t8 3q6 0 9 1t9 1q4 0 9.5 -1t9.5 -1l9 -3t7 -6
q4 -2 8 -5t6 -5q3 -4 6 -7t5 -9q6 -6 8 -17q2 -4 3 -9t1 -7q0 -8 -1 -15t-5 -16q-2 -6 -6 -11t-11 -9zM2232 330h7.5t9.5 2q2 0 5 2t5 4q2 0 6 3t8 5l3 6t3 4q2 4 3.5 7.5t1.5 9.5q2 2 2 6v8q0 2 -1 8t-1 13l-6 8t-5 10q-6 2 -11 5t-9 7h-10.5h-10.5h-11h-11q-6 -4 -9 -7
t-8 -5q-6 -6 -8 -10l-4 -8q-2 -7 -2 -13v-8v-14q0 -6 1 -9.5t5 -7.5q0 -2 3 -4t5 -6q2 -2 5.5 -5t5.5 -3q2 -2 5 -4t9 -2q2 -2 6 -2h8zM2460 453q2 2 3 2h3h12v-140h-14v115l-2 -2v0v-2q-4 -8 -6 -17.5t-7 -15.5q-4 -6 -7 -12l-7 -14q-2 -9 -4 -15l-4 -12q-4 -6 -7 -11
t-5 -14h-15q-10 13 -15 27t-11 27q-4 14 -11.5 28.5t-11.5 28.5v2l-4 2v-115h-16v140h14q6 0 8 -2l2 -2v-5l49 -108q0 -2 2 -2v-4q0 2 1 4t1 4q0 4 5 8l43 98q0 5 1 5t3 2zM74 262h157v-20v-4v-5q0 -4 -2 -6l-4 -4l-106 -145h2v2h4h2h104v-37h-165v12q0 11 2 13q0 2 4 8
q2 2 2 4t2 4t3 4l3 6l94 129h-102v39zM260 262h139v-39h-100v-49h80v-41h-80v-53h100v-37h-139v219zM571 223h-59v-180h-43v180h-63v39h165v-39zM672 262l94 -219h-25q-8 0 -16 4q-4 2 -5 6t-5 8l-13 29h-100l-10 -29q-2 -4 -3 -5t-3 -1q0 -4 -1 -5t-5 -3q-2 0 -4.5 -1
t-4.5 -1q0 -2 -2 -2h-4h-24l94 219h37zM684 129l-27 68q0 2 -1 3t-1 3q0 4 -2 6v-6q0 -2 -2 -3t-2 -3l-26 -68h61zM774 262h139v-39h-100v-55h82v-39h-82v-86h-39v219zM1133 207q4 -6 6 -12.5t6 -12.5q2 -8 2 -15v-13v-17t-2 -14q-4 -6 -6 -13.5t-6 -13.5q-5 -4 -9 -10
l-8 -12q-8 -4 -12 -9.5t-10 -7.5q-7 -6 -14 -8t-13 -4q-8 -2 -15.5 -3t-15.5 -1q-10 0 -21 3t-22 5q-12 6 -19 12.5t-18 12.5q-14 16 -20 35q-6 12 -8 22t-2 23q0 6 1 13t3 15q4 17 12 25q4 8 7 13t7 11q9 5 14 9t11 8t12 6t15 6q6 0 13 1t15 1t15.5 -1t15.5 -1q6 -4 13 -6
t14 -6q6 -4 10 -8t12 -9q4 -6 8 -11t9 -13zM1104 127q2 6 3 12t1 15q0 12 -4 24q-4 10 -8 15.5t-11 9.5q-4 4 -9 8t-11 6q-12 6 -29 6q-16 0 -28 -6q-4 -2 -9.5 -6t-11.5 -8t-9 -9.5t-7 -15.5q-4 -4 -4 -11v-13v-15t4 -12q4 -8 7 -14.5t9 -10.5t11.5 -8t9.5 -8q8 -2 14 -4
t14 -2t14.5 2t14.5 4q6 4 11 8t9 8q7 4 11 10.5t8 14.5zM1329 262h39v-219h-37l-102 147q-2 0 -2 1.5t-2 3.5q-2 4 -2 6q-4 0 -4 4l-1 1t-4 3v-166h-38v219h34q4 0 8.5 -1t4.5 -3l6 -3t4 -3q10 -16 21.5 -31.5t21.5 -34.5q12 -14 23.5 -29.5t25.5 -29.5q0 -4 1 -6t1 -6
q0 -2 1 -4t1 -5v156zM1389 262h165v-39h-65v-180h-39v180h-61v39zM1690 150q2 -5 5 -9t5 -8q0 -4 2 -9t2 -13q0 -13 -6 -27l-8 -12t-9 -11q-8 -4 -12 -8t-12 -6t-15.5 -4t-13.5 -2q-8 0 -15 2t-18 4q-6 2 -11 6t-13 13q-4 2 -6 5t-4 7q-5 2 -5 12l1.5 1t3.5 3q2 0 2 1t2 1
t4 1l2 1h10h3t3 -2q6 0 10 -2q5 -4 9 -6t6 -4q2 0 6 -2t10 -2q2 0 5 1t7 3q7 2 13 6l8 8q2 4 4 6t2 7q0 8 -6 12q-4 6 -8 6q-4 4 -7.5 5t-5.5 1q-6 2 -16 8q-4 0 -9 1t-9 6q-9 2 -13 5t-8 7q-6 4 -9 8t-5 8q-6 12 -6 25q0 18 6 26q2 7 6 11t10 8q4 4 9.5 6t13.5 6q4 0 10 1
t14 1q4 0 8.5 -1t10.5 -1q4 -2 7 -4t9 -4q2 -2 6 -5t8 -7q3 -2 6 -5.5t5 -7.5l-8 -4l-6 -4t-3 -4h-8h-4h-4h-2q-6 0 -6 2l-8 4q-3 0 -4 1l-1 1h-6h-12q-4 0 -5 -1t-5 -3q-2 -2 -4 -8q-2 -2 -2 -8t2 -6q2 -2 3 -4.5t1 -6.5q4 0 7 -1t5 -1q6 -2 11 -4t7 -4l11 -2q4 -4 9 -5
t11 -7q10 -2 17 -12zM1755 80q6 0 6 -6q2 0 2 -3v-5q0 -7 -2 -11q0 -4 -6 -8q-4 0 -6 -4q-2 0 -4 -1t-6 -1q-2 0 -4 1t-4 1q-2 2 -4.5 3t-4.5 1q-2 2 -3 4t-3 4q-2 4 -2 11v5t2 3q2 4 3 5t3 1q7 6 9 6q2 2 4 3t4 1q4 0 6 -1t4 -3q2 0 6 -6zM1839 203q-8 -8 -16 -25
q-2 -4 -4 -11t-2 -13q0 -9 2 -15l4 -12q4 -8 7 -14.5t9 -10.5q4 -4 9 -8t14 -8q8 -2 14 -4t14 -2q6 0 10.5 2t10.5 2q4 2 9 5t9 7q4 0 8 2h7h6t6 -2q6 -2 10 -6l6 -10q-6 -8 -16 -14q-6 -5 -10 -8t-11 -5q-6 -4 -11 -5t-11 -3t-11.5 -3t-11.5 -1q-14 0 -24.5 3t-20.5 5
q-20 10 -35 25q-16 16 -24 35q-2 12 -5 22t-3 23q0 6 1 13t3 15q2 6 4 12.5t6 12.5q6 8 9 13t9 11q7 5 12 9t13 8q4 4 10 6t17 6q4 0 12 1t16 1h11.5t11.5 -2t11 -4t11 -4q7 -2 11 -5t10 -7q10 -9 16 -17l-6 -8l-5 -5t-5 -3h-7h-5h-8t-7 2q-4 4 -9 7t-9 5q-6 2 -10.5 2
h-10.5q-16 0 -28 -6q-9 -2 -14 -6t-9 -8zM2195 207q3 -6 6 -12.5t5 -12.5q2 -8 2 -15v-13v-17t-2 -14t-5 -13.5t-6 -13.5q-8 -10 -16 -22q-8 -4 -14 -9.5t-11 -7.5q-6 -6 -13 -8t-15 -4q-6 -2 -13.5 -3t-15.5 -1q-20 0 -43 8q-8 6 -17 12.5t-16 12.5q-8 8 -14 16t-10 19
q-4 12 -6 22t-2 23q0 6 1 13t1 15q2 6 6 12.5t6 12.5q4 8 8 13t10 11q4 5 10.5 9t12.5 8q4 4 11 6t13 6q9 0 16 1t13 1q8 0 15.5 -1t13.5 -1q8 -4 15 -6t13 -6q5 -4 11 -8t14 -9q2 -6 8 -11t8 -13zM2165 127q4 10 4 27q0 6 -1 13t-3 11q-4 10 -7.5 15.5t-7.5 9.5
q-10 10 -24 14q-6 4 -13.5 5t-15.5 1q-14 0 -26 -6q-7 -2 -12 -6t-11 -8q-4 -4 -8 -9.5t-8 -15.5q-2 -4 -3 -11t-1 -13q0 -9 1 -15t3 -12q8 -16 16 -25q6 -4 11 -8t12 -8q6 -2 14 -4t12 -2q8 0 15.5 2t13.5 4q6 4 13 8t11 8q9 9 15 25zM2433 260l1 1t5 1h39v-219h-39v160
q0 -2 -1 -4l-3 -6v-7t-2 -4q-6 -18 -14.5 -35.5t-14.5 -33.5q-6 -17 -13 -34.5t-13 -35.5h-39l-55 139q-3 2 -3 11q-2 4 -3 5t-1 3v-158h-41v219h39q4 0 6.5 -1l2.5 -1q4 -2 5 -2t3 -2l6 -4l4 -4t2 -4q4 -17 11 -32t14 -34q6 -16 13 -32.5t13 -32.5v-2v-5v-4q4 0 4 -4v4v4
q0 3 1 5l1 2l9 16l45 115q0 2 1 4t1 4q2 2 5 3l3 1q2 2 4 2t4 2z" />
    <glyph glyph-name="colon" unicode=":" horiz-adv-x="534" 
d="M89 809q0 32 12.5 60.5t33.5 49.5t49.5 33.5t60.5 12.5q31 0 59.5 -12.5t49.5 -33.5t33.5 -49.5t12.5 -60.5t-12.5 -60.5t-33.5 -49.5t-49.5 -33.5t-59.5 -12.5q-32 0 -60.5 12.5t-49.5 33.5t-33.5 49.5t-12.5 60.5zM89 144q0 32 12.5 60.5t33.5 49.5t49.5 33.5
t60.5 12.5q31 0 59.5 -12.5t49.5 -33.5t33.5 -49.5t12.5 -60.5t-12.5 -60t-33.5 -49t-49.5 -33.5t-59.5 -12.5q-32 0 -60.5 12.5t-49.5 33.5t-33.5 49t-12.5 60z" />
    <glyph glyph-name="semicolon" unicode=";" horiz-adv-x="534" 
d="M99 137q0 29 10.5 54.5t29 44t43 29.5t52.5 11q29 0 53.5 -11t42 -29.5t27 -44t9.5 -54.5v-250q0 -29 -9.5 -54.5t-27 -44t-42 -29.5t-53.5 -11q-28 0 -52.5 11t-43 29.5t-29 44t-10.5 54.5v250zM89 809q0 32 12.5 60.5t33.5 49.5t49.5 33.5t60.5 12.5q31 0 59.5 -12.5
t49.5 -33.5t33.5 -49.5t12.5 -60.5t-12.5 -60.5t-33.5 -49.5t-49.5 -33.5t-59.5 -12.5q-32 0 -60.5 12.5t-49.5 33.5t-33.5 49.5t-12.5 60.5z" />
    <glyph glyph-name="less" unicode="&#x3c;" horiz-adv-x="778" 
d="M571 977q25 13 52 13q19 0 38.5 -8t34.5 -22t24.5 -34t9.5 -45q0 -27 -13 -53t-41 -40l-309 -160l305 -163q28 -13 42.5 -39t14.5 -56q0 -25 -9.5 -45t-24.5 -34.5t-33.5 -22t-37.5 -7.5q-13 1 -26 3.5t-25 9.5l-474 255q-6 2 -13.5 6t-13.5 8t-9.5 7t-1.5 3
q-17 17 -25 38t-8 41q0 27 14.5 52.5t43.5 40.5z" />
    <glyph glyph-name="equal" unicode="=" horiz-adv-x="897" 
d="M707 434q28 0 52.5 -10.5t43 -28.5t29 -42t10.5 -52t-10.5 -52.5t-29 -43t-43 -29t-52.5 -10.5h-506q-28 0 -52 10.5t-42 29.5t-28.5 43.5t-10.5 53.5q0 28 10.5 52t28.5 41.5t42 27.5t52 10h506zM707 881q28 0 52.5 -10.5t43 -28.5t29 -42.5t10.5 -51.5
q0 -28 -10.5 -52.5t-29 -43t-43 -29.5t-52.5 -11h-506q-28 0 -52 11t-42 29.5t-28.5 43.5t-10.5 54q0 27 10.5 51t28.5 42t42 28t52 10h506z" />
    <glyph glyph-name="greater" unicode="&#x3e;" horiz-adv-x="813" 
d="M697 550q-15 -15 -35 -21l-474 -255q-12 -7 -25 -9.5t-26 -2.5q-20 0 -38.5 7.5t-33.5 21.5t-24 34t-9 45q0 30 15 56t43 39l304 163l-308 160q-27 14 -41.5 40t-14.5 54q0 24 9.5 43.5t25 34t35 22.5t38.5 8q27 0 52 -13l486 -252q28 -16 43 -41t15 -53
q0 -22 -10.5 -44.5t-26.5 -36.5z" />
    <glyph glyph-name="question" unicode="?" horiz-adv-x="899" 
d="M182 763q-29 0 -54 11t-43.5 29.5t-29.5 43.5t-11 53v8q1 85 35 160.5t91.5 131t133.5 88t162 32.5t162.5 -33t134.5 -90t91.5 -133.5t33.5 -163.5q0 -84 -32.5 -157.5t-88.5 -128.5t-130 -88.5t-157 -37.5v-21q0 -29 -10 -53.5t-27 -43t-41 -29t-52 -10.5
q-29 0 -54 10.5t-43 29t-28.5 43t-10.5 53.5v154q0 28 10.5 52.5t29 42.5t43 28.5t53.5 10.5h116q30 0 58 11.5t49.5 31t35 46t13.5 56.5q0 29 -10.5 57t-30.5 49.5t-49 34.5t-65 13q-30 0 -58.5 -11.5t-50.5 -32t-35 -49t-13 -61.5q0 -28 -9.5 -53t-26.5 -43.5t-40.5 -29.5
t-51.5 -11zM210 127q0 29 10.5 54.5t29.5 44t44 29.5t54 11q28 0 53 -11t44 -29.5t30 -44t11 -54.5q0 -28 -11 -53t-30 -44t-44 -30t-53 -11q-29 0 -54 11t-44 30t-29.5 44t-10.5 53z" />
    <glyph glyph-name="at" unicode="@" horiz-adv-x="2531" 
d="M1929 721q4 -4 8.5 -9t6.5 -10q0 -6 1 -11t1 -11q0 -12 -2 -23q-2 -6 -6.5 -10t-8.5 -6q-4 -4 -8 -7t-8 -7q-12 -4 -23 -4q-6 0 -12 1t-10 3l-10.5 7t-8.5 7q-4 2 -7 6t-3 10q-4 7 -5 12t-1 11q0 10 6 22q0 5 3 10t7 9t8.5 7t10.5 5q8 4 22 4q6 0 10.5 -1t12.5 -3
q4 -2 8 -5t8 -7zM518 702q0 -2 -4 -8q-2 0 -3 -2t-5 -2q-2 -2 -8 -2h-33v47h33q4 0 8 -2q4 0 5 -1l3 -3l4 -8q2 -2 2 -10q0 -6 -2 -9zM801 721q4 -4 8 -9t6 -10q2 -6 3 -11t1 -11t-1 -11t-3 -12q-2 -6 -6 -10t-8 -6q-2 -4 -6 -7t-11 -7q-4 -2 -10 -3t-12 -1q-12 0 -23 4
q-4 4 -9 7t-9 7l-6 6t-6 10q-2 7 -4.5 12t-2.5 11q0 10 7 22q2 5 6 10t6 9q4 4 9 7t9 5q6 2 12.5 3t10.5 1q12 0 22 -4q7 -2 11 -5t6 -7zM1090 733q0 -4 1 -6t1 -4l28 -64h-59l29 64v4v6zM270 729q2 -2 3 -5t3 -5q3 -4 3 -10v-5.5t-3 -5.5q-2 -2 -3 -5t-3 -3l-8 -8h-10h-37
v53h37q6 0 10 -2q2 0 5 -2zM2478 1092v-586h-2404v586h911q0 30 5 58t18 54q12 27 27.5 51.5t37.5 42.5q37 39 90 62q29 12 56.5 17t56.5 5q33 0 61.5 -6t53.5 -18q28 -12 51.5 -28.5t42.5 -35.5q37 -37 61 -94q21 -53 21 -108h911zM1030 1192q-22 -47 -22 -100
q0 -58 22 -105q10 -22 24.5 -44.5t30.5 -41.5q19 -18 40.5 -32.5t45.5 -24.5q48 -23 105 -23q29 0 54.5 4t49.5 15q25 12 45.5 25.5t38.5 33.5q19 19 33 40.5t27 43.5q22 51 22 109q0 22 -4 45.5t-14 44.5q-12 41 -41 75q-14 17 -30.5 31.5t-33.5 24.5q-18 10 -37.5 19
t-39.5 18q-15 4 -32.5 6t-37.5 2q-29 0 -55.5 -5t-51.5 -18q-49 -18 -86 -57q-16 -18 -29.5 -41t-23.5 -45zM295 690q6 10 6 19q0 4 -1 9t-5 11q0 2 -4 6l-6 6q-2 4 -5.5 7.5t-9.5 3.5q-4 2 -9 4t-9 2h-53v-154h16v58h37q4 0 9 1t9 3q11 4 15 8q2 4 6 8t4 8zM410 758h-95
v-154h95v19h-72v47h59v20h-59v45h72v23zM559 604l-47 66q2 2 5 2t5 4q8 4 10 10q3 2 5 5t4 7v13v10t-2 8q-4 8 -11 14q-4 9 -14 9q-2 2 -7 4t-9 2h-56v-154h23v64h22l41 -56q2 -4 7 -6q2 -2 4 -2h6h14zM664 631q0 4 1 8t1 8q0 12 -4.5 20.5t-12.5 14.5q-2 0 -3 2t-5 4h-1
t-5 2h-2t-2 4q-6 0 -8 2q-7 0 -9 1l-6 3q-8 2 -8 5q-6 4 -6 6v8v8q2 0 4 2t2 4l3 1t5 1q4 2 6 2h4l2.5 -1t4.5 -1q8 0 8 -4q2 -2 4 -2h4q8 0 14 4l4 2q0 2 -2 4l-4 4q-4 2 -6 4.5t-6 4.5q-2 0 -4 1t-6 5q-6 0 -7 1t-6 1q-4 0 -9 -1t-9 -1q-4 -4 -7 -6t-7 -2q-2 -5 -5 -8
t-6 -7q-2 -4 -3 -7t-1 -9v-9t4 -8q3 -4 6 -7t3 -5q4 -2 8 -5t8 -3q4 -2 7 -4t7 -4q2 -2 5.5 -2h5.5q6 -2 7 -2t3 -2q4 -2 4 -3t2 -6q2 -2 2 -5v-7v-3t-2 -5q-2 -4 -2 -5t-4 -3q-2 -4 -5 -5t-5 -3h-5.5h-5.5h-7h-5q-2 2 -5 3t-3 5l-2 2q-6 4 -12 4h-4.5t-4.5 -2l-6 -2
q0 -4 2 -4q0 -4 4 -6q0 -2 2 -5l2 -2h3q8 -8 17 -10t19 -2h9.5t9.5 2t9 4t7 6q6 2 9.5 5.5t5.5 9.5zM838 659q2 7 2 11v10q0 12 -2 20q0 7 -3.5 11t-5.5 10q-4 6 -12 14q-4 4 -8 6t-10 9q-2 0 -6.5 2t-10.5 6q-6 0 -10 1t-10 1q-4 0 -10.5 -1t-10.5 -1q-6 -4 -10 -6t-8 -2
q-4 -7 -8 -9t-8 -6q-5 -4 -8 -7t-5 -7q-4 -6 -5 -10t-3 -11q-2 -8 -2 -20q0 -8 2 -15.5t4 -15.5q2 -6 6 -12t11 -14q6 -5 12 -9t14 -4q12 -6 29 -6h10h10q11 4 17 8q14 6 18 11q6 8 12 18q2 4 5.5 9t3.5 9zM997 758h-20v-119q0 2 -1 5l-1 3l-74 105q-4 0 -8 6h-4h-4h-15
v-154h21v129v-4l2 -2v0v-4l88 -119h16v154zM1169 604l-67 154h-23l-65 -154h12q6 0 8 2l3 3t5 3l9 27h79l11 -27q2 -4 6 -6q0 -2 8 -2h14zM1270 623h-66v135h-22v-154h88v19zM1479 758h-21v-92v-11t-2 -8q-2 -8 -10 -12q-2 -2 -5 -4t-5 -6q-6 -2 -9.5 -2h-7.5q-10 0 -14 2
q-6 4 -10 6t-4 4q-2 2 -4.5 5t-6.5 7q0 4 -1 8t-1 11v92h-20v-92v-12t2 -7q0 -8 4 -14q4 -10 12 -15q2 -2 5 -4t8 -4q2 -2 6 -3t6 -3q6 0 9 -2t9 -2q4 0 7.5 2t9.5 2q4 2 7 3t7 3l12 8q4 5 5 8t3 7q3 2 6 6t3 8v19v92zM1597 631q7 8 7 16q0 12 -4.5 20.5t-12.5 14.5
q-6 4 -6 6h-5t-5 2h-3t-5 4h-2t-5 2q-2 0 -4 1l-6 3q-8 2 -8 5q-4 2 -5 4t-3 2q0 2 -1 3t-1 5t4 8l6 6q2 0 3 1t5 1q0 2 10 2l2.5 -1t4.5 -1q2 -2 8 -4q8 -2 10 -2q6 0 8 4l6 2l-4 4l-4 4q0 2 -3 4.5t-5 4.5q-4 0 -6 1t-6 5q-4 0 -7.5 1l-3.5 1q-6 0 -10 -1t-8 -1
q-4 -4 -8 -6t-6 -2q-4 -5 -6 -8t-7 -7q0 -4 -2 -7t-2 -9t2 -9t2 -8q5 -8 11 -12q4 -2 7 -5t5 -3q6 -2 9 -4t7 -4t6.5 -2h4.5q2 -2 5 -2t5 -2t5 -3t3 -6q2 -2 2 -5v-7v-3t-2 -5q-2 -6 -8 -8q-4 -4 -6 -5t-4 -3h-6h-5h-7h-5q-4 2 -10 8v2q-6 4 -12 4h-3.5t-5.5 -2l-6 -2
q2 -2 2 -3t2 -1q0 -2 1 -3t1 -3l1 -1t1 -4q4 -2 7 -2q6 -8 15 -10t19 -2h10.5t10.5 2l8 4t8 6q2 2 5 5.5t5 9.5zM1722 758h-94v-154h94v19h-73v47h61v20h-61v45h73v23zM1966 659v11v10v11v9q-4 11 -10 21q-4 6 -12 14q-2 4 -6.5 6t-8.5 9q-4 0 -9 2t-9 6q-6 0 -10.5 1
t-10.5 1t-11 -1t-9 -1q-12 -6 -21 -8q-4 -7 -7 -9t-7 -6l-7 -7l-7 -7q-2 -6 -4 -10t-2 -11q-5 -8 -5 -20q0 -8 2.5 -15.5t4.5 -15.5q6 -14 18 -26q4 -5 10 -9t15 -4q12 -6 30 -6h10.5h10.5q4 2 9 4t9 4q4 4 8.5 6.5t6.5 4.5q8 8 12 18q6 8 10 18zM2126 758h-23v-119
q0 2 -1 5t-3 3l-74 105l-1 1t-3 5h-5h-5h-16v-154h24v129v-4v-2v-2l2 -2l86 -119h19v154zM2251 623h-66v135h-22v-154h88v19zM2374 758h-19q-4 0 -8 -4q-8 -4 -8 -9l-35 -47l-2 -2h-2v-2v2l-2 2l-37 47q-2 5 -6 9t-10 4h-17l56 -76l2 -2q0 -2 2 -2v-2v-2q0 -2 2 -2v-2v-66
h22v66v2v4q2 0 2 4v2h2zM1188 864q-19 8 -38.5 19.5t-33.5 25.5h322q-17 -14 -35.5 -25.5t-38.5 -19.5q-21 -6 -43.5 -12t-44.5 -6q-25 0 -46.5 6t-41.5 12zM1141 936l315 317q29 -39 45.5 -79.5t16.5 -81.5q0 -23 -3.5 -44.5t-11.5 -41.5q-8 -19 -18 -36.5t-23 -33.5h-321z
M1094 928q-27 35 -45 73q-7 21 -11 43.5t-4 47.5q0 20 4 40.5t11 41.5q6 18 16 35.5t25 33.5h319zM1364 1315q20 -8 38.5 -20.5t33.5 -22.5h-324q37 28 76 43q39 18 88 18t88 -18zM78 350q-4 4 -5 8t-3 9q-2 6 -3 10t-1 10t4 16q2 5 3 10t5 7l3 9t7 7q0 2 5 5t7 5q6 5 9.5 6
t9.5 3q2 0 8 1t10 1q8 0 14.5 -1t14.5 -5q8 -2 13 -6.5t9 -8.5q-2 -2 -4 -2v-4h-2h-2h-4h-6q-4 2 -8 5t-8 3h-7.5h-9.5h-10h-8q-8 -4 -12.5 -7t-8.5 -5q-4 -6 -7 -10t-5 -8q-4 -7 -4 -13v-8q0 -8 2 -14t3 -9.5t1 -7.5q2 -2 5 -4t5 -6q4 -2 6 -5t7 -3q2 -2 6 -4t8 -2
q2 -2 6 -2h6h10.5t8.5 2q4 0 9 2t9 4v29h-12h-2l-2 2l-3 3l-3 3l-1 1t-1 3v1v3v0h38v-53l-5 -5t-5 -6q-6 -2 -12 -2q-6 -2 -14 -2h-15h-10h-8q-6 2 -9.5 4.5t-9.5 6.5q-2 0 -7 3t-5 7q-6 2 -7 6t-3 8zM240 438v-45h55v-14h-55v-47h67v-17h-84v140h84v-17h-67zM369 315v123
h-45v17h106v-17h-47v-123h-14zM532 438v-49h60v-12h-60v-62h-16v140h84v-17h-68zM641 455v-86q0 -4 2 -7.5t4 -5.5q2 -6 5 -9t5 -7q0 -2 3.5 -4t5.5 -4q6 -2 10 -2h8h7t5 2q6 2 9.5 4t7.5 4q0 4 3 7t5 9q4 4 4 13v86h14v-86q0 -7 -1 -11t-3 -10t-5 -10t-7 -8t-8 -7.5
t-8 -5.5q-13 -2 -23 -2q-12 0 -25 2q-2 2 -7 5.5t-9 7.5q-6 6 -10 18q-2 6 -4 10t-2 11v86h14zM784 455v-123h62v-17h-78v140h16zM877 455v-123h65v-17h-80v140h15zM1069 315l-61 140h8q4 0 8 -2q2 -2 3 -2t3 -5l43 -104v-4q2 -2 2 -6v6l1 2l1 2q6 14 12.5 26.5t12.5 24.5
q4 17 10 29l12 24q0 5 2 5t2 2q2 2 3.5 2h5.5h8q-8 -17 -15.5 -34.5t-17.5 -33.5q-6 -20 -13 -36.5t-16 -35.5h-14zM1171 438v-45h58v-14h-58v-47h68v-17h-84v140h84v-17h-68zM1341 381q-2 -2 -10 -4l47 -62h-10q-2 0 -5 1l-3 1q-2 2 -4 3.5t-4 5.5l-39 51h-25v-62h-14v140
h51h5t7 -2q9 -2 15 -9q2 -4 4 -7t4 -7q2 -2 2 -7v-5v-9t-2 -6q0 -4 -2 -8t-4 -6l-4 -4t-9 -4zM1325 389q4 0 6 4q2 0 4 1t4 1l3 6t4 5q0 2 1 4t1 8l-1 2t-1 6q-3 2 -4 3t-3 5q-2 0 -4 1t-4 3h-6h-37v-49h37zM1452 336q2 2 4 8q2 2 3 6t1 6q0 6 -2 11q-2 0 -3 3t-3 5t-8 4
q-4 0 -6 1l-6 3q-5 0 -9 2t-4 4q-10 0 -14 6q-4 0 -5 4t-3 7v14v9t2 7q0 6 8 10q4 5 6 6t8 3q4 0 6.5 1t8.5 1q2 0 5 -1t5 -1t4 -1l6 -3q2 0 4 -2.5t2 -4.5q4 -2 5 -4t3 -2l-4 -2q-2 -2 -8 -2h-6q-4 2 -4 4h-2h-2h-2h-3h-1h-2h-9q-8 0 -8 -2q-6 -6 -6 -8q-4 0 -4 -8
q0 -6 4 -6q0 -4 2 -6t5 -3.5l3 -1.5q4 -4 6.5 -4t8.5 -4h3t3 -2h4t4 -4h2h1h1q2 0 4 -1l2 -1q4 -4 6 -7t7 -5q2 -10 2 -19v-10t-7 -8q0 -6 -8 -12q-2 -2 -6 -4.5t-8 -4.5t-8 -2h-10q-11 0 -18 2t-13 9q-2 0 -4 2l-4 4q0 2 -1 4l-1 2l2 2l1 1t5 1h2q2 0 4 -1t4 -3q4 -2 6 -4
t6 -2q0 -2 4 -2h7q8 0 10 2q8 0 12 4zM1524 455v-140h-17v140h17zM1579 336q-12 8 -18 20q-5 15 -5 31v7v9q7 11 9 17q6 8 14 16q6 6 12 10q4 5 9.5 6t9.5 3q4 0 8 1t10 1q4 0 9 -1t12 -1q4 -2 8 -3t8 -6l5 -5t7 -5q4 -4 6.5 -7t6.5 -9q2 -6 6 -17q2 -4 3 -9t1 -7
q0 -8 -2 -15t-6 -16q-2 -6 -5.5 -11t-9.5 -9q-6 -6 -11 -9t-11 -8q-10 -4 -27 -4q-8 0 -15 1t-11 3q-17 5 -23 17zM1579 408q-4 -7 -6 -13t-2 -8q0 -4 1 -8t1 -6q2 -8 8 -17q0 -2 2 -4t4 -6l5 -5t10 -3q2 -2 5 -4t5 -2q4 -2 8 -2h8h7t7 2q3 0 7 2l8 4q2 0 5 3l5 5q2 4 4 6
l4 4q2 4 3 7.5t3 9.5q0 2 1 6t1 8q0 2 -1 8t-5 13q0 4 -4 8t-6 10q-4 2 -8 5t-10 7h-9.5h-11.5h-12h-10q-4 -4 -9.5 -7t-9.5 -5q-2 -6 -5 -10t-3 -8zM1741 315h-17v140h13h5t5 -4l72 -103q2 0 2 -4l2 -2v-2v115h16v-140h-14l-82 115v4h-2v4v-123zM1956 438v-49h57v-12h-57
v-62h-14v140h83v-17h-69zM2114 381q-9 -2 -13 -4l45 -62h-12q-4 0 -8 2q0 2 -1 3.5t-3 5.5l-39 51h-25v-62h-16v140h51h6t8 -2t7.5 -4.5t5.5 -4.5q2 -4 4 -7t6 -7q0 -2 1 -7l1 -5q0 -6 -1 -9t-1 -6l-4 -8t-2 -6zM2101 393q2 0 3 1t3 1q7 8 7 11q2 4 2 12q0 2 -2 8q0 2 -7 8
q-2 0 -3 1l-3 3h-8h-35v-49h35q4 0 8 4zM2281 336q-4 -6 -10 -9t-12 -8q-6 -2 -12 -3t-15 -1q-8 0 -15 1t-13 3q-13 5 -23 17q-4 4 -8 9t-6 11q-2 9 -5 16t-3 15q0 2 1 7t3 9q2 5 3 10t3 7q4 6 7 9t5 7q4 2 8 5t9 5q4 5 8 6t8 3q6 0 9 1t9 1q4 0 9.5 -1t9.5 -1l9 -3t7 -6
q4 -2 8 -5t6 -5q3 -4 6 -7t5 -9q6 -6 8 -17q2 -4 3 -9t1 -7q0 -8 -1 -15t-5 -16q-2 -6 -6 -11t-11 -9zM2232 330h7.5t9.5 2q2 0 5 2t5 4q2 0 6 3t8 5l3 6t3 4q2 4 3.5 7.5t1.5 9.5q2 2 2 6v8q0 2 -1 8t-1 13l-6 8t-5 10q-6 2 -11 5t-9 7h-10.5h-10.5h-11h-11q-6 -4 -9 -7
t-8 -5q-6 -6 -8 -10l-4 -8q-2 -7 -2 -13v-8v-14q0 -6 1 -9.5t5 -7.5q0 -2 3 -4t5 -6q2 -2 5.5 -5t5.5 -3q2 -2 5 -4t9 -2q2 -2 6 -2h8zM2460 453q2 2 3 2h3h12v-140h-14v115l-2 -2v0v-2q-4 -8 -6 -17.5t-7 -15.5q-4 -6 -7 -12l-7 -14q-2 -9 -4 -15l-4 -12q-4 -6 -7 -11
t-5 -14h-15q-10 13 -15 27t-11 27q-4 14 -11.5 28.5t-11.5 28.5v2l-4 2v-115h-16v140h14q6 0 8 -2l2 -2v-5l49 -108q0 -2 2 -2v-4q0 2 1 4t1 4q0 4 5 8l43 98q0 5 1 5t3 2zM74 262h157v-20v-4v-5q0 -4 -2 -6l-4 -4l-106 -145h2v2h4h2h104v-37h-165v12q0 11 2 13q0 2 4 8
q2 2 2 4t2 4t3 4l3 6l94 129h-102v39zM260 262h139v-39h-100v-49h80v-41h-80v-53h100v-37h-139v219zM571 223h-59v-180h-43v180h-63v39h165v-39zM672 262l94 -219h-25q-8 0 -16 4q-4 2 -5 6t-5 8l-13 29h-100l-10 -29q-2 -4 -3 -5t-3 -1q0 -4 -1 -5t-5 -3q-2 0 -4.5 -1
t-4.5 -1q0 -2 -2 -2h-4h-24l94 219h37zM684 129l-27 68q0 2 -1 3t-1 3q0 4 -2 6v-6q0 -2 -2 -3t-2 -3l-26 -68h61zM774 262h139v-39h-100v-55h82v-39h-82v-86h-39v219zM1133 207q4 -6 6 -12.5t6 -12.5q2 -8 2 -15v-13v-17t-2 -14q-4 -6 -6 -13.5t-6 -13.5q-5 -4 -9 -10
l-8 -12q-8 -4 -12 -9.5t-10 -7.5q-7 -6 -14 -8t-13 -4q-8 -2 -15.5 -3t-15.5 -1q-10 0 -21 3t-22 5q-12 6 -19 12.5t-18 12.5q-14 16 -20 35q-6 12 -8 22t-2 23q0 6 1 13t3 15q4 17 12 25q4 8 7 13t7 11q9 5 14 9t11 8t12 6t15 6q6 0 13 1t15 1t15.5 -1t15.5 -1q6 -4 13 -6
t14 -6q6 -4 10 -8t12 -9q4 -6 8 -11t9 -13zM1104 127q2 6 3 12t1 15q0 12 -4 24q-4 10 -8 15.5t-11 9.5q-4 4 -9 8t-11 6q-12 6 -29 6q-16 0 -28 -6q-4 -2 -9.5 -6t-11.5 -8t-9 -9.5t-7 -15.5q-4 -4 -4 -11v-13v-15t4 -12q4 -8 7 -14.5t9 -10.5t11.5 -8t9.5 -8q8 -2 14 -4
t14 -2t14.5 2t14.5 4q6 4 11 8t9 8q7 4 11 10.5t8 14.5zM1329 262h39v-219h-37l-102 147q-2 0 -2 1.5t-2 3.5q-2 4 -2 6q-4 0 -4 4l-1 1t-4 3v-166h-38v219h34q4 0 8.5 -1t4.5 -3l6 -3t4 -3q10 -16 21.5 -31.5t21.5 -34.5q12 -14 23.5 -29.5t25.5 -29.5q0 -4 1 -6t1 -6
q0 -2 1 -4t1 -5v156zM1389 262h165v-39h-65v-180h-39v180h-61v39zM1690 150q2 -5 5 -9t5 -8q0 -4 2 -9t2 -13q0 -13 -6 -27l-8 -12t-9 -11q-8 -4 -12 -8t-12 -6t-15.5 -4t-13.5 -2q-8 0 -15 2t-18 4q-6 2 -11 6t-13 13q-4 2 -6 5t-4 7q-5 2 -5 12l1.5 1t3.5 3q2 0 2 1t2 1
t4 1l2 1h10h3t3 -2q6 0 10 -2q5 -4 9 -6t6 -4q2 0 6 -2t10 -2q2 0 5 1t7 3q7 2 13 6l8 8q2 4 4 6t2 7q0 8 -6 12q-4 6 -8 6q-4 4 -7.5 5t-5.5 1q-6 2 -16 8q-4 0 -9 1t-9 6q-9 2 -13 5t-8 7q-6 4 -9 8t-5 8q-6 12 -6 25q0 18 6 26q2 7 6 11t10 8q4 4 9.5 6t13.5 6q4 0 10 1
t14 1q4 0 8.5 -1t10.5 -1q4 -2 7 -4t9 -4q2 -2 6 -5t8 -7q3 -2 6 -5.5t5 -7.5l-8 -4l-6 -4t-3 -4h-8h-4h-4h-2q-6 0 -6 2l-8 4q-3 0 -4 1l-1 1h-6h-12q-4 0 -5 -1t-5 -3q-2 -2 -4 -8q-2 -2 -2 -8t2 -6q2 -2 3 -4.5t1 -6.5q4 0 7 -1t5 -1q6 -2 11 -4t7 -4l11 -2q4 -4 9 -5
t11 -7q10 -2 17 -12zM1755 80q6 0 6 -6q2 0 2 -3v-5q0 -7 -2 -11q0 -4 -6 -8q-4 0 -6 -4q-2 0 -4 -1t-6 -1q-2 0 -4 1t-4 1q-2 2 -4.5 3t-4.5 1q-2 2 -3 4t-3 4q-2 4 -2 11v5t2 3q2 4 3 5t3 1q7 6 9 6q2 2 4 3t4 1q4 0 6 -1t4 -3q2 0 6 -6zM1839 203q-8 -8 -16 -25
q-2 -4 -4 -11t-2 -13q0 -9 2 -15l4 -12q4 -8 7 -14.5t9 -10.5q4 -4 9 -8t14 -8q8 -2 14 -4t14 -2q6 0 10.5 2t10.5 2q4 2 9 5t9 7q4 0 8 2h7h6t6 -2q6 -2 10 -6l6 -10q-6 -8 -16 -14q-6 -5 -10 -8t-11 -5q-6 -4 -11 -5t-11 -3t-11.5 -3t-11.5 -1q-14 0 -24.5 3t-20.5 5
q-20 10 -35 25q-16 16 -24 35q-2 12 -5 22t-3 23q0 6 1 13t3 15q2 6 4 12.5t6 12.5q6 8 9 13t9 11q7 5 12 9t13 8q4 4 10 6t17 6q4 0 12 1t16 1h11.5t11.5 -2t11 -4t11 -4q7 -2 11 -5t10 -7q10 -9 16 -17l-6 -8l-5 -5t-5 -3h-7h-5h-8t-7 2q-4 4 -9 7t-9 5q-6 2 -10.5 2
h-10.5q-16 0 -28 -6q-9 -2 -14 -6t-9 -8zM2195 207q3 -6 6 -12.5t5 -12.5q2 -8 2 -15v-13v-17t-2 -14t-5 -13.5t-6 -13.5q-8 -10 -16 -22q-8 -4 -14 -9.5t-11 -7.5q-6 -6 -13 -8t-15 -4q-6 -2 -13.5 -3t-15.5 -1q-20 0 -43 8q-8 6 -17 12.5t-16 12.5q-8 8 -14 16t-10 19
q-4 12 -6 22t-2 23q0 6 1 13t1 15q2 6 6 12.5t6 12.5q4 8 8 13t10 11q4 5 10.5 9t12.5 8q4 4 11 6t13 6q9 0 16 1t13 1q8 0 15.5 -1t13.5 -1q8 -4 15 -6t13 -6q5 -4 11 -8t14 -9q2 -6 8 -11t8 -13zM2165 127q4 10 4 27q0 6 -1 13t-3 11q-4 10 -7.5 15.5t-7.5 9.5
q-10 10 -24 14q-6 4 -13.5 5t-15.5 1q-14 0 -26 -6q-7 -2 -12 -6t-11 -8q-4 -4 -8 -9.5t-8 -15.5q-2 -4 -3 -11t-1 -13q0 -9 1 -15t3 -12q8 -16 16 -25q6 -4 11 -8t12 -8q6 -2 14 -4t12 -2q8 0 15.5 2t13.5 4q6 4 13 8t11 8q9 9 15 25zM2433 260l1 1t5 1h39v-219h-39v160
q0 -2 -1 -4l-3 -6v-7t-2 -4q-6 -18 -14.5 -35.5t-14.5 -33.5q-6 -17 -13 -34.5t-13 -35.5h-39l-55 139q-3 2 -3 11q-2 4 -3 5t-1 3v-158h-41v219h39q4 0 6.5 -1l2.5 -1q4 -2 5 -2t3 -2l6 -4l4 -4t2 -4q4 -17 11 -32t14 -34q6 -16 13 -32.5t13 -32.5v-2v-5v-4q4 0 4 -4v4v4
q0 3 1 5l1 2l9 16l45 115q0 2 1 4t1 4q2 2 5 3l3 1q2 2 4 2t4 2z" />
    <glyph glyph-name="A" unicode="A" horiz-adv-x="1165" 
d="M1126 188q10 -26 10 -54q0 -24 -9.5 -48.5t-27 -43.5t-43 -31t-57.5 -12q-40 0 -75.5 22.5t-51.5 62.5l-22 55h-518l-21 -55q-17 -39 -50.5 -62t-74.5 -23q-31 0 -56.5 12t-43.5 31t-27.5 43.5t-9.5 50.5t10 52l400 1035q8 29 28.5 52.5t50.5 35.5l6 2q14 6 28.5 7
t23.5 1q13 0 25 -2.5t24 -7.5l2 -1q12 -2 26 -14.5t23 -20.5l5 -5q13 -18 18 -32l4 -11zM743 414l-151 393l-152 -393h303z" />
    <glyph glyph-name="B" unicode="B" horiz-adv-x="1143" 
d="M237 0q-33 1 -56.5 14.5t-44.5 35.5q-19 24 -27 57l-2 11q-1 5 -1 9.5v9.5v1047q0 28 10 53t28 43.5t42 29.5t51 12h467q81 0 151.5 -31.5t123.5 -85t83.5 -125t30.5 -165.5q0 -72 -24 -134.5t-66 -113.5q48 -54 75 -121t27 -145q0 -83 -31.5 -156t-86 -127.5t-127 -86
t-154.5 -31.5h-469zM551 664q0 28 10.5 53t29 43.5t43 29.5t53.5 11h19q24 0 45 9t36.5 24.5t24.5 36t9 44.5q0 29 -10.5 57.5t-28 43t-41.5 22.5t-51 9h-310v-773h326q24 0 46 10.5t38 28t25.5 40.5t9.5 48t-9.5 47.5t-25.5 40t-38 28t-46 10.5h-19q-29 0 -53.5 10.5
t-43 29.5t-29 43.5t-10.5 53.5z" />
    <glyph glyph-name="C" unicode="C" horiz-adv-x="1314" 
d="M1014 936q-60 60 -133.5 87.5t-152.5 27.5q-80 0 -152 -30.5t-126 -83.5t-86 -126t-32 -157q0 -81 30 -153t83 -127t125.5 -87t158.5 -32q80 0 149.5 26.5t132.5 89.5q18 18 43 27t51 9q29 0 53 -10.5t41.5 -28.5t27 -41.5t9.5 -49.5t-9.5 -50.5t-27.5 -42.5
q-100 -99 -223 -147.5t-253 -48.5q-90 0 -173.5 24t-157 67t-133.5 103.5t-103.5 134.5t-67 159t-23.5 176q0 132 49.5 252.5t138 213t210 147.5t266.5 55q130 0 251 -48.5t221 -148.5q38 -40 38 -92q0 -27 -11 -51t-29.5 -42t-43 -28.5t-51.5 -10.5q-25 0 -48 9t-42 28z
" />
    <glyph glyph-name="D" unicode="D" horiz-adv-x="1292" 
d="M106 1184q0 28 10.5 53t29.5 43.5t43.5 29t53.5 10.5h342q90 0 173.5 -23.5t156.5 -66t132.5 -102t102.5 -132.5t66.5 -163t23.5 -180q0 -135 -51.5 -254t-141 -207.5t-208.5 -140t-254 -51.5h-342q-29 0 -53.5 10.5t-43.5 28.5t-29.5 42.5t-10.5 53.5v1049zM380 1043
v-764h213q76 0 143.5 29.5t117.5 80t79 118t29 144.5q0 78 -29 153t-79 127t-117.5 82t-143.5 30h-213z" />
    <glyph glyph-name="E" unicode="E" horiz-adv-x="1018" 
d="M823 1321q28 0 52.5 -11t43 -29.5t29 -44t10.5 -53.5t-10.5 -53t-29 -43.5t-43 -29.5t-52.5 -11h-443v-253h312q28 0 53 -11t43.5 -29.5t29.5 -44t11 -53.5t-11 -53t-29.5 -43.5t-43.5 -29.5t-53 -11h-312v-245l443 -1q28 0 52.5 -10.5t43 -29.5t29 -44t10.5 -53
q0 -29 -10.5 -53.5t-29 -42.5t-43 -28.5t-52.5 -10.5h-586q-27 1 -51 12t-42 29t-28 42t-10 52v1048q0 45 26 81t67 50q8 0 19 3.5t19 3.5h586z" />
    <glyph glyph-name="F" unicode="F" horiz-adv-x="982" 
d="M831 1320q28 0 53 -11t43 -29.5t28.5 -44t10.5 -53.5t-10.5 -53t-28.5 -43.5t-43 -29.5t-53 -11h-451v-330h314q28 0 53 -11t43.5 -29.5t29.5 -43.5t11 -53q0 -29 -11 -54t-29.5 -43.5t-43.5 -29.5t-53 -11h-314v-305q0 -29 -10.5 -53.5t-29.5 -43.5t-44 -29.5t-53 -10.5
q-29 0 -53.5 10.5t-43.5 29.5t-29.5 43.5t-10.5 53.5v1052q2 45 27.5 78.5t65.5 47.5l11 3q7 2 13.5 2.5t13.5 1.5h594z" />
    <glyph glyph-name="G" unicode="G" horiz-adv-x="1306" 
d="M1106 703q28 0 52.5 -10.5t43 -28t29 -41t10.5 -51.5v-299q0 -31 -12.5 -54.5t-31.5 -43.5q-118 -102 -239 -144.5t-251 -42.5q-87 1 -169.5 25t-155 67t-132.5 103t-103.5 133.5t-67.5 158t-24 176.5q0 91 23 176t65.5 159.5t102 135.5t133 105t158 68.5t176.5 24.5
q142 0 259.5 -49.5t217.5 -148.5q20 -20 29.5 -43.5t9.5 -48.5q0 -26 -11 -50t-29.5 -42t-43.5 -29t-52 -11q-25 0 -48 9t-42 28q-61 60 -134.5 88t-152.5 28q-80 0 -151.5 -30.5t-125.5 -84t-85.5 -126.5t-31.5 -157q0 -81 30.5 -153.5t84 -127t126.5 -86.5t159 -32
q68 0 130 17t121 62v106h-108q-28 0 -52 10.5t-41.5 28.5t-27.5 42.5t-10 51.5t10 51t27.5 43t41.5 29.5t52 10.5z" />
    <glyph glyph-name="H" unicode="H" horiz-adv-x="1211" 
d="M106 1185q0 28 10.5 53t29.5 43.5t43.5 29t53.5 10.5q28 0 53 -10.5t44 -29t29.5 -43.5t10.5 -53v-436h451v436q0 28 10.5 53t29.5 43.5t43.5 29t53.5 10.5q28 0 53 -10.5t44 -29t29.5 -43.5t10.5 -53v-1050q0 -29 -10.5 -53.5t-29.5 -42.5t-44 -28.5t-53 -10.5
q-29 0 -53.5 10.5t-43.5 28.5t-29.5 42.5t-10.5 53.5v340h-451v-340q0 -29 -10.5 -53.5t-29.5 -42.5t-44 -28.5t-53 -10.5q-29 0 -53.5 10.5t-43.5 28.5t-29.5 42.5t-10.5 53.5v1050z" />
    <glyph glyph-name="I" unicode="I" horiz-adv-x="482" 
d="M105 1186q0 27 10.5 51t28.5 42t42.5 28t51.5 10q28 0 52 -10t42 -28t28.5 -42t10.5 -51v-1055q0 -28 -10.5 -52t-28.5 -41.5t-42 -27.5t-52 -10q-27 0 -51.5 10t-42.5 27.5t-28.5 41.5t-10.5 52v1055z" />
    <glyph glyph-name="J" unicode="J" horiz-adv-x="478" 
d="M118 1180q0 28 11 53t30 43.5t44 29.5t54 11q28 0 53 -11t43 -29.5t28.5 -43.5t10.5 -53v-1000q0 -95 -36 -179.5t-98.5 -148t-146 -101t-178.5 -38.5h-8q-27 0 -51.5 11t-43 29.5t-29.5 43t-11 51.5q0 28 11 52.5t29.5 43t43 29.5t51.5 11q40 0 75.5 15.5t61.5 42.5
t41 63t15 77v998z" />
    <glyph glyph-name="K" unicode="K" horiz-adv-x="1121" 
d="M106 1189q0 27 10.5 51t28.5 42t42.5 28t51.5 10q28 0 52 -10t42 -28t28.5 -42t10.5 -51v-332l475 426q43 37 91 37q25 0 49.5 -10.5t43.5 -28.5t30.5 -43t11.5 -54q0 -26 -10 -50.5t-31 -44.5l-463 -412l482 -450q20 -20 29 -43.5t9 -48.5q0 -27 -10.5 -51.5t-29 -43
t-43 -29.5t-51.5 -11q-25 0 -49 10t-44 30l-490 455v-364q0 -28 -10.5 -52t-28.5 -41.5t-42 -27.5t-52 -10q-27 0 -51.5 10t-42.5 27.5t-28.5 41.5t-10.5 52v1058z" />
    <glyph glyph-name="L" unicode="L" horiz-adv-x="1030" 
d="M106 1192q0 28 10.5 52t28.5 41.5t42.5 27.5t51.5 10q28 0 52 -10t42 -27.5t28.5 -41.5t10.5 -52v-927l454 -1q28 0 52 -10.5t42 -28.5t28 -42t10 -52q0 -29 -10 -53t-28 -41.5t-42 -27t-52 -9.5h-593q-26 1 -49.5 11.5t-40.5 28t-27 41t-10 50.5v1061z" />
    <glyph glyph-name="M" unicode="M" horiz-adv-x="1585" 
d="M106 911q0 85 32 160t87.5 131t130.5 88.5t161 32.5q81 0 151 -29t125 -80q55 51 124.5 80t150.5 29q86 0 161.5 -32.5t131.5 -88.5t88.5 -131t32.5 -160v-776q0 -29 -11 -53.5t-29.5 -42.5t-43.5 -28.5t-53 -10.5q-29 0 -54 10.5t-43.5 28.5t-29.5 42.5t-11 53.5v766
q0 28 -11.5 53t-30.5 44t-45 29.5t-54 10.5q-29 0 -53.5 -10.5t-42 -29t-28 -43t-11.5 -52.5v-176q0 -29 -10.5 -53.5t-29.5 -43.5t-44 -29.5t-53 -10.5q-29 0 -53.5 10.5t-43.5 29.5t-29.5 43.5t-10.5 53.5v172q0 29 -10.5 54.5t-28.5 44t-43.5 29.5t-55.5 11
q-29 0 -54 -10.5t-44 -29.5t-30 -44t-11 -53v-766q0 -29 -10.5 -53.5t-29.5 -42.5t-44 -28.5t-53 -10.5q-29 0 -53.5 10.5t-43.5 28.5t-29.5 42.5t-10.5 53.5v776z" />
    <glyph glyph-name="N" unicode="N" horiz-adv-x="1191" 
d="M106 798q0 113 32.5 209t94 165.5t151 109t204.5 39.5t206 -38t155 -108t98 -170t34 -224v-656q0 -29 -11 -53.5t-29.5 -42.5t-44 -28.5t-53.5 -10.5t-53 10.5t-43.5 28.5t-29.5 42.5t-11 53.5v656q0 127 -54.5 197t-157.5 70t-158.5 -63t-55.5 -205v-655
q0 -29 -10.5 -53.5t-29.5 -42.5t-44 -28.5t-53 -10.5q-29 0 -53.5 10.5t-43.5 28.5t-29.5 42.5t-10.5 53.5v673z" />
    <glyph glyph-name="O" unicode="O" horiz-adv-x="1418" 
d="M707 -12q-138 0 -259.5 52.5t-211.5 143t-141.5 211.5t-51.5 259t51.5 259.5t142 212.5t211.5 143t259 52q92 0 177 -24t159.5 -67t135.5 -104t104.5 -135.5t67.5 -159.5t24 -177q0 -138 -53 -259t-143.5 -211.5t-212 -143t-259.5 -52.5zM708 255q83 0 155.5 31
t126.5 84.5t85.5 126.5t31.5 157q0 83 -31.5 155t-85.5 126t-126.5 85.5t-155.5 31.5t-156 -31.5t-126.5 -85.5t-84.5 -126t-31 -155q0 -84 31 -157t84.5 -126.5t126.5 -84.5t156 -31z" />
    <glyph glyph-name="P" unicode="P" horiz-adv-x="1121" 
d="M106 807q0 113 36 204.5t100.5 160t152.5 108t192 39.5q103 0 194.5 -39.5t160 -108t108 -160t39.5 -204.5q0 -104 -39.5 -195.5t-108 -159.5t-160 -107.5t-194.5 -39.5q-60 0 -111.5 18t-96.5 47l-5 -237q0 -29 -9.5 -54.5t-27 -44.5t-41.5 -29.5t-53 -10.5t-53.5 10.5
t-43.5 29.5t-29.5 44.5t-10.5 54.5v674zM597 578q47 0 89.5 18.5t74.5 50.5t51 75t19 91t-19 93.5t-51 74.5t-74.5 45t-89.5 16t-88.5 -18t-72 -48.5t-48.5 -77t-18 -93.5t18 -88.5t48.5 -72t72 -48.5t88.5 -18z" />
    <glyph glyph-name="Q" unicode="Q" horiz-adv-x="1418" 
d="M707 -12q-93 0 -178 24t-158.5 67t-134 104t-103.5 134.5t-66.5 158.5t-23.5 177q0 138 51.5 259.5t141.5 212t211 143t260 52.5q138 0 259.5 -52.5t212.5 -143t143.5 -212t52.5 -259.5q0 -128 -44 -239t-122 -199q7 1 18.5 6t43.5 5q21 0 44 -6t42.5 -20.5t32 -39
t12.5 -61.5q0 -40 -14.5 -67.5t-36.5 -45t-49 -26.5t-52 -13.5t-44.5 -5t-26.5 -0.5q-63 0 -115 28.5t-92 73.5q-63 -26 -128 -40.5t-137 -14.5zM779 602q87 0 158.5 -41t116.5 -108q25 45 38.5 95t13.5 105q0 82 -31 154.5t-85 126.5t-126.5 85.5t-155.5 31.5t-155.5 -31.5
t-126 -85.5t-84.5 -126.5t-31 -154.5q0 -97 39 -177.5t108 -134.5q12 56 41.5 104t71.5 83t95 54.5t113 19.5zM708 255q79 0 142 25q-12 22 -39 37t-59 15q-43 0 -69.5 -20t-28.5 -54q25 -3 54 -3z" />
    <glyph glyph-name="R" unicode="R" horiz-adv-x="1071" 
d="M106 795v9q0 10 2 15q-2 4 -2 11q0 109 33.5 196t94 152t144 103t183.5 38q97 0 183.5 -37.5t150.5 -101.5t101.5 -150.5t37.5 -193.5q0 -79 -24 -144.5t-66.5 -116.5t-99.5 -88t-123 -59l200 -197q19 -19 28 -43.5t9 -50.5q0 -28 -10.5 -52.5t-29 -43t-43.5 -29.5
t-53 -11q-27 0 -53 10.5t-47 31.5l-343 339l-5 -249q0 -29 -9.5 -54.5t-27 -44.5t-41.5 -29.5t-53 -10.5t-53.5 10.5t-43.5 29.5t-29.5 44.5t-10.5 54.5v662zM575 651q39 0 74 15.5t61 42t41.5 62t15.5 75.5t-15.5 78t-41.5 62t-61 37t-74 13t-73 -14.5t-59 -40t-39.5 -64.5
t-14.5 -77q0 -39 14.5 -73.5t39.5 -60t59 -40.5t73 -15z" />
    <glyph glyph-name="S" unicode="S" horiz-adv-x="1040" 
d="M62 244q-18 37 -18 70q0 28 12 51.5t30.5 41t42 27t46.5 9.5q32 0 61.5 -19.5t60.5 -58.5q43 -55 99 -83.5t135 -28.5q37 0 73 9t64.5 25.5t45.5 41t17 54.5q0 39 -17.5 61.5t-44.5 35.5t-60.5 19t-65.5 11q-110 18 -197 50.5t-148 82.5t-93.5 117t-32.5 154
q0 88 36 162.5t98 128.5t144.5 84.5t174.5 30.5q62 0 122 -12.5t113.5 -36.5t97 -60.5t72.5 -84.5q8 -12 11 -25t3 -26q0 -25 -9.5 -47t-26.5 -38.5t-40 -26t-50 -9.5q-20 0 -39.5 5.5t-38.5 18.5l-48 32t-43.5 24t-50.5 15t-69 5q-45 0 -80 -10.5t-59.5 -29t-37.5 -44
t-13 -54.5q0 -38 19 -60.5t55.5 -38t90.5 -26.5t123 -26t135.5 -41t118 -69.5t83.5 -106.5t32 -150q0 -85 -35.5 -159.5t-99 -130.5t-150.5 -88.5t-190 -32.5q-80 0 -152 20.5t-132 55.5t-105 81.5t-70 99.5z" />
    <glyph glyph-name="T" unicode="T" horiz-adv-x="1020" 
d="M380 1056h-254q-28 0 -52 10.5t-42 28.5t-28 42t-10 52q0 27 10 51t28 42t42 28.5t52 10.5h764q27 0 51.5 -10.5t42.5 -29t28.5 -43t10.5 -51.5q0 -28 -10.5 -52t-28.5 -41.5t-42.5 -27.5t-51.5 -10h-249v-937q0 -28 -10.5 -52t-29 -41.5t-43 -27.5t-51.5 -10t-50.5 10
t-40.5 27.5t-26.5 41.5t-9.5 52v937z" />
    <glyph glyph-name="U" unicode="U" horiz-adv-x="1141" 
d="M83 1186q0 28 10.5 53t29.5 43t43.5 28.5t53.5 10.5q28 0 53 -10.5t44 -28.5t29.5 -43t10.5 -53v-656q0 -141 55.5 -204t158.5 -63q105 0 158.5 69.5t53.5 196.5v657q0 28 11 53t29.5 43t43.5 28.5t54 10.5q28 0 53 -10.5t43.5 -28.5t29.5 -43t11 -53v-657
q0 -124 -34 -223.5t-98 -169.5t-155 -108t-206 -38t-204.5 39t-151 109t-94 166t-32.5 209v673z" />
    <glyph glyph-name="V" unicode="V" horiz-adv-x="1205" 
d="M41 1141q-11 27 -11 51t10 48t28 42.5t42.5 30t53.5 11.5q39 0 73 -22t51 -60l317 -775l317 775q16 38 49 59.5t73 21.5q29 0 53 -11t41.5 -29.5t27 -41.5t9.5 -47q0 -25 -11 -53l-433 -1059q-2 -10 -9 -20q-17 -35 -48.5 -54t-68.5 -20h-5q-38 0 -70.5 22t-49.5 60z" />
    <glyph glyph-name="W" unicode="W" horiz-adv-x="1542" 
d="M83 1188q0 28 10.5 53t29.5 43t43.5 28.5t53.5 10.5q28 0 53 -10.5t44 -28.5t29.5 -43t10.5 -53v-775q0 -29 11 -54.5t29.5 -44.5t44 -30t54.5 -11q30 0 55.5 11t43.5 30t28.5 44.5t10.5 54.5v183q0 28 10.5 53t29.5 44t43.5 29.5t53.5 10.5q28 0 53 -10.5t44 -29.5
t29.5 -44t10.5 -53v-183q0 -29 10 -54.5t28 -44.5t43 -30t54 -11t55 11t45 30t30 44.5t11 54.5v775q0 28 11 53t29.5 43t43.5 28.5t54 10.5q28 0 53 -10.5t43.5 -28.5t29.5 -43t11 -53v-788q0 -85 -32.5 -160t-88.5 -130.5t-131.5 -88t-161.5 -32.5q-81 0 -150.5 28.5
t-124.5 79.5q-55 -51 -125 -79.5t-151 -28.5q-86 0 -161 32.5t-130.5 88t-87.5 130.5t-32 160v788z" />
    <glyph glyph-name="X" unicode="X" horiz-adv-x="1063" 
d="M531 422l-268 -378q-17 -24 -41 -35t-52 -11t-53 10.5t-44 29t-30 43t-11 51.5q-1 23 7.5 45t23.5 44l305 430l-306 445q-15 21 -23 45.5t-8 47.5q0 26 10.5 50t29 42t43 29t51.5 11q28 -1 53.5 -12t42.5 -35l270 -381l271 381q17 23 42.5 35t52.5 12q28 0 52.5 -11
t42.5 -29t28 -42t10 -50q0 -24 -7.5 -48t-22.5 -45l-307 -445l306 -430q15 -21 22.5 -45t7.5 -47q0 -27 -11 -51t-30 -41.5t-43.5 -28t-52.5 -10.5q-27 -1 -51 11t-41 35z" />
    <glyph glyph-name="Y" unicode="Y" horiz-adv-x="1182" 
d="M460 505l-446 592q-17 19 -24.5 41t-7.5 45q0 26 10.5 51t29 44.5t43.5 31t54 11.5q28 0 53.5 -11.5t43.5 -34.5l376 -506l375 508q20 23 45 34t53 11q27 0 51 -10.5t42.5 -28.5t29.5 -42t11 -51q0 -23 -7.5 -46t-24.5 -45l-441 -593v-375q0 -28 -10.5 -52t-28.5 -41.5
t-42 -27.5t-52 -10t-52 10t-42 27.5t-28.5 41.5t-10.5 52v374z" />
    <glyph glyph-name="Z" unicode="Z" horiz-adv-x="1057" 
d="M878 1321q28 -1 52 -12t41.5 -29.5t27.5 -42.5t10 -51q0 -25 -8.5 -48.5t-21.5 -40.5l-568 -831h497q27 0 51 -10.5t42 -28.5t28 -42t10 -52t-10 -52t-28 -42t-42 -28.5t-51 -10.5h-756q-27 0 -51.5 10.5t-42.5 28.5t-28.5 42t-10.5 52q0 23 7.5 45.5t22.5 42.5l557 833
h-440q-27 0 -51 10.5t-42 28.5t-28.5 42.5t-10.5 52.5q0 27 11 51.5t29.5 42.5t43 28.5t52.5 10.5h708z" />
    <glyph glyph-name="bracketleft" unicode="[" horiz-adv-x="663" 
d="M133 1174q0 28 10.5 53t29 43.5t43 29.5t52.5 11h236q28 0 53 -11t43 -30.5t28.5 -45t10.5 -53.5t-10.5 -51.5t-28.5 -40t-43 -26t-53 -9.5h-105v-1102h107q28 0 53 -9.5t43 -27t28.5 -41t10.5 -51.5q0 -29 -10.5 -54t-28.5 -43.5t-43 -29.5t-53 -11h-238q-28 0 -52.5 11
t-43 29.5t-29 43.5t-10.5 54v1361z" />
    <glyph glyph-name="backslash" unicode="\" horiz-adv-x="645" 
d="M573 176q3 -11 5 -21t2 -20q0 -26 -10 -50t-28 -43t-42.5 -30.5t-53.5 -11.5q-43 0 -79 25.5t-50 68.5l-331 1022q-7 20 -7 44q0 29 9.5 55.5t27 47t42 32.5t54.5 12q42 -1 79 -25t51 -68z" />
    <glyph glyph-name="bracketright" unicode="]" horiz-adv-x="663" 
d="M114 -325q-29 0 -53.5 11t-43 29.5t-29 43.5t-10.5 54q0 28 10.5 51.5t29 41t43 27t53.5 9.5h106v1102h-104q-29 0 -53.5 9.5t-42.5 26t-28.5 40t-10.5 51.5t10.5 53.5t28.5 45t42.5 30.5t53.5 11h235q28 0 53 -11t43 -29.5t28.5 -43.5t10.5 -53v-1361q0 -29 -10.5 -54
t-28.5 -43.5t-43 -29.5t-53 -11h-237z" />
    <glyph glyph-name="asciicircum" unicode="^" horiz-adv-x="1178" 
d="M483 1233q17 24 40 35t52 11q25 0 47.5 -11t39.5 -33l407 -588q21 -30 21 -64q0 -21 -8 -40t-22.5 -33.5t-34.5 -23.5t-44 -9q-25 0 -48 11t-40 34l-320 462l-327 -462q-16 -22 -39.5 -34.5t-50.5 -12.5q-22 0 -41.5 8.5t-34 23.5t-23 34.5t-8.5 41.5q0 16 5 31t16 29z
" />
    <glyph glyph-name="underscore" unicode="_" horiz-adv-x="1098" 
d="M877 0q30 0 56.5 -9.5t46 -27t31 -41.5t11.5 -53q0 -30 -11.5 -55t-31 -42.5t-46 -27.5t-56.5 -10h-666q-30 0 -56 10t-44.5 27.5t-29.5 42.5t-11 55q0 29 11 53t29.5 41.5t44.5 27t56 9.5h666z" />
    <glyph glyph-name="grave" unicode="`" horiz-adv-x="510" 
d="M367 1780q47 -13 73.5 -48.5t26.5 -80.5q0 -29 -10.5 -54t-28 -43t-41.5 -28t-51 -10q-9 0 -18 1t-19 4l-154 41q-44 11 -71.5 46t-27.5 80q0 29 11 54t30 43.5t43.5 29t51.5 10.5q19 0 34 -4z" />
    <glyph glyph-name="a" unicode="a" horiz-adv-x="1109" 
d="M532 -11q-101 0 -189.5 38.5t-155 104.5t-105 154.5t-38.5 189.5t38.5 190t105 155.5t155 105t189.5 38.5q100 0 188 -38t154 -103t105 -153t41 -187v-359q0 -29 -10.5 -53.5t-29 -43t-43.5 -29t-53 -10.5q-38 0 -66.5 17t-45.5 46q-54 -30 -114 -46.5t-126 -16.5z
M532 256q46 0 86.5 17t70.5 47t47.5 70t17.5 86t-17.5 86t-47.5 70t-70.5 47t-86.5 17q-45 0 -85 -17t-70.5 -47t-48 -70t-17.5 -86t17.5 -86t48 -70t70.5 -47t85 -17z" />
    <glyph glyph-name="b" unicode="b" horiz-adv-x="1109" 
d="M89 1183q0 29 10.5 54.5t28.5 44t42.5 29t52.5 10.5t52.5 -10.5t42 -29t27.5 -44t10 -54.5v-307q16 19 41.5 35t56 28t63 19t62.5 7q100 0 189 -38.5t155 -105t104.5 -155.5t38.5 -190t-38.5 -189.5t-104.5 -154.5t-155 -104.5t-189 -38.5q-101 0 -189.5 38.5
t-155.5 104.5t-105.5 154.5t-38.5 189.5v707zM356 476q0 -46 17.5 -86t48 -70t71 -47t85.5 -17q46 0 86 17t70 47t47.5 70t17.5 86t-17.5 86t-47.5 70t-70 47t-86 17q-45 0 -85.5 -17t-71 -47t-48 -70t-17.5 -86z" />
    <glyph glyph-name="c" unicode="c" horiz-adv-x="974" 
d="M544 -11q-104 0 -195 37t-158.5 102t-107 153.5t-39.5 191.5t39.5 193t107.5 156.5t159 104.5t194 38q99 0 186 -33t151 -99q24 -25 36 -54t12 -57q0 -31 -14 -55t-34.5 -41t-43.5 -26t-41 -9q-36 0 -65 17.5t-56 38.5q-36 27 -69.5 37t-68.5 10q-47 0 -87.5 -18t-70 -48
t-46 -69.5t-16.5 -82.5q0 -38 15 -76t42 -69t64 -51t81 -21q5 0 9.5 -0.5t9.5 -0.5q35 0 68.5 10t68.5 38q26 21 55 38t64 17q19 0 42 -8.5t43.5 -25.5t34.5 -41.5t14 -55.5q0 -28 -11.5 -56.5t-35.5 -52.5q-64 -66 -152 -99t-185 -33z" />
    <glyph glyph-name="d" unicode="d" horiz-adv-x="1109" 
d="M44 476q0 101 38.5 190t105 155.5t155 105t189.5 38.5q86 0 138 -21.5t84 -63.5v302q0 29 10 54.5t27.5 44t41.5 29t53 10.5q28 0 52.5 -10.5t42.5 -29t28.5 -44t10.5 -54.5v-706q0 -101 -38.5 -189.5t-104.5 -154.5t-155 -104.5t-190 -38.5t-189.5 38.5t-155 104.5
t-105 154.5t-38.5 189.5zM311 476q0 -46 17.5 -86t48 -70t70.5 -47t85 -17q46 0 86.5 17t70.5 47t47.5 70t17.5 86t-17.5 86t-47.5 70t-70.5 47t-86.5 17q-45 0 -85 -17t-70.5 -47t-48 -70t-17.5 -86z" />
    <glyph glyph-name="e" unicode="e" horiz-adv-x="1071" 
d="M341 357q32 -52 83 -82t112 -30q39 0 62.5 6.5t42.5 17.5q20 13 39.5 18.5t37.5 5.5q28 0 51.5 -11t41 -30t27.5 -44t10 -52q0 -34 -19 -64.5t-58 -53t-97.5 -36t-137.5 -13.5q-101 0 -190.5 38.5t-156.5 104.5t-106 154.5t-39 189.5q0 102 39 191t106 155.5t156.5 104.5
t190.5 38q100 0 188.5 -37.5t155 -103t106 -153.5t41.5 -188q0 -57 -36.5 -91.5t-94.5 -34.5h-555zM754 579q-28 60 -84 96t-129 36q-75 0 -128 -37.5t-80 -94.5h421z" />
    <glyph glyph-name="f" unicode="f" horiz-adv-x="756" 
d="M155 -314q-28 0 -52 10t-42 28t-28.5 42.5t-10.5 53.5q0 27 10.5 51t28.5 42t42 28.5t52 10.5q31 0 53 22t24 52v425h-29q-28 0 -52 10.5t-42 29t-28.5 43t-10.5 51.5t10.5 51t28.5 42t42 28.5t52 10.5h29v263q1 70 28.5 132t74 108t109 73t133.5 27q28 0 52.5 -10.5
t43 -28.5t29 -43t10.5 -53q0 -27 -10.5 -51t-29 -42t-43 -28.5t-52.5 -10.5h-3q-30 -2 -51.5 -23t-23.5 -51v-262h60q28 0 52.5 -10.5t42.5 -28.5t28.5 -42t10.5 -51q0 -28 -10.5 -52.5t-28.5 -42.5t-42.5 -28.5t-52.5 -10.5h-60v-419q0 -29 -10.5 -53.5t-28.5 -42.5
t-42 -28t-51 -10t-51 10t-42.5 27t-29.5 40.5t-12 50.5v6l267 2q0 -71 -27 -134.5t-73.5 -111t-109 -75t-134.5 -27.5z" />
    <glyph glyph-name="g" unicode="g" horiz-adv-x="1068" 
d="M44 476q0 101 38.5 190t105 155.5t155 105t189.5 38.5t190 -38.5t155 -105t104.5 -155.5t38.5 -190q0 -73 -20 -139t-57 -123q32 -34 56.5 -92t24.5 -149q0 -100 -32.5 -169t-86.5 -112t-124 -62.5t-145 -19.5q-18 0 -34.5 1t-33.5 1q-34 0 -63 -9.5t-65 -39.5
q-37 -31 -79 -31q-27 0 -52.5 11t-45.5 29.5t-32 43t-12 51.5q0 34 25 71t70.5 67.5t108.5 50.5t139 20q60 0 98.5 4t61 14.5t31 28.5t8.5 47q0 28 -7.5 43t-13.5 22q-96 -46 -208 -46q-101 0 -189.5 38.5t-155 104.5t-105 154.5t-38.5 189.5zM311 476q0 -46 17.5 -86
t48 -70t70.5 -47t85 -17q46 0 86.5 17t70.5 47t47.5 70t17.5 86t-17.5 86t-47.5 70t-70.5 47t-86.5 17q-45 0 -85 -17t-70.5 -47t-48 -70t-17.5 -86z" />
    <glyph glyph-name="h" unicode="h" horiz-adv-x="1153" 
d="M788 490q0 44 -13.5 83t-38.5 67.5t-60.5 45t-79.5 16.5t-89.5 -15t-83 -42t-61.5 -64t-24 -80v-369q0 -27 -10 -51t-28 -42t-42 -28.5t-52 -10.5t-52.5 10.5t-42.5 28.5t-28.5 42t-10.5 51v1055q0 28 10.5 52.5t29 42.5t43 28.5t51.5 10.5t51 -10.5t42 -28.5t28.5 -42.5
t10.5 -52.5v-328q55 49 120.5 77.5t137.5 28.5q97 0 181 -37.5t145.5 -102t96.5 -151t35 -184.5v-362q0 -28 -10.5 -51.5t-29 -41t-42.5 -27.5t-51 -10t-51.5 10t-42.5 27.5t-28.5 41t-10.5 51.5v362z" />
    <glyph glyph-name="i" unicode="i" horiz-adv-x="474" 
d="M94 1188q0 30 11.5 55.5t31 45t45.5 30.5t55 11t55 -11t45.5 -30.5t31 -45t11.5 -55.5q0 -29 -11.5 -55t-31 -45.5t-45.5 -30.5t-55 -11t-55 11t-45.5 30.5t-31 45.5t-11.5 55zM102 833q0 27 11 51t29.5 42t43.5 28.5t53 10.5q27 0 51 -10.5t41.5 -28.5t27.5 -42t10 -51
v-712q0 -27 -10.5 -51t-28.5 -42t-42 -28.5t-51 -10.5t-51.5 10.5t-43 28.5t-29.5 42t-11 51v712z" />
    <glyph glyph-name="j" unicode="j" horiz-adv-x="532" 
d="M-78 -166q0 28 10.5 52.5t28.5 42.5t42 28.5t51 10.5h4q31 2 53 24t22 54v783q0 28 11 52.5t29 43t42.5 29t51.5 10.5q28 0 52 -10.5t42 -29t28 -43t10 -52.5v-783q0 -72 -27 -135t-73.5 -110t-109 -74t-133.5 -27h-2q-27 0 -51 10.5t-42 29t-28.5 43t-10.5 51.5z
M127 1185q0 30 11.5 55.5t31 45t45.5 30.5t55 11t54.5 -11t44 -30.5t29.5 -45t11 -55.5q0 -29 -11.5 -55t-31 -45.5t-46 -31t-55.5 -11.5t-54.5 11.5t-44 31t-29 45.5t-10.5 55z" />
    <glyph glyph-name="k" unicode="k" horiz-adv-x="953" 
d="M337 352v-222q0 -27 -10 -51t-28 -41.5t-41.5 -27.5t-50.5 -10t-51.5 10t-43 27.5t-29.5 41.5t-11 51v1051q0 27 11 50.5t29.5 41.5t43 28t51.5 10q28 0 52 -10t41.5 -28t27.5 -41.5t10 -50.5l-1 -534l292 268q38 35 87 35q27 0 51.5 -10.5t43 -29t30 -43t11.5 -52.5
q1 -26 -10 -50t-31 -43l-243 -223l300 -274q19 -17 27.5 -38t8.5 -44q0 -27 -10.5 -52.5t-28.5 -45t-41.5 -31t-50.5 -11.5q-55 0 -98 40z" />
    <glyph glyph-name="l" unicode="l" horiz-adv-x="631" 
d="M477 261q28 0 52.5 -10t41.5 -28t27 -42t10 -51q0 -28 -10 -52t-27 -41t-41.5 -27t-52.5 -10q-70 0 -132.5 23.5t-109.5 66.5t-74.5 102.5t-27.5 131.5v854q0 28 10 52t27.5 42t40.5 28.5t50 10.5q28 0 53 -10.5t44 -28.5t30 -42t11 -52v-860q2 -29 22.5 -43t55.5 -14z
" />
    <glyph glyph-name="m" unicode="m" horiz-adv-x="1346" 
d="M89 607q0 74 28.5 139t77 114t113.5 77t139 28q66 0 123 -22t105 -60q48 38 104.5 60t122.5 22q74 0 141 -28t117.5 -77t80.5 -114t30 -139v-476q0 -28 -10.5 -52t-28.5 -41.5t-41.5 -27.5t-50.5 -10q-28 0 -52 10t-42 27.5t-28.5 41.5t-10.5 52v468q0 19 -9 36t-24 29.5
t-33.5 19.5t-36.5 7q-35 0 -61.5 -22.5t-31.5 -56.5q0 -4 0.5 -8t0.5 -9v-204q0 -28 -10.5 -52t-28 -42t-41.5 -28.5t-51 -10.5q-28 0 -52 10.5t-42 28.5t-28.5 42t-10.5 52v195q0 4 -2 12v1q0 19 -7.5 36t-20.5 30t-30 20.5t-36 7.5q-35 0 -62 -21.5t-35 -53.5
q1 -5 1.5 -9.5t0.5 -9.5l-4 -468q-1 -28 -11.5 -52t-28 -41.5t-41 -27.5t-50.5 -10q-28 0 -52 10t-42 27.5t-28.5 41.5t-10.5 52v476z" />
    <glyph glyph-name="n" unicode="n" 
d="M58 490q0 98 37.5 184.5t102 151t150.5 102t184 37.5q99 0 187 -37.5t155 -102t106 -151t39 -184.5v-360q0 -28 -10 -51.5t-27.5 -41t-41.5 -27.5t-51 -10q-28 0 -52.5 10t-43 27.5t-29 41t-10.5 51.5v359q-1 43 -19.5 81t-49.5 66.5t-70.5 45t-82.5 16.5t-80.5 -15.5
t-65 -43t-44 -64.5t-17.5 -80v-365q0 -28 -10 -51.5t-28 -41t-41.5 -27.5t-50.5 -10t-52 10t-44 27.5t-30 41t-11 51.5v360z" />
    <glyph glyph-name="o" unicode="o" horiz-adv-x="1064" 
d="M311 476q0 -46 17.5 -86t48 -70t70.5 -47t85 -17q46 0 86.5 17t70.5 47t47.5 70t17.5 86t-17.5 86t-47.5 70t-70.5 47t-86.5 17q-45 0 -85 -17t-70.5 -47t-48 -70t-17.5 -86zM44 476q0 101 38.5 190t105 155.5t155 105t189.5 38.5t190 -38.5t155 -105t104.5 -155.5
t38.5 -190t-38.5 -189.5t-104.5 -154.5t-155 -104.5t-190 -38.5t-189.5 38.5t-155 104.5t-105 154.5t-38.5 189.5z" />
    <glyph glyph-name="p" unicode="p" horiz-adv-x="1109" 
d="M89 484q1 99 40.5 187t106 153t155 103t187.5 38q100 0 189 -38.5t155 -105t104.5 -155.5t38.5 -190t-38.5 -189.5t-104.5 -154.5t-155 -104.5t-189 -38.5q-60 0 -116 14t-107 40v-250q0 -29 -9.5 -54.5t-26.5 -44.5t-41 -29.5t-53 -10.5q-28 0 -52.5 10.5t-43 29.5
t-29.5 44.5t-11 54.5v691zM356 476q0 -46 17.5 -86t48 -70t71 -47t85.5 -17q46 0 86 17t70 47t47.5 70t17.5 86t-17.5 86t-47.5 70t-70 47t-86 17q-45 0 -85.5 -17t-71 -47t-48 -70t-17.5 -86z" />
    <glyph glyph-name="q" unicode="q" horiz-adv-x="1109" 
d="M44 476q0 101 38.5 190t105 155.5t155 105t189.5 38.5t190 -38.5t155 -105t104.5 -155.5t38.5 -190v-683q0 -29 -11 -54.5t-29.5 -44.5t-43 -29.5t-52.5 -10.5q-29 0 -53 10.5t-41 29.5t-26.5 44.5t-9.5 54.5v249q-103 -53 -222 -53q-101 0 -189.5 38.5t-155 104.5
t-105 154.5t-38.5 189.5zM311 476q0 -46 17.5 -86t48 -70t70.5 -47t85 -17q46 0 86.5 17t70.5 47t47.5 70t17.5 86t-17.5 86t-47.5 70t-70.5 47t-86.5 17q-45 0 -85 -17t-70.5 -47t-48 -70t-17.5 -86z" />
    <glyph glyph-name="r" unicode="r" horiz-adv-x="762" 
d="M89 467q3 102 44 192t109.5 157.5t159 107t192.5 41.5h9q66 -1 101.5 -38t35.5 -94q0 -29 -11 -53t-29.5 -42t-44 -28t-53.5 -10q-50 0 -94.5 -19t-78 -52t-53.5 -77.5t-21 -95.5v-325q0 -28 -10 -52t-28 -41.5t-41.5 -27.5t-50.5 -10t-52 10t-43.5 27.5t-29.5 41.5
t-11 52v336z" />
    <glyph glyph-name="s" unicode="s" horiz-adv-x="889" 
d="M531 266q9 0 19 2t18 7t13.5 14t5.5 23q0 15 -5.5 23.5t-14.5 12.5t-20 5t-21 1h-159q-65 0 -120 26t-94.5 70t-62 101t-22.5 119q0 60 23.5 114t64 94t95 63.5t116.5 23.5h310q27 0 51 -8.5t42 -25t28.5 -40.5t10.5 -55q0 -29 -10 -54t-26.5 -43.5t-39.5 -29t-48 -10.5
h-8h-305q-14 0 -26 -10.5t-12 -28.5q0 -23 12.5 -31t23.5 -8h182q66 0 121.5 -26t95.5 -69.5t62 -100.5t22 -119t-21.5 -116.5t-60 -96t-92.5 -66.5t-118 -27h-388q-27 0 -49 10t-38.5 28t-25.5 43t-9 55q0 60 34 95t88 35h358z" />
    <glyph glyph-name="t" unicode="t" horiz-adv-x="958" 
d="M89 1123q0 28 11 52.5t29 43t42.5 29t51.5 10.5t52.5 -10.5t44.5 -28.5t30.5 -43t11.5 -53v-128h307q27 0 51.5 -10.5t43 -29t29 -43t10.5 -51.5t-10.5 -50t-29 -40.5t-43 -27.5t-51.5 -10h-307v-259q0 -46 16.5 -86t45.5 -70t68 -47t85 -17q41 0 76 11t62 36
q22 20 46.5 32.5t54.5 12.5q22 0 44 -9.5t38.5 -26.5t27 -39.5t10.5 -48.5q0 -31 -12.5 -61t-35.5 -53q-62 -60 -141 -90t-170 -30q-101 0 -190 38.5t-155 104.5t-104.5 155t-38.5 190v647z" />
    <glyph glyph-name="u" unicode="u" 
d="M89 833q0 27 10.5 51t28.5 42t42 28.5t51 10.5t51.5 -10.5t43 -28.5t29 -42t10.5 -51v-373q0 -44 16 -81.5t44.5 -65t67 -43t82.5 -15.5t79 16t59 44t37 66t13 82v370q0 27 11 51t29.5 42t43.5 28.5t52 10.5t51 -10.5t41.5 -28.5t27.5 -42t10 -51v-370q0 -98 -34 -184
t-95 -150.5t-144 -102t-181 -37.5t-185 37.5t-151.5 102t-102 150.5t-37.5 184v370z" />
    <glyph glyph-name="v" unicode="v" horiz-adv-x="962" 
d="M55 776q-12 27 -12 54q0 26 10 50.5t27.5 43t42 30t53.5 11.5q38 0 71 -21t50 -58l184 -439l183 438q15 37 48.5 58t71.5 21q29 0 53.5 -11t42.5 -30t28 -43t10 -49q1 -14 -2.5 -28t-9.5 -28l-302 -695q-14 -31 -43 -54.5t-73 -25.5q-42 0 -77 21t-52 59z" />
    <glyph glyph-name="w" unicode="w" horiz-adv-x="1346" 
d="M89 835q0 28 10.5 52t28.5 41.5t42 27.5t52 10q27 0 50.5 -10t41 -27.5t28 -41.5t11.5 -52l4 -480q0 -5 -0.5 -10t-1.5 -10q8 -32 35 -53t62 -21q21 0 38.5 8.5t30 22.5t20 32.5t7.5 38.5v200q0 28 10.5 52t28.5 42t42 28.5t52 10.5q27 0 51 -10.5t41.5 -28.5t28 -42
t10.5 -52v-204q0 -5 -0.5 -9t-0.5 -9q5 -33 31.5 -55.5t61.5 -22.5q18 0 36.5 7t33.5 19.5t24 29t9 36.5v480q0 28 10.5 52t28.5 41.5t42 27.5t52 10q27 0 50.5 -10t41.5 -27.5t28.5 -41.5t10.5 -52v-488q0 -74 -30 -139t-80.5 -113.5t-117.5 -77t-141 -28.5
q-66 0 -122.5 22t-104.5 60q-48 -38 -105 -60t-123 -22q-74 0 -139 28.5t-113.5 77t-77 113.5t-28.5 139v488z" />
    <glyph glyph-name="x" unicode="x" horiz-adv-x="1024" 
d="M513 288l-250 -250q-19 -19 -44.5 -28.5t-51.5 -9.5q-28 0 -52.5 10.5t-43 28t-29 41t-10.5 49.5q0 25 9.5 49t29.5 44l253 255l-265 266q-19 19 -28 42.5t-9 48.5q0 27 10.5 51t28.5 43t42 30t51 11q26 -1 50.5 -10t44.5 -29l263 -265l260 262q20 20 45.5 30.5
t51.5 10.5q28 0 52 -11.5t42 -30t28 -43.5t10 -52q0 -24 -8.5 -47t-26.5 -41l-266 -267l249 -249q20 -20 29.5 -44t9.5 -50q0 -27 -10.5 -51t-28.5 -42t-42 -28.5t-51 -10.5q-26 0 -50.5 9.5t-43.5 28.5z" />
    <glyph glyph-name="y" unicode="y" horiz-adv-x="1092" 
d="M71 833q0 27 10.5 51t28 42t42 28.5t51.5 10.5q28 0 52 -10.5t42.5 -28.5t29 -42t10.5 -51v-373q0 -44 16 -81.5t44 -65t66 -43t83 -15.5q44 0 82 17t65.5 46t43.5 67.5t16 82.5v365q0 27 11.5 51t29.5 42t43 28.5t52 10.5q28 0 51.5 -10.5t41.5 -28.5t27.5 -42t9.5 -51
v-370q0 -82 -25.5 -155.5t-71.5 -133t-109 -103t-137 -65.5v-218q0 -29 -10 -53.5t-28 -42.5t-42 -28t-52 -10t-53 10t-43.5 28t-28.5 42.5t-10 53.5v220q-74 23 -136 67t-107 103.5t-70 132t-25 152.5v370z" />
    <glyph glyph-name="z" unicode="z" horiz-adv-x="1050" 
d="M851 965q18 0 41 -7t43.5 -22t34 -40t13.5 -61q0 -32 -13 -59t-36 -45l-467 -472h405q28 0 52.5 -9.5t42.5 -27t28.5 -40.5t10.5 -50t-10.5 -51t-28.5 -42t-42.5 -28.5t-52.5 -10.5h-695q-27 0 -51 10.5t-42 28.5t-28.5 42t-10.5 51q-1 25 9 48t30 43l473 479h-373
q-27 0 -51 10.5t-41.5 28.5t-28 42t-10.5 52q0 27 10.5 50.5t28 41.5t41.5 28t51 10h667z" />
    <glyph glyph-name="braceleft" unicode="{" horiz-adv-x="899" 
d="M223 367h-36q-30 0 -56 11.5t-45.5 32t-30.5 47.5t-11 58q0 30 11 56t30.5 45.5t45.5 30.5t56 11h36v186q3 97 42 182t105 148t153.5 99.5t186.5 36.5h25t25 -2q28 0 52.5 -10t41.5 -28t27 -42.5t10 -52.5q0 -27 -10 -51t-27 -42t-41.5 -28.5t-52.5 -10.5h-82
q-40 0 -74.5 -18t-60 -47.5t-40.5 -67.5t-15 -77v-690q1 -39 16 -75.5t40.5 -65.5t60 -46.5t73.5 -17.5h82q28 0 52.5 -10.5t41.5 -28.5t27 -42.5t10 -52.5t-10 -52t-27 -41.5t-41.5 -27.5t-52.5 -10q-27 -3 -53 -3q-101 0 -189 37.5t-153.5 103t-103.5 153t-38 187.5v215z
" />
    <glyph glyph-name="bar" unicode="|" horiz-adv-x="532" 
d="M133 1176q0 28 10 52.5t27.5 43t41.5 29t52 10.5t53 -10.5t43 -29t28.5 -43t10.5 -52.5v-1305q0 -29 -10.5 -53.5t-29 -42.5t-43 -28.5t-52.5 -10.5t-52 10.5t-41.5 28.5t-27.5 42.5t-10 53.5v1305z" />
    <glyph glyph-name="braceright" unicode="}" horiz-adv-x="901" 
d="M641 659h36q30 0 56 -11t45.5 -30.5t30.5 -45.5t11 -56q0 -31 -11 -58t-30.5 -47.5t-45.5 -32t-56 -11.5h-36v-225q-2 -99 -41 -185t-105 -149.5t-154 -99.5t-188 -36h-24.5t-24.5 2q-28 0 -52 10t-41.5 27.5t-27.5 41.5t-10 52t10 52.5t27.5 42.5t41.5 28.5t52 10.5h82
q40 0 74.5 18t60 47.5t40.5 67.5t15 78v689q-1 39 -16.5 75.5t-41 65.5t-59.5 46.5t-73 17.5h-82q-28 0 -52 10.5t-41.5 28.5t-27.5 42t-10 51q0 28 10 52.5t27.5 42.5t41.5 28t52 10q12 1 24 1.5t24 0.5q100 0 188.5 -37.5t155.5 -102t106 -151.5t39 -186v-175z" />
    <glyph glyph-name="asciitilde" unicode="~" horiz-adv-x="1065" 
d="M471 486q-6 4 -16 12t-22 16.5t-26 14.5t-28 6q-17 0 -39 -12t-51 -42l-9 -10q-41 -38 -96 -38q-27 0 -51 10.5t-41.5 28.5t-28 42t-10.5 51q0 26 9 50t29 44l5 5q11 11 36 34t60.5 46.5t80.5 41t96 17.5q54 0 95 -18t83 -49q7 -5 17 -14t22.5 -17t26 -14t28.5 -6
q17 0 40.5 13.5t58.5 50.5q18 20 43 29t50 9q28 0 52 -11t42 -29t28 -42t10 -49q0 -52 -37 -95l-1 -1q-8 -8 -32 -31t-60.5 -48t-84 -44t-101.5 -19t-96 19t-82 49z" />
    <glyph glyph-name="exclamdown" unicode="&#xa1;" horiz-adv-x="541" 
d="M133 867q0 28 11 53.5t29.5 44t43.5 29.5t53 11t53 -11t44 -29.5t30 -44t11 -53.5q0 -27 -11 -52t-30 -44t-44 -30t-53 -11t-53 11t-43.5 30t-29.5 44t-11 52zM399 -171q0 -29 -10.5 -53.5t-28.5 -42.5t-42 -28.5t-52 -10.5q-27 0 -51.5 10.5t-42.5 28.5t-28.5 42.5
t-10.5 53.5v700q0 28 10 53t27.5 43.5t41.5 29t52 10.5t53 -10.5t43 -29t28.5 -43.5t10.5 -53v-700z" />
    <glyph glyph-name="cent" unicode="&#xa2;" horiz-adv-x="974" 
d="M397 141l269 -32v-238q0 -29 -11 -53.5t-29.5 -42.5t-43 -28.5t-52.5 -10.5q-27 0 -51.5 10.5t-42.5 28.5t-28.5 42.5t-10.5 53.5v270zM397 1120q0 28 10.5 53t28.5 43t42.5 28.5t51.5 10.5q28 0 53 -10.5t43.5 -28.5t29 -43t10.5 -53v-194l-269 -17v211zM544 -11
q-104 0 -195 37t-158.5 102t-107 153.5t-39.5 191.5t39.5 193t107.5 156.5t159 104.5t194 38q99 0 186 -33t151 -99q24 -25 36 -54t12 -57q0 -31 -14 -55t-34.5 -41t-43.5 -26t-41 -9q-36 0 -65 17.5t-56 38.5q-36 27 -69.5 37t-68.5 10q-47 0 -87.5 -18t-70 -48t-46 -69.5
t-16.5 -82.5q0 -38 15 -76t42 -69t64 -51t81 -21q5 0 9.5 -0.5t9.5 -0.5q35 0 68.5 10t68.5 38q26 21 55 38t64 17q19 0 42 -8.5t43.5 -25.5t34.5 -41.5t14 -55.5q0 -28 -11.5 -56.5t-35.5 -52.5q-64 -66 -152 -99t-185 -33z" />
    <glyph glyph-name="sterling" unicode="&#xa3;" horiz-adv-x="1070" 
d="M177 473h-15q-25 0 -46.5 9.5t-37.5 26t-25.5 38.5t-9.5 48q0 25 9.5 46.5t25.5 37.5t37.5 25t46.5 9h15v248v9v6.5t2 7.5q5 67 33 126.5t74 104t106 70.5t128 26h21q27 0 51 -10t42 -28t28 -42t10 -51q0 -28 -10 -52t-28 -42t-42 -28.5t-51 -10.5h-5q-43 -2 -67.5 -26
t-24.5 -60h-1v-248h2q25 0 46.5 -9.5t37.5 -25.5t25.5 -38t9.5 -46q0 -25 -9.5 -47t-25.5 -38.5t-37.5 -26t-46.5 -9.5h-2v-207h445q28 0 52 -10t41.5 -27.5t27.5 -41.5t10 -52q0 -29 -10.5 -53.5t-28.5 -42.5t-42.5 -28.5t-51.5 -10.5h-579q-28 0 -51.5 10t-41 27.5
t-27.5 41.5t-10 52v342z" />
    <glyph glyph-name="currency" unicode="&#xa4;" horiz-adv-x="1040" 
d="M111 662q0 66 20 124t55 109l-96 143q-11 17 -16 35.5t-5 36.5q0 24 9.5 48t26.5 43t41 31t54 12q32 0 61 -14.5t48 -43.5l94 -141q54 14 105 14q56 0 107 -15l91 135q19 28 48 43t61 15q28 0 52 -11t41.5 -29t27.5 -42t10 -50q-1 -20 -6.5 -39.5t-16.5 -36.5l-91 -135
q35 -49 55 -107.5t20 -124.5q0 -69 -22 -130.5t-61 -112.5l89 -131q12 -17 17.5 -36.5t5.5 -38.5q0 -26 -10 -49.5t-28 -42t-42 -29.5t-52 -11q-32 0 -61.5 15t-48.5 44l-91 135q-49 -11 -95 -11q-51 0 -97 12l-101 -145q-20 -29 -49 -44t-61 -15q-29 0 -53 12t-41 31.5
t-27 43t-10 47.5q0 19 5 37.5t17 35.5l100 143q-38 51 -59 111t-21 129zM361 662q0 -31 11.5 -58t31.5 -47.5t46.5 -32t57.5 -11.5t58.5 11.5t47 32t31 47.5t11.5 58q0 30 -11.5 57t-31 47.5t-47 32t-58.5 11.5t-57.5 -11.5t-46.5 -32t-31.5 -47.5t-11.5 -57z" />
    <glyph glyph-name="yen" unicode="&#xa5;" horiz-adv-x="1281" 
d="M502 217h-131q-34 0 -57 24t-23 58t23 57t57 23h131v45h-131q-34 0 -57 24t-23 58t23 57t57 23h68l-383 497q-17 19 -24.5 41t-7.5 45q0 26 10.5 51t29 44.5t43.5 31t54 11.5q28 0 53.5 -11.5t43.5 -34.5l376 -492l375 494q20 23 45 34t53 11q27 0 51.5 -10.5t43 -28.5
t29.5 -42t11 -51q0 -23 -8 -46t-25 -45l-380 -499h84q17 0 32 -6.5t26 -17.5t17.5 -25.5t6.5 -30.5q0 -34 -24 -58t-58 -24h-145v-45h145q17 0 32 -6.5t26 -17.5t17.5 -25.5t6.5 -30.5q0 -34 -24 -58t-58 -24h-145v-86q0 -28 -10.5 -52t-28.5 -41.5t-42 -27.5t-52 -10
t-52 10t-42 27.5t-28.5 41.5t-10.5 52v86z" />
    <glyph glyph-name="brokenbar" unicode="&#xa6;" horiz-adv-x="535" 
d="M133 1178q0 28 10.5 52.5t28.5 43t42.5 29t51.5 10.5q28 0 53 -10.5t43 -29t28.5 -43t10.5 -52.5v-467q0 -29 -10.5 -53.5t-29 -43t-43 -29t-52.5 -10.5q-27 0 -51.5 10.5t-42.5 29t-28.5 43t-10.5 53.5v467zM133 287q0 27 10.5 51.5t28.5 42.5t42.5 28.5t51.5 10.5
q28 0 53 -10.5t43 -28.5t28.5 -42.5t10.5 -51.5v-469q0 -28 -10.5 -52t-29 -42t-43 -28.5t-52.5 -10.5q-27 0 -51.5 10.5t-42.5 28.5t-28.5 42t-10.5 52v469z" />
    <glyph glyph-name="section" unicode="&#xa7;" horiz-adv-x="1056" 
d="M1022 398q0 -58 -17 -110.5t-49 -100.5q23 -60 23 -128q0 -88 -36 -162t-98 -128t-144.5 -84.5t-175.5 -30.5q-61 0 -121 12t-113.5 36.5t-97.5 60.5t-72 84q-14 24 -14 52q0 25 9.5 47t26.5 38.5t39.5 26t49.5 9.5q20 0 39.5 -5.5t38.5 -18.5l48 -32t43.5 -24t50.5 -15
t69 -5q45 0 80.5 10.5t60 29t37.5 43.5t13 54q0 37 -19 57t-56 32t-90.5 20t-122.5 22q-69 15 -135.5 44.5t-118.5 76.5t-84 113t-32 153q0 117 65 212q-22 53 -22 127q0 88 36 162.5t98 128.5t144.5 84.5t175.5 30.5q61 0 121.5 -12.5t113.5 -36.5t97 -60.5t72 -84.5
q14 -24 14 -51q0 -25 -9.5 -47t-26.5 -38.5t-39.5 -26t-49.5 -9.5q-20 0 -39.5 5.5t-38.5 18.5l-48 32t-43.5 24t-50.5 15t-69 5q-45 0 -80.5 -10.5t-59.5 -29t-37 -44t-13 -54.5q0 -37 19 -56.5t55.5 -31.5t90 -20.5t122.5 -22.5q69 -15 135.5 -44.5t118.5 -76.5t84 -112.5
t32 -153.5zM568 530q-79 14 -146 32.5t-122 44.5q-1 -4 -1 -8v-8q0 -39 20.5 -65t52 -42.5t68 -25.5t68.5 -15q79 -14 146 -32.5t121 -44.5q1 5 1.5 9t0.5 8q0 38 -20.5 64t-52 43t-68 26t-68.5 14z" />
    <glyph glyph-name="dieresis" unicode="&#xa8;" horiz-adv-x="799" 
d="M473 1241q0 29 11.5 55t31 45.5t45.5 31t55 11.5q30 0 56 -11.5t45.5 -31t31 -45.5t11.5 -55q0 -30 -11.5 -56t-31 -45.5t-45.5 -30.5t-56 -11q-29 0 -55 11t-45.5 30.5t-31 45.5t-11.5 56zM63 1241q0 29 11 55t30.5 45.5t46 31t56.5 11.5q29 0 55 -11.5t45.5 -31
t31 -45.5t11.5 -55q0 -30 -11.5 -56t-31 -45.5t-45.5 -30.5t-55 -11q-30 0 -56.5 11t-46 30.5t-30.5 45.5t-11 56z" />
    <glyph glyph-name="copyright" unicode="&#xa9;" horiz-adv-x="1456" 
d="M727 -78q-95 0 -182.5 24.5t-163 69t-138 106.5t-106.5 138t-68 163.5t-24 182.5q0 142 53 266.5t145.5 217.5t216.5 147t267 54q94 0 182 -24.5t164 -69t138.5 -107t107.5 -139t69.5 -164t24.5 -181.5t-24.5 -181.5t-69.5 -163.5t-107.5 -138.5t-138.5 -107t-164 -69
t-182 -24.5zM728 197q85 0 160 31.5t130.5 86.5t87.5 130t32 161q0 85 -32 159.5t-87.5 129.5t-130.5 87t-160 32q-86 0 -160.5 -32t-129.5 -87t-87 -129.5t-32 -159.5q0 -86 32 -161t87 -130t129.5 -86.5t160.5 -31.5zM723 735q-29 -1 -54 -14.5t-43 -34t-28 -46.5t-10 -51
q0 -27 11 -53.5t30 -47t45.5 -33t57.5 -12.5q25 0 47.5 6t47.5 26q17 13 37 25t43 12q12 0 27.5 -6t29.5 -17t23.5 -28t9.5 -38q0 -36 -25.5 -65.5t-64 -50.5t-84 -32.5t-84.5 -11.5q-69 0 -129.5 24.5t-106 68t-71.5 103t-26 128.5t26 129t71.5 104.5t106 70t129.5 25.5
q66 0 123.5 -22t102.5 -67q17 -17 25 -35.5t8 -36.5q0 -21 -9.5 -37.5t-23 -28t-29 -17.5t-28.5 -6q-24 0 -44 12t-37 25q-23 18 -44.5 25.5t-44.5 7.5q-4 0 -7.5 -0.5t-7.5 -0.5z" />
    <glyph glyph-name="ordfeminine" unicode="&#xaa;" horiz-adv-x="905" 
d="M443 1320q82 0 152 -31.5t121.5 -86t80.5 -127t29 -154.5v-267q0 -28 -10.5 -53t-29.5 -43.5t-44 -29.5t-53 -11q-31 0 -56.5 12t-42.5 32q-32 -19 -68.5 -29.5t-78.5 -10.5q-82 0 -154.5 31.5t-127 86t-86 127t-31.5 155.5q0 82 31.5 154.5t86 127t127 86t154.5 31.5z
M306 921q0 -29 11 -54t29.5 -44.5t43.5 -30.5t53 -11t53.5 11t45 30.5t30.5 44.5t11 54q0 28 -11 53.5t-30.5 44.5t-45 30t-53.5 11t-53 -11t-43.5 -30t-29.5 -44.5t-11 -53.5z" />
    <glyph glyph-name="guillemotleft" unicode="&#xab;" horiz-adv-x="1375" 
d="M705 391q-2 1 -4.5 3.5t-3.5 4.5q-33 36 -33 86q1 26 9.5 50t27.5 43l357 349q42 40 95 40q27 0 51.5 -11t43 -30t29.5 -43.5t11 -51.5q-1 -25 -10.5 -49t-29.5 -44l-260 -253l259 -257q40 -40 40 -93q0 -28 -11.5 -52.5t-30 -43t-43 -29t-50.5 -10.5t-50.5 10t-44.5 30z
M82 389q-17 14 -33 40.5t-16 58.5q0 22 11 45.5t38 46.5l354 345q42 40 94 40q27 0 51.5 -10.5t43 -29t30 -43.5t11.5 -53q0 -25 -9.5 -49t-29.5 -44l-261 -253l259 -257q20 -20 30 -44t10 -50q0 -28 -11.5 -52.5t-30.5 -42.5t-44 -28.5t-51 -10.5t-50 10t-44 30z" />
    <glyph glyph-name="logicalnot" unicode="&#xac;" horiz-adv-x="1064" 
d="M708 492h-529q-29 0 -53.5 10.5t-42.5 28.5t-28.5 42t-10.5 52t10.5 52.5t28.5 43t42.5 29t53.5 10.5h664q26 0 50 -10t42.5 -28t29.5 -41.5t11 -50.5v-259q0 -29 -10.5 -53.5t-28.5 -42.5t-42.5 -28.5t-51.5 -10.5q-29 0 -53.5 10.5t-42.5 28.5t-28.5 42.5t-10.5 53.5
v121z" />
    <glyph glyph-name="uni00AD" unicode="&#xad;" horiz-adv-x="932" 
d="M788 702q39 0 66 -26t27 -64q0 -19 -7 -36t-20 -30t-30 -20.5t-36 -7.5h-630q-20 0 -36.5 7.5t-28.5 20.5t-18.5 30t-6.5 36q0 39 25.5 64.5t64.5 25.5h630z" />
    <glyph glyph-name="registered" unicode="&#xae;" horiz-adv-x="1398" 
d="M674 -12q-93 0 -178 24t-158.5 67t-134 104t-103.5 134.5t-66.5 158.5t-23.5 177q0 138 51.5 259.5t141.5 212t211 143t260 52.5q138 0 259 -52.5t212 -143t143.5 -212t52.5 -259.5t-52.5 -259t-143.5 -211t-212 -142.5t-259 -52.5zM675 255q83 0 155.5 30.5t126.5 84.5
t85 126.5t31 156.5q0 82 -31 154.5t-85 126.5t-126.5 85.5t-155.5 31.5t-155.5 -31.5t-126 -85.5t-84.5 -126.5t-31 -154.5q0 -84 31 -156.5t84.5 -126.5t126 -84.5t155.5 -30.5zM459 630q3 67 30 125t71.5 101.5t103.5 69t127 26.5h4q42 0 66 -24.5t24 -61.5t-26.5 -61.5
t-63.5 -24.5h-7q-32 -2 -59.5 -14.5t-48.5 -33.5t-33.5 -49t-13.5 -60v-215q0 -37 -25 -61.5t-60 -24.5q-36 0 -62.5 24.5t-26.5 61.5v222z" />
    <glyph glyph-name="macron" unicode="&#xaf;" horiz-adv-x="860" 
d="M656 1332q24 0 45.5 -9t37 -24t24.5 -35.5t9 -43.5q0 -24 -9 -46t-24.5 -38t-37 -25.5t-45.5 -9.5h-383q-24 0 -44.5 9.5t-36 25.5t-24 38t-8.5 46t8.5 44.5t24 35.5t36 23.5t44.5 8.5h383z" />
    <glyph glyph-name="degree" unicode="&#xb0;" horiz-adv-x="842" 
d="M302 913q0 -29 11.5 -55.5t31 -46t45.5 -31t56 -11.5t56.5 11.5t46 31t31 46t11.5 55.5q0 30 -11.5 56.5t-31 46t-46 31t-56.5 11.5t-56 -11.5t-45.5 -31t-31 -46t-11.5 -56.5zM446 546q-74 0 -140 29.5t-115.5 79.5t-78.5 117t-29 141q0 76 29 142t78.5 115.5t115.5 78
t140 28.5q76 0 142.5 -28.5t115.5 -78t77.5 -115.5t28.5 -142q0 -74 -28.5 -141t-77.5 -117t-115.5 -79.5t-142.5 -29.5z" />
    <glyph glyph-name="plusminus" unicode="&#xb1;" horiz-adv-x="860" 
d="M296 662h-141q-28 0 -52 10.5t-42 28.5t-28.5 42t-10.5 52q0 27 10.5 51.5t28.5 43t42 29.5t52 11h141v141q0 28 10.5 52t29 42t43 28.5t52.5 10.5t52 -10.5t42 -28.5t28.5 -42t10.5 -52v-141h142q27 0 51.5 -11t42.5 -29.5t28.5 -43.5t10.5 -53t-10.5 -52t-28.5 -41.5
t-42.5 -27.5t-51.5 -10h-142v-142q0 -28 -10.5 -52t-28.5 -42t-42 -28.5t-52 -10.5q-29 0 -53.5 10.5t-42.5 28.5t-28.5 42t-10.5 52v142zM699 274q28 0 53 -10.5t43.5 -29t29 -43t10.5 -52.5q0 -27 -10.5 -51.5t-29 -42.5t-43.5 -28.5t-53 -10.5h-528q-29 0 -53.5 10.5
t-42.5 28.5t-28.5 42.5t-10.5 51.5q0 28 10.5 53t28.5 43t42.5 28.5t53.5 10.5h528z" />
    <glyph glyph-name="twosuperior" unicode="&#xb2;" horiz-adv-x="723" 
d="M53 1081q0 39 15 63v1q12 30 35 59t57.5 52t81.5 37t106 14q63 0 118.5 -20t97.5 -55.5t66 -83t24 -102.5q0 -35 -8 -74t-34 -67l-132 -139h55q27 0 50.5 -10t40.5 -27.5t26.5 -41t9.5 -50.5q0 -26 -9.5 -48.5t-26.5 -39t-40.5 -26t-50.5 -9.5h-359q-31 0 -56 12
t-42 32.5t-26.5 46t-9.5 52.5q0 23 8.5 44.5t26.5 38.5l302 278q3 5 6.5 11.5t3.5 14.5q0 13 -9 25t-28 12q-20 0 -28.5 -8t-10.5 -13q-3 -23 -14.5 -43t-29 -35t-40 -23.5t-47.5 -8.5q-27 0 -50.5 10t-41 28t-27.5 42t-10 51z" />
    <glyph glyph-name="threesuperior" unicode="&#xb3;" horiz-adv-x="641" 
d="M42 676q-10 17 -10 39q0 15 6.5 31.5t18.5 30t28.5 22t36.5 8.5q11 0 24 -4t24.5 -11.5t20 -18t11.5 -23.5q17 -25 45 -34.5t66 -9.5q31 0 55 23.5t24 60.5q0 29 -22.5 48t-58.5 19h-52q-23 0 -43 7t-35.5 19.5t-24.5 28.5t-9 34q1 16 7 31.5t19 29.5l86 88h-144
q-18 0 -36.5 6t-34 19t-25.5 32.5t-10 45.5t10 47t25.5 35.5t34 22t36.5 7.5h368q18 0 36 -9t33 -24t24 -35t9 -41q0 -34 -21 -61q-4 -12 -11 -19l-93 -98q60 -32 96 -88.5t36 -134.5q0 -60 -23 -113t-63 -92.5t-93 -62.5t-114 -23q-41 0 -79 13t-72 35.5t-61 53t-45 65.5z
" />
    <glyph glyph-name="acute" unicode="&#xb4;" horiz-adv-x="510" 
d="M300 1831q15 4 34 4q27 0 51.5 -10.5t43.5 -28.5t30 -43t11 -54q0 -45 -27 -80t-72 -47l-154 -41q-10 -3 -19 -4t-19 -1q-27 0 -50.5 10t-41 28t-28 43t-10.5 54q0 45 26.5 80.5t74.5 48.5z" />
    <glyph glyph-name="mu" unicode="&#xb5;" horiz-adv-x="1198" 
d="M133 831q0 28 11 52.5t29.5 42.5t43 28.5t51.5 10.5q28 0 52 -10.5t41.5 -28.5t27.5 -42.5t10 -52.5v-389q0 -46 19 -87.5t50.5 -73t73.5 -50t87 -18.5q47 0 86.5 18.5t68 50t44.5 73t16 87.5v389q0 28 10 52.5t28 42.5t42 28.5t52 10.5t52 -10.5t42 -28.5t28.5 -42.5
t10.5 -52.5v-394q-1 -102 -38 -191.5t-101 -156.5t-151.5 -105.5t-189.5 -38.5q-63 0 -120.5 15t-109.5 42v-213q0 -29 -10 -53.5t-27 -42.5t-40.5 -28.5t-51.5 -10.5t-53 10.5t-43.5 28.5t-29.5 42.5t-11 53.5v1042z" />
    </font>
</defs>
</svg>
